<svg width="360" height="540" viewBox="0 0 360 540" fill="none" xmlns="http://www.w3.org/2000/svg">
<g id="10C">
<path id="rect14568" d="M329.556 0.5H30.444C13.9064 0.5 0.5 13.9064 0.5 30.444V509.556C0.5 526.094 13.9064 539.5 30.444 539.5H329.556C346.094 539.5 359.5 526.094 359.5 509.556V30.444C359.5 13.9064 346.094 0.5 329.556 0.5Z" fill="white" stroke="black"/>
<g id="g14570">
<path id="path14572" d="M15 30.002L10 37.002V44.002L15 37.002V80.002H20V30.002H15Z" fill="black"/>
<path id="path14574" d="M35 30.002C29.46 30.002 25 34.462 25 40.002V70.002C25 75.542 29.46 80.002 35 80.002C40.54 80.002 45 75.542 45 70.002V40.002C45 34.462 40.54 30.002 35 30.002ZM35 35.002C37.77 35.002 40 37.232 40 40.002V70.002C40 72.772 37.77 75.002 35 75.002C32.23 75.002 30 72.772 30 70.002V40.002C30 37.232 32.23 35.002 35 35.002Z" fill="black"/>
</g>
<g id="g14576">
<path id="path14578" d="M345 510L350 503V496L345 503V460H340V510H345Z" fill="black"/>
<path id="path14580" d="M325 510C330.54 510 335 505.54 335 500V470C335 464.46 330.54 460 325 460C319.46 460 315 464.46 315 470V500C315 505.54 319.46 510 325 510ZM325 505C322.23 505 320 502.77 320 500V470C320 467.23 322.23 465 325 465C327.77 465 330 467.23 330 470V500C330 502.77 327.77 505 325 505Z" fill="black"/>
</g>
<path id="path14582" d="M100 50.01C96.001 49.928 93.333 51.343 90.667 54.01C88 56.677 86.667 59.343 86.667 63.343C86.667 67.343 88.185 69.715 90.667 72.676C93.042 75.509 94.667 76.6761 96 79.3421C97.333 82.0091 98.667 87.342 98.667 90.008C98.667 92.675 98.667 92.406 98.667 94.008H96C93.333 94.008 88 91.341 86.667 90.008L82.667 86.008C80 83.341 77.334 82.008 73.334 82.008C69.334 82.008 66.667 83.341 64.001 86.008C61.334 88.675 60.001 91.341 60.001 95.341C60.001 99.341 61.334 102.007 64.001 104.674C66.668 107.341 69.334 108.674 73.334 108.674C77.334 108.674 80.001 107.341 82.667 104.674L86.667 100.674C88 99.341 93.334 96.674 96 96.674H98.667C98.601 100.45 98.321 107.044 97.334 110.007C96.001 114.007 93.334 118.007 90.667 120.673C88 123.34 80 128.673 80 128.673V130.006C80 130.006 93.333 127.339 96 127.339H104C106.667 127.339 120 130.006 120 130.006V128.673C120 128.673 112 123.34 109.333 120.673C106.666 118.006 104 114.007 102.666 110.007C101.678 107.044 101.399 100.45 101.333 96.674H104C106.667 96.674 112 99.341 113.333 100.674L117.333 104.674C120 107.341 122.666 108.674 126.666 108.674C130.666 108.674 133.333 107.341 135.999 104.674C138.666 102.007 139.999 99.341 139.999 95.341C139.999 91.341 138.666 88.675 135.999 86.008C133.332 83.341 130.666 82.008 126.666 82.008C122.666 82.008 119.999 83.341 117.333 86.008L113.333 90.008C112 91.341 106.666 94.008 104 94.008H101.333C101.333 92.153 101.333 92.675 101.333 90.008C101.333 87.341 102.666 82.0081 104 79.3421C105.333 76.6751 106.667 75.342 109.333 72.676C111.986 70.023 113.333 67.343 113.333 63.343C113.333 59.343 112 56.677 109.333 54.01C106.666 51.343 104 50.01 100 50.01Z" fill="black"/>
<path id="path14584" d="M260 50.01C256.001 49.928 253.333 51.343 250.667 54.01C248 56.677 246.667 59.343 246.667 63.343C246.667 67.343 248.185 69.715 250.667 72.676C253.042 75.509 254.667 76.6761 256 79.3421C257.333 82.0091 258.667 87.342 258.667 90.008C258.667 92.675 258.667 92.406 258.667 94.008H256C253.333 94.008 248 91.341 246.667 90.008L242.667 86.008C240 83.341 237.334 82.008 233.334 82.008C229.334 82.008 226.667 83.341 224.001 86.008C221.334 88.675 220.001 91.341 220.001 95.341C220.001 99.341 221.334 102.007 224.001 104.674C226.668 107.341 229.334 108.674 233.334 108.674C237.334 108.674 240.001 107.341 242.667 104.674L246.667 100.674C248 99.341 253.334 96.674 256 96.674H258.667C258.601 100.45 258.321 107.044 257.334 110.007C256.001 114.007 253.334 118.007 250.667 120.673C248 123.34 240 128.673 240 128.673V130.006C240 130.006 253.333 127.339 256 127.339H264C266.667 127.339 280 130.006 280 130.006V128.673C280 128.673 272 123.34 269.333 120.673C266.666 118.006 264 114.007 262.666 110.007C261.678 107.044 261.399 100.45 261.333 96.674H264C266.667 96.674 272 99.341 273.333 100.674L277.333 104.674C280 107.341 282.666 108.674 286.666 108.674C290.666 108.674 293.333 107.341 295.999 104.674C298.666 102.007 299.999 99.341 299.999 95.341C299.999 91.341 298.666 88.675 295.999 86.008C293.332 83.341 290.666 82.008 286.666 82.008C282.666 82.008 279.999 83.341 277.333 86.008L273.333 90.008C272 91.341 266.666 94.008 264 94.008H261.333C261.333 92.153 261.333 92.675 261.333 90.008C261.333 87.341 262.666 82.0081 264 79.3421C265.333 76.6751 266.667 75.342 269.333 72.676C271.986 70.023 273.333 67.343 273.333 63.343C273.333 59.343 272 56.677 269.333 54.01C266.666 51.343 264 50.01 260 50.01Z" fill="black"/>
<path id="path14586" d="M180 110.01C176.001 109.928 173.333 111.343 170.667 114.01C168 116.677 166.667 119.343 166.667 123.343C166.667 127.343 168.185 129.715 170.667 132.676C173.042 135.509 174.667 136.676 176 139.342C177.333 142.009 178.667 147.342 178.667 150.008C178.667 152.675 178.667 152.406 178.667 154.008H176C173.333 154.008 168 151.341 166.667 150.008L162.667 146.008C160 143.341 157.334 142.008 153.334 142.008C149.334 142.008 146.667 143.341 144.001 146.008C141.334 148.675 140.001 151.341 140.001 155.341C140.001 159.341 141.334 162.007 144.001 164.674C146.668 167.341 149.334 168.674 153.334 168.674C157.334 168.674 160.001 167.341 162.667 164.674L166.667 160.674C168 159.341 173.334 156.674 176 156.674H178.667C178.601 160.45 178.321 167.044 177.334 170.007C176.001 174.007 173.334 178.007 170.667 180.673C168 183.34 160 188.673 160 188.673V190.006C160 190.006 173.333 187.339 176 187.339H184C186.667 187.339 200 190.006 200 190.006V188.673C200 188.673 192 183.34 189.333 180.673C186.666 178.006 184 174.007 182.666 170.007C181.678 167.044 181.399 160.45 181.333 156.674H184C186.667 156.674 192 159.341 193.333 160.674L197.333 164.674C200 167.341 202.666 168.674 206.666 168.674C210.666 168.674 213.333 167.341 215.999 164.674C218.666 162.007 219.999 159.341 219.999 155.341C219.999 151.341 218.666 148.675 215.999 146.008C213.332 143.341 210.666 142.008 206.666 142.008C202.666 142.008 199.999 143.341 197.333 146.008L193.333 150.008C192 151.341 186.666 154.008 184 154.008H181.333C181.333 152.153 181.333 152.675 181.333 150.008C181.333 147.341 182.666 142.008 184 139.342C185.333 136.675 186.667 135.342 189.333 132.676C191.986 130.023 193.333 127.343 193.333 123.343C193.333 119.343 192 116.677 189.333 114.01C186.666 111.343 184 110.01 180 110.01Z" fill="black"/>
<path id="path14588" d="M100 170.01C96.001 169.928 93.333 171.343 90.667 174.01C88 176.677 86.667 179.343 86.667 183.343C86.667 187.343 88.185 189.715 90.667 192.676C93.042 195.509 94.667 196.676 96 199.342C97.333 202.009 98.667 207.342 98.667 210.008C98.667 212.675 98.667 212.406 98.667 214.008H96C93.333 214.008 88 211.341 86.667 210.008L82.667 206.008C80 203.341 77.334 202.008 73.334 202.008C69.334 202.008 66.667 203.341 64.001 206.008C61.334 208.675 60.001 211.341 60.001 215.341C60.001 219.341 61.334 222.007 64.001 224.674C66.668 227.341 69.334 228.674 73.334 228.674C77.334 228.674 80.001 227.341 82.667 224.674L86.667 220.674C88 219.341 93.334 216.674 96 216.674H98.667C98.601 220.45 98.321 227.044 97.334 230.007C96.001 234.007 93.334 238.007 90.667 240.673C88 243.34 80 248.673 80 248.673V250.006C80 250.006 93.333 247.339 96 247.339H104C106.667 247.339 120 250.006 120 250.006V248.673C120 248.673 112 243.34 109.333 240.673C106.666 238.006 104 234.007 102.666 230.007C101.678 227.044 101.399 220.45 101.333 216.674H104C106.667 216.674 112 219.341 113.333 220.674L117.333 224.674C120 227.341 122.666 228.674 126.666 228.674C130.666 228.674 133.333 227.341 135.999 224.674C138.666 222.007 139.999 219.341 139.999 215.341C139.999 211.341 138.666 208.675 135.999 206.008C133.332 203.341 130.666 202.008 126.666 202.008C122.666 202.008 119.999 203.341 117.333 206.008L113.333 210.008C112 211.341 106.666 214.008 104 214.008H101.333C101.333 212.153 101.333 212.675 101.333 210.008C101.333 207.341 102.666 202.008 104 199.342C105.333 196.675 106.667 195.342 109.333 192.676C111.986 190.023 113.333 187.343 113.333 183.343C113.333 179.343 112 176.677 109.333 174.01C106.666 171.343 104 170.01 100 170.01Z" fill="black"/>
<path id="path14590" d="M260 170.01C256.001 169.928 253.333 171.343 250.667 174.01C248 176.677 246.667 179.343 246.667 183.343C246.667 187.343 248.185 189.715 250.667 192.676C253.042 195.509 254.667 196.676 256 199.342C257.333 202.009 258.667 207.342 258.667 210.008C258.667 212.675 258.667 212.406 258.667 214.008H256C253.333 214.008 248 211.341 246.667 210.008L242.667 206.008C240 203.341 237.334 202.008 233.334 202.008C229.334 202.008 226.667 203.341 224.001 206.008C221.334 208.675 220.001 211.341 220.001 215.341C220.001 219.341 221.334 222.007 224.001 224.674C226.668 227.341 229.334 228.674 233.334 228.674C237.334 228.674 240.001 227.341 242.667 224.674L246.667 220.674C248 219.341 253.334 216.674 256 216.674H258.667C258.601 220.45 258.321 227.044 257.334 230.007C256.001 234.007 253.334 238.007 250.667 240.673C248 243.34 240 248.673 240 248.673V250.006C240 250.006 253.333 247.339 256 247.339H264C266.667 247.339 280 250.006 280 250.006V248.673C280 248.673 272 243.34 269.333 240.673C266.666 238.006 264 234.007 262.666 230.007C261.678 227.044 261.399 220.45 261.333 216.674H264C266.667 216.674 272 219.341 273.333 220.674L277.333 224.674C280 227.341 282.666 228.674 286.666 228.674C290.666 228.674 293.333 227.341 295.999 224.674C298.666 222.007 299.999 219.341 299.999 215.341C299.999 211.341 298.666 208.675 295.999 206.008C293.332 203.341 290.666 202.008 286.666 202.008C282.666 202.008 279.999 203.341 277.333 206.008L273.333 210.008C272 211.341 266.666 214.008 264 214.008H261.333C261.333 212.153 261.333 212.675 261.333 210.008C261.333 207.341 262.666 202.008 264 199.342C265.333 196.675 266.667 195.342 269.333 192.676C271.986 190.023 273.333 187.343 273.333 183.343C273.333 179.343 272 176.677 269.333 174.01C266.666 171.343 264 170.01 260 170.01Z" fill="black"/>
<path id="path14592" d="M180 430C176.001 430.082 173.333 428.667 170.667 426C168 423.333 166.667 420.667 166.667 416.667C166.667 412.667 168.185 410.295 170.667 407.334C173.042 404.501 174.667 403.334 176 400.668C177.333 398.001 178.667 392.668 178.667 390.002C178.667 387.335 178.667 387.604 178.667 386.002H176C173.333 386.002 168 388.669 166.667 390.002L162.667 394.002C160 396.669 157.334 398.002 153.334 398.002C149.334 398.002 146.667 396.669 144.001 394.002C141.334 391.335 140.001 388.669 140.001 384.669C140.001 380.669 141.334 378.003 144.001 375.336C146.668 372.669 149.334 371.336 153.334 371.336C157.334 371.336 160.001 372.669 162.667 375.336L166.667 379.336C168 380.669 173.334 383.336 176 383.336H178.667C178.601 379.56 178.321 372.966 177.334 370.003C176.001 366.003 173.334 362.003 170.667 359.337C168 356.67 160 351.337 160 351.337V350.004C160 350.004 173.333 352.671 176 352.671H184C186.667 352.671 200 350.004 200 350.004V351.337C200 351.337 192 356.67 189.333 359.337C186.666 362.004 184 366.003 182.666 370.003C181.678 372.966 181.399 379.56 181.333 383.336H184C186.667 383.336 192 380.669 193.333 379.336L197.333 375.336C200 372.669 202.666 371.336 206.666 371.336C210.666 371.336 213.333 372.669 215.999 375.336C218.666 378.003 219.999 380.669 219.999 384.669C219.999 388.669 218.666 391.335 215.999 394.002C213.332 396.669 210.666 398.002 206.666 398.002C202.666 398.002 199.999 396.669 197.333 394.002L193.333 390.002C192 388.669 186.666 386.002 184 386.002H181.333C181.333 387.857 181.333 387.335 181.333 390.002C181.333 392.669 182.666 398.002 184 400.668C185.333 403.335 186.667 404.668 189.333 407.334C191.986 409.987 193.333 412.667 193.333 416.667C193.333 420.667 192 423.333 189.333 426C186.666 428.667 184 430 180 430Z" fill="black"/>
<path id="path14594" d="M260 490C256.001 490.082 253.333 488.667 250.667 486C248 483.333 246.667 480.667 246.667 476.667C246.667 472.667 248.185 470.295 250.667 467.334C253.042 464.501 254.667 463.334 256 460.668C257.333 458.001 258.667 452.668 258.667 450.002C258.667 447.335 258.667 447.604 258.667 446.002H256C253.333 446.002 248 448.669 246.667 450.002L242.667 454.002C240 456.669 237.334 458.002 233.334 458.002C229.334 458.002 226.667 456.669 224.001 454.002C221.334 451.335 220.001 448.669 220.001 444.669C220.001 440.669 221.334 438.003 224.001 435.336C226.668 432.669 229.334 431.336 233.334 431.336C237.334 431.336 240.001 432.669 242.667 435.336L246.667 439.336C248 440.669 253.334 443.336 256 443.336H258.667C258.601 439.56 258.321 432.966 257.334 430.003C256.001 426.003 253.334 422.003 250.667 419.337C248 416.67 240 411.337 240 411.337V410.004C240 410.004 253.333 412.671 256 412.671H264C266.667 412.671 280 410.004 280 410.004V411.337C280 411.337 272 416.67 269.333 419.337C266.666 422.004 264 426.003 262.666 430.003C261.678 432.966 261.399 439.56 261.333 443.336H264C266.667 443.336 272 440.669 273.333 439.336L277.333 435.336C280 432.669 282.666 431.336 286.666 431.336C290.666 431.336 293.333 432.669 295.999 435.336C298.666 438.003 299.999 440.669 299.999 444.669C299.999 448.669 298.666 451.335 295.999 454.002C293.332 456.669 290.666 458.002 286.666 458.002C282.666 458.002 279.999 456.669 277.333 454.002L273.333 450.002C272 448.669 266.666 446.002 264 446.002H261.333C261.333 447.857 261.333 447.335 261.333 450.002C261.333 452.669 262.666 458.002 264 460.668C265.333 463.335 266.667 464.668 269.333 467.334C271.986 469.987 273.333 472.667 273.333 476.667C273.333 480.667 272 483.333 269.333 486C266.666 488.667 264 490 260 490Z" fill="black"/>
<path id="path14596" d="M100 370C96.001 370.082 93.333 368.667 90.667 366C88 363.333 86.667 360.667 86.667 356.667C86.667 352.667 88.185 350.295 90.667 347.334C93.042 344.501 94.667 343.334 96 340.668C97.333 338.001 98.667 332.668 98.667 330.002C98.667 327.335 98.667 327.604 98.667 326.002H96C93.333 326.002 88 328.669 86.667 330.002L82.667 334.002C80 336.669 77.334 338.002 73.334 338.002C69.334 338.002 66.667 336.669 64.001 334.002C61.334 331.335 60.001 328.669 60.001 324.669C60.001 320.669 61.334 318.003 64.001 315.336C66.668 312.669 69.334 311.336 73.334 311.336C77.334 311.336 80.001 312.669 82.667 315.336L86.667 319.336C88 320.669 93.334 323.336 96 323.336H98.667C98.601 319.56 98.321 312.966 97.334 310.003C96.001 306.003 93.334 302.003 90.667 299.337C88 296.67 80 291.337 80 291.337V290.004C80 290.004 93.333 292.671 96 292.671H104C106.667 292.671 120 290.004 120 290.004V291.337C120 291.337 112 296.67 109.333 299.337C106.666 302.004 104 306.003 102.666 310.003C101.678 312.966 101.399 319.56 101.333 323.336H104C106.667 323.336 112 320.669 113.333 319.336L117.333 315.336C120 312.669 122.666 311.336 126.666 311.336C130.666 311.336 133.333 312.669 135.999 315.336C138.666 318.003 139.999 320.669 139.999 324.669C139.999 328.669 138.666 331.335 135.999 334.002C133.332 336.669 130.666 338.002 126.666 338.002C122.666 338.002 119.999 336.669 117.333 334.002L113.333 330.002C112 328.669 106.666 326.002 104 326.002H101.333C101.333 327.857 101.333 327.335 101.333 330.002C101.333 332.669 102.666 338.002 104 340.668C105.333 343.335 106.667 344.668 109.333 347.334C111.986 349.987 113.333 352.667 113.333 356.667C113.333 360.667 112 363.333 109.333 366C106.666 368.667 104 370 100 370Z" fill="black"/>
<path id="path14598" d="M260 370C256.001 370.082 253.333 368.667 250.667 366C248 363.333 246.667 360.667 246.667 356.667C246.667 352.667 248.185 350.295 250.667 347.334C253.042 344.501 254.667 343.334 256 340.668C257.333 338.001 258.667 332.668 258.667 330.002C258.667 327.335 258.667 327.604 258.667 326.002H256C253.333 326.002 248 328.669 246.667 330.002L242.667 334.002C240 336.669 237.334 338.002 233.334 338.002C229.334 338.002 226.667 336.669 224.001 334.002C221.334 331.335 220.001 328.669 220.001 324.669C220.001 320.669 221.334 318.003 224.001 315.336C226.668 312.669 229.334 311.336 233.334 311.336C237.334 311.336 240.001 312.669 242.667 315.336L246.667 319.336C248 320.669 253.334 323.336 256 323.336H258.667C258.601 319.56 258.321 312.966 257.334 310.003C256.001 306.003 253.334 302.003 250.667 299.337C248 296.67 240 291.337 240 291.337V290.004C240 290.004 253.333 292.671 256 292.671H264C266.667 292.671 280 290.004 280 290.004V291.337C280 291.337 272 296.67 269.333 299.337C266.666 302.004 264 306.003 262.666 310.003C261.678 312.966 261.399 319.56 261.333 323.336H264C266.667 323.336 272 320.669 273.333 319.336L277.333 315.336C280 312.669 282.666 311.336 286.666 311.336C290.666 311.336 293.333 312.669 295.999 315.336C298.666 318.003 299.999 320.669 299.999 324.669C299.999 328.669 298.666 331.335 295.999 334.002C293.332 336.669 290.666 338.002 286.666 338.002C282.666 338.002 279.999 336.669 277.333 334.002L273.333 330.002C272 328.669 266.666 326.002 264 326.002H261.333C261.333 327.857 261.333 327.335 261.333 330.002C261.333 332.669 262.666 338.002 264 340.668C265.333 343.335 266.667 344.668 269.333 347.334C271.986 349.987 273.333 352.667 273.333 356.667C273.333 360.667 272 363.333 269.333 366C266.666 368.667 264 370 260 370Z" fill="black"/>
<path id="path14600" d="M100 490C96.001 490.082 93.333 488.667 90.667 486C88 483.333 86.667 480.667 86.667 476.667C86.667 472.667 88.185 470.295 90.667 467.334C93.042 464.501 94.667 463.334 96 460.668C97.333 458.001 98.667 452.668 98.667 450.002C98.667 447.335 98.667 447.604 98.667 446.002H96C93.333 446.002 88 448.669 86.667 450.002L82.667 454.002C80 456.669 77.334 458.002 73.334 458.002C69.334 458.002 66.667 456.669 64.001 454.002C61.334 451.335 60.001 448.669 60.001 444.669C60.001 440.669 61.334 438.003 64.001 435.336C66.668 432.669 69.334 431.336 73.334 431.336C77.334 431.336 80.001 432.669 82.667 435.336L86.667 439.336C88 440.669 93.334 443.336 96 443.336H98.667C98.601 439.56 98.321 432.966 97.334 430.003C96.001 426.003 93.334 422.003 90.667 419.337C88 416.67 80 411.337 80 411.337V410.004C80 410.004 93.333 412.671 96 412.671H104C106.667 412.671 120 410.004 120 410.004V411.337C120 411.337 112 416.67 109.333 419.337C106.666 422.004 104 426.003 102.666 430.003C101.678 432.966 101.399 439.56 101.333 443.336H104C106.667 443.336 112 440.669 113.333 439.336L117.333 435.336C120 432.669 122.666 431.336 126.666 431.336C130.666 431.336 133.333 432.669 135.999 435.336C138.666 438.003 139.999 440.669 139.999 444.669C139.999 448.669 138.666 451.335 135.999 454.002C133.332 456.669 130.666 458.002 126.666 458.002C122.666 458.002 119.999 456.669 117.333 454.002L113.333 450.002C112 448.669 106.666 446.002 104 446.002H101.333C101.333 447.857 101.333 447.335 101.333 450.002C101.333 452.669 102.666 458.002 104 460.668C105.333 463.335 106.667 464.668 109.333 467.334C111.986 469.987 113.333 472.667 113.333 476.667C113.333 480.667 112 483.333 109.333 486C106.666 488.667 104 490 100 490Z" fill="black"/>
<path id="path14602" d="M30 90C28.5 89.969 27.5 90.5 26.5 91.5C25.5 92.5 25 93.5 25 95C25 96.5 25.569 97.39 26.5 98.5C27.391 99.563 28 100 28.5 101C29 102 29.5 104 29.5 105C29.5 106 29.5 105.899 29.5 106.5H28.5C27.5 106.5 25.5 105.5 25 105L23.5 103.5C22.5 102.5 21.5 102 20 102C18.5 102 17.5 102.5 16.5 103.5C15.5 104.5 15 105.5 15 107C15 108.5 15.5 109.5 16.5 110.5C17.5 111.5 18.5 112 20 112C21.5 112 22.5 111.5 23.5 110.5L25 109C25.5 108.5 27.5 107.5 28.5 107.5H29.5C29.475 108.916 29.37 111.389 29 112.5C28.5 114 27.5 115.5 26.5 116.5C25.5 117.5 22.5 119.5 22.5 119.5V120C22.5 120 27.5 119 28.5 119H31.5C32.5 119 37.5 120 37.5 120V119.5C37.5 119.5 34.5 117.5 33.5 116.5C32.5 115.5 31.5 114 31 112.5C30.63 111.389 30.525 108.916 30.5 107.5H31.5C32.5 107.5 34.5 108.5 35 109L36.5 110.5C37.5 111.5 38.5 112 40 112C41.5 112 42.5 111.5 43.5 110.5C44.5 109.5 45 108.5 45 107C45 105.5 44.5 104.5 43.5 103.5C42.5 102.5 41.5 102 40 102C38.5 102 37.5 102.5 36.5 103.5L35 105C34.5 105.5 32.5 106.5 31.5 106.5H30.5C30.5 105.804 30.5 106 30.5 105C30.5 104 31 102 31.5 101C32 100 32.5 99.5 33.5 98.5C34.495 97.505 35 96.5 35 95C35 93.5 34.5 92.5 33.5 91.5C32.5 90.5 31.5 90 30 90Z" fill="black"/>
<path id="path14604" d="M330 450C328.5 450.031 327.5 449.5 326.5 448.5C325.5 447.5 325 446.5 325 445C325 443.5 325.569 442.61 326.5 441.5C327.391 440.437 328 440 328.5 439C329 438 329.5 436 329.5 435C329.5 434 329.5 434.101 329.5 433.5H328.5C327.5 433.5 325.5 434.5 325 435L323.5 436.5C322.5 437.5 321.5 438 320 438C318.5 438 317.5 437.5 316.5 436.5C315.5 435.5 315 434.5 315 433C315 431.5 315.5 430.5 316.5 429.5C317.5 428.5 318.5 428 320 428C321.5 428 322.5 428.5 323.5 429.5L325 431C325.5 431.5 327.5 432.5 328.5 432.5H329.5C329.475 431.084 329.37 428.611 329 427.5C328.5 426 327.5 424.5 326.5 423.5C325.5 422.5 322.5 420.5 322.5 420.5V420C322.5 420 327.5 421 328.5 421H331.5C332.5 421 337.5 420 337.5 420V420.5C337.5 420.5 334.5 422.5 333.5 423.5C332.5 424.5 331.5 426 331 427.5C330.63 428.611 330.525 431.084 330.5 432.5H331.5C332.5 432.5 334.5 431.5 335 431L336.5 429.5C337.5 428.5 338.5 428 340 428C341.5 428 342.5 428.5 343.5 429.5C344.5 430.5 345 431.5 345 433C345 434.5 344.5 435.5 343.5 436.5C342.5 437.5 341.5 438 340 438C338.5 438 337.5 437.5 336.5 436.5L335 435C334.5 434.5 332.5 433.5 331.5 433.5H330.5C330.5 434.196 330.5 434 330.5 435C330.5 436 331 438 331.5 439C332 440 332.5 440.5 333.5 441.5C334.495 442.495 335 443.5 335 445C335 446.5 334.5 447.5 333.5 448.5C332.5 449.5 331.5 450 330 450Z" fill="black"/>
</g>
</svg>
