<svg width="360" height="540" viewBox="0 0 360 540" fill="none" xmlns="http://www.w3.org/2000/svg">
<g id="10D">
<path id="rect14648" d="M329.556 0.5H30.444C13.9064 0.5 0.5 13.9064 0.5 30.444V509.556C0.5 526.094 13.9064 539.5 30.444 539.5H329.556C346.094 539.5 359.5 526.094 359.5 509.556V30.444C359.5 13.9064 346.094 0.5 329.556 0.5Z" fill="white" stroke="black"/>
<g id="g14650">
<path id="path14652" d="M15 30.002L10 37.002V44.002L15 37.002V80.002H20V30.002H15Z" fill="#FF5555"/>
<path id="path14654" d="M35 30.002C29.46 30.002 25 34.462 25 40.002V70.002C25 75.542 29.46 80.002 35 80.002C40.54 80.002 45 75.542 45 70.002V40.002C45 34.462 40.54 30.002 35 30.002ZM35 35.002C37.77 35.002 40 37.232 40 40.002V70.002C40 72.772 37.77 75.002 35 75.002C32.23 75.002 30 72.772 30 70.002V40.002C30 37.232 32.23 35.002 35 35.002Z" fill="#FF5555"/>
</g>
<g id="g14656">
<g id="g14658">
<path id="path14660" d="M345 510L350 503V496L345 503V460H340V510H345Z" fill="#FF5555"/>
<path id="path14662" d="M325 510C330.54 510 335 505.54 335 500V470C335 464.46 330.54 460 325 460C319.46 460 315 464.46 315 470V500C315 505.54 319.46 510 325 510ZM325 505C322.23 505 320 502.77 320 500V470C320 467.23 322.23 465 325 465C327.77 465 330 467.23 330 470V500C330 502.77 327.77 505 325 505Z" fill="#FF5555"/>
</g>
<path id="path14664" d="M100 50C100 50 108 63.333 117.333 72.667C126.666 82 140 90 140 90C140 90 126.667 98 117.333 107.333C108 116.666 100 130 100 130C100 130 92 116.667 82.667 107.333C73.334 98 60 90 60 90C60 90 73.333 82 82.667 72.667C92 63.334 100 50 100 50Z" fill="#FF5555"/>
<path id="path14666" d="M330 420C330 420 333 425 336.5 428.5C340 432 345 435 345 435C345 435 340 438 336.5 441.5C333 445 330 450 330 450C330 450 327 445 323.5 441.5C320 438 315 435 315 435C315 435 320 432 323.5 428.5C327 425 330 420 330 420Z" fill="#FF5555"/>
<path id="path14668" d="M30 90C30 90 33 95 36.5 98.5C40 102 45 105 45 105C45 105 40 108 36.5 111.5C33 115 30 120 30 120C30 120 27 115 23.5 111.5C20 108 15 105 15 105C15 105 20 102 23.5 98.5C27 95 30 90 30 90Z" fill="#FF5555"/>
<path id="path14670" d="M260 50C260 50 268 63.333 277.333 72.667C286.666 82 300 90 300 90C300 90 286.667 98 277.333 107.333C268 116.666 260 130 260 130C260 130 252 116.667 242.667 107.333C233.334 98 220 90 220 90C220 90 233.333 82 242.667 72.667C252 63.334 260 50 260 50Z" fill="#FF5555"/>
<path id="path14672" d="M260 170C260 170 268 183.333 277.333 192.667C286.666 202 300 210 300 210C300 210 286.667 218 277.333 227.333C268 236.666 260 250 260 250C260 250 252 236.667 242.667 227.333C233.334 218 220 210 220 210C220 210 233.333 202 242.667 192.667C252 183.334 260 170 260 170Z" fill="#FF5555"/>
<path id="path14674" d="M260 290C260 290 268 303.333 277.333 312.667C286.666 322 300 330 300 330C300 330 286.667 338 277.333 347.333C268 356.666 260 370 260 370C260 370 252 356.667 242.667 347.333C233.334 338 220 330 220 330C220 330 233.333 322 242.667 312.667C252 303.334 260 290 260 290Z" fill="#FF5555"/>
<path id="path14676" d="M260 410C260 410 268 423.333 277.333 432.667C286.666 442 300 450 300 450C300 450 286.667 458 277.333 467.333C268 476.666 260 490 260 490C260 490 252 476.667 242.667 467.333C233.334 458 220 450 220 450C220 450 233.333 442 242.667 432.667C252 423.334 260 410 260 410Z" fill="#FF5555"/>
<path id="path14678" d="M100 170C100 170 108 183.333 117.333 192.667C126.666 202 140 210 140 210C140 210 126.667 218 117.333 227.333C108 236.666 100 250 100 250C100 250 92 236.667 82.667 227.333C73.334 218 60 210 60 210C60 210 73.333 202 82.667 192.667C92 183.334 100 170 100 170Z" fill="#FF5555"/>
<path id="path14680" d="M100 290C100 290 108 303.333 117.333 312.667C126.666 322 140 330 140 330C140 330 126.667 338 117.333 347.333C108 356.666 100 370 100 370C100 370 92 356.667 82.667 347.333C73.334 338 60 330 60 330C60 330 73.333 322 82.667 312.667C92 303.334 100 290 100 290Z" fill="#FF5555"/>
<path id="path14682" d="M100 410C100 410 108 423.333 117.333 432.667C126.666 442 140 450 140 450C140 450 126.667 458 117.333 467.333C108 476.666 100 490 100 490C100 490 92 476.667 82.667 467.333C73.334 458 60 450 60 450C60 450 73.333 442 82.667 432.667C92 423.334 100 410 100 410Z" fill="#FF5555"/>
<path id="path14684" d="M180 110C180 110 188 123.333 197.333 132.667C206.666 142 220 150 220 150C220 150 206.667 158 197.333 167.333C188 176.666 180 190 180 190C180 190 172 176.667 162.667 167.333C153.334 158 140 150 140 150C140 150 153.333 142 162.667 132.667C172 123.334 180 110 180 110Z" fill="#FF5555"/>
<path id="path14686" d="M180 350C180 350 188 363.333 197.333 372.667C206.666 382 220 390 220 390C220 390 206.667 398 197.333 407.333C188 416.666 180 430 180 430C180 430 172 416.667 162.667 407.333C153.334 398 140 390 140 390C140 390 153.333 382 162.667 372.667C172 363.334 180 350 180 350Z" fill="#FF5555"/>
</g>
</g>
</svg>
