<svg width="360" height="540" viewBox="0 0 360 540" fill="none" xmlns="http://www.w3.org/2000/svg">
<g id="10S">
<path id="rect14608" d="M329.556 0.5H30.444C13.9064 0.5 0.5 13.9064 0.5 30.444V509.556C0.5 526.094 13.9064 539.5 30.444 539.5H329.556C346.094 539.5 359.5 526.094 359.5 509.556V30.444C359.5 13.9064 346.094 0.5 329.556 0.5Z" fill="white" stroke="black"/>
<g id="g14610">
<path id="path14612" d="M15 30.002L10 37.002V44.002L15 37.002V80.002H20V30.002H15Z" fill="black"/>
<path id="path14614" d="M35 30.002C29.46 30.002 25 34.462 25 40.002V70.002C25 75.542 29.46 80.002 35 80.002C40.54 80.002 45 75.542 45 70.002V40.002C45 34.462 40.54 30.002 35 30.002ZM35 35.002C37.77 35.002 40 37.232 40 40.002V70.002C40 72.772 37.77 75.002 35 75.002C32.23 75.002 30 72.772 30 70.002V40.002C30 37.232 32.23 35.002 35 35.002Z" fill="black"/>
</g>
<g id="g14616">
<path id="path14618" d="M345 510L350 503V496L345 503V460H340V510H345Z" fill="black"/>
<path id="path14620" d="M325 510C330.54 510 335 505.54 335 500V470C335 464.46 330.54 460 325 460C319.46 460 315 464.46 315 470V500C315 505.54 319.46 510 325 510ZM325 505C322.23 505 320 502.77 320 500V470C320 467.23 322.23 465 325 465C327.77 465 330 467.23 330 470V500C330 502.77 327.77 505 325 505Z" fill="black"/>
</g>
<path id="path14622" d="M100 50C98.667 56.667 97.145 58.392 94.667 62C92.532 65.109 89.545 67.562 86.667 70C83.75 72.471 80.419 74.408 77.334 76.667C73.748 79.292 69.515 81.255 66.667 84.667C63.483 88.482 60 93.031 60 98C60 101.975 62.408 105.975 65.333 108.667C68.856 111.908 73.881 114.111 78.666 114C84.035 113.876 89.466 111.06 93.333 107.333C96.195 104.575 98.666 96.666 98.666 96.666V99.333C98.666 100.666 98.533 106.623 97.333 110C95.929 113.951 93.503 117.579 90.666 120.667C87.656 123.94 79.999 128.667 79.999 128.667V130C79.999 130 90.611 127.779 95.999 127.333C98.657 127.113 101.341 127.113 103.999 127.333C109.387 127.779 119.999 130 119.999 130V128.667C119.999 128.667 112.339 123.94 109.332 120.667C106.496 117.579 104.069 113.951 102.665 110C101.465 106.624 101.332 99.333 101.332 99.333V96.666C101.332 96.666 103.803 104.574 106.665 107.333C110.532 111.059 115.963 113.876 121.332 114C126.118 114.11 131.143 111.908 134.665 108.667C137.59 105.975 139.998 101.976 139.998 98C139.998 93.031 136.515 88.482 133.331 84.667C130.483 81.255 126.251 79.292 122.664 76.667C119.579 74.409 116.248 72.472 113.331 70C110.453 67.562 107.466 65.109 105.331 62C102.853 58.392 101.331 56.667 99.998 50" fill="black"/>
<path id="path14624" d="M260 50C258.667 56.667 257.145 58.392 254.667 62C252.532 65.109 249.545 67.562 246.667 70C243.75 72.471 240.419 74.408 237.334 76.667C233.748 79.292 229.515 81.255 226.667 84.667C223.483 88.482 220 93.031 220 98C220 101.975 222.408 105.975 225.333 108.667C228.856 111.908 233.881 114.111 238.666 114C244.035 113.876 249.466 111.06 253.333 107.333C256.195 104.575 258.666 96.666 258.666 96.666V99.333C258.666 100.666 258.533 106.623 257.333 110C255.929 113.951 253.503 117.579 250.666 120.667C247.656 123.94 239.999 128.667 239.999 128.667V130C239.999 130 250.611 127.779 255.999 127.333C258.657 127.113 261.341 127.113 263.999 127.333C269.387 127.779 279.999 130 279.999 130V128.667C279.999 128.667 272.339 123.94 269.332 120.667C266.496 117.579 264.069 113.951 262.665 110C261.465 106.624 261.332 99.333 261.332 99.333V96.666C261.332 96.666 263.803 104.574 266.665 107.333C270.532 111.059 275.963 113.876 281.332 114C286.118 114.11 291.143 111.908 294.665 108.667C297.59 105.975 299.998 101.976 299.998 98C299.998 93.031 296.515 88.482 293.331 84.667C290.483 81.255 286.251 79.292 282.664 76.667C279.579 74.409 276.248 72.472 273.331 70C270.453 67.562 267.466 65.109 265.331 62C262.853 58.392 261.331 56.667 259.998 50" fill="black"/>
<path id="path14626" d="M180 110C178.667 116.667 177.145 118.392 174.667 122C172.532 125.109 169.545 127.562 166.667 130C163.75 132.471 160.419 134.408 157.334 136.667C153.748 139.292 149.515 141.255 146.667 144.667C143.483 148.482 140 153.031 140 158C140 161.975 142.408 165.975 145.333 168.667C148.856 171.908 153.881 174.111 158.666 174C164.035 173.876 169.466 171.06 173.333 167.333C176.195 164.575 178.666 156.666 178.666 156.666V159.333C178.666 160.666 178.533 166.623 177.333 170C175.929 173.951 173.503 177.579 170.666 180.667C167.656 183.94 159.999 188.667 159.999 188.667V190C159.999 190 170.611 187.779 175.999 187.333C178.657 187.113 181.341 187.113 183.999 187.333C189.387 187.779 199.999 190 199.999 190V188.667C199.999 188.667 192.339 183.94 189.332 180.667C186.496 177.579 184.069 173.951 182.665 170C181.465 166.624 181.332 159.333 181.332 159.333V156.666C181.332 156.666 183.803 164.574 186.665 167.333C190.532 171.059 195.963 173.876 201.332 174C206.118 174.11 211.143 171.908 214.665 168.667C217.59 165.975 219.998 161.976 219.998 158C219.998 153.031 216.515 148.482 213.331 144.667C210.483 141.255 206.251 139.292 202.664 136.667C199.579 134.409 196.248 132.472 193.331 130C190.453 127.562 187.466 125.109 185.331 122C182.853 118.392 181.331 116.667 179.998 110" fill="black"/>
<path id="path14628" d="M100 170C98.667 176.667 97.145 178.392 94.667 182C92.532 185.109 89.545 187.562 86.667 190C83.75 192.471 80.419 194.408 77.334 196.667C73.748 199.292 69.515 201.255 66.667 204.667C63.483 208.482 60 213.031 60 218C60 221.975 62.408 225.975 65.333 228.667C68.856 231.908 73.881 234.111 78.666 234C84.035 233.876 89.466 231.06 93.333 227.333C96.195 224.575 98.666 216.666 98.666 216.666V219.333C98.666 220.666 98.533 226.623 97.333 230C95.929 233.951 93.503 237.579 90.666 240.667C87.656 243.94 79.999 248.667 79.999 248.667V250C79.999 250 90.611 247.779 95.999 247.333C98.657 247.113 101.341 247.113 103.999 247.333C109.387 247.779 119.999 250 119.999 250V248.667C119.999 248.667 112.339 243.94 109.332 240.667C106.496 237.579 104.069 233.951 102.665 230C101.465 226.624 101.332 219.333 101.332 219.333V216.666C101.332 216.666 103.803 224.574 106.665 227.333C110.532 231.059 115.963 233.876 121.332 234C126.118 234.11 131.143 231.908 134.665 228.667C137.59 225.975 139.998 221.976 139.998 218C139.998 213.031 136.515 208.482 133.331 204.667C130.483 201.255 126.251 199.292 122.664 196.667C119.579 194.409 116.248 192.472 113.331 190C110.453 187.562 107.466 185.109 105.331 182C102.853 178.392 101.331 176.667 99.998 170" fill="black"/>
<path id="path14630" d="M260 170C258.667 176.667 257.145 178.392 254.667 182C252.532 185.109 249.545 187.562 246.667 190C243.75 192.471 240.419 194.408 237.334 196.667C233.748 199.292 229.515 201.255 226.667 204.667C223.483 208.482 220 213.031 220 218C220 221.975 222.408 225.975 225.333 228.667C228.856 231.908 233.881 234.111 238.666 234C244.035 233.876 249.466 231.06 253.333 227.333C256.195 224.575 258.666 216.666 258.666 216.666V219.333C258.666 220.666 258.533 226.623 257.333 230C255.929 233.951 253.503 237.579 250.666 240.667C247.656 243.94 239.999 248.667 239.999 248.667V250C239.999 250 250.611 247.779 255.999 247.333C258.657 247.113 261.341 247.113 263.999 247.333C269.387 247.779 279.999 250 279.999 250V248.667C279.999 248.667 272.339 243.94 269.332 240.667C266.496 237.579 264.069 233.951 262.665 230C261.465 226.624 261.332 219.333 261.332 219.333V216.666C261.332 216.666 263.803 224.574 266.665 227.333C270.532 231.059 275.963 233.876 281.332 234C286.118 234.11 291.143 231.908 294.665 228.667C297.59 225.975 299.998 221.976 299.998 218C299.998 213.031 296.515 208.482 293.331 204.667C290.483 201.255 286.251 199.292 282.664 196.667C279.579 194.409 276.248 192.472 273.331 190C270.453 187.562 267.466 185.109 265.331 182C262.853 178.392 261.331 176.667 259.998 170" fill="black"/>
<path id="path14632" d="M100 370C98.667 363.333 97.145 361.608 94.667 358C92.532 354.891 89.545 352.438 86.667 350C83.75 347.529 80.419 345.592 77.334 343.333C73.748 340.708 69.515 338.745 66.667 335.333C63.483 331.518 60 326.969 60 322C60 318.025 62.408 314.025 65.333 311.333C68.856 308.092 73.881 305.889 78.666 306C84.035 306.124 89.466 308.94 93.333 312.667C96.195 315.425 98.666 323.334 98.666 323.334V320.667C98.666 319.334 98.533 313.377 97.333 310C95.929 306.049 93.503 302.421 90.666 299.333C87.656 296.06 79.999 291.333 79.999 291.333V290C79.999 290 90.611 292.221 95.999 292.667C98.657 292.887 101.341 292.887 103.999 292.667C109.387 292.221 119.999 290 119.999 290V291.333C119.999 291.333 112.339 296.06 109.332 299.333C106.496 302.421 104.069 306.049 102.665 310C101.465 313.376 101.332 320.667 101.332 320.667V323.334C101.332 323.334 103.803 315.426 106.665 312.667C110.532 308.941 115.963 306.124 121.332 306C126.118 305.89 131.143 308.092 134.665 311.333C137.59 314.025 139.998 318.024 139.998 322C139.998 326.969 136.515 331.518 133.331 335.333C130.483 338.745 126.251 340.708 122.664 343.333C119.579 345.591 116.248 347.528 113.331 350C110.453 352.438 107.466 354.891 105.331 358C102.853 361.608 101.331 363.333 99.998 370" fill="black"/>
<path id="path14634" d="M260 370C258.667 363.333 257.145 361.608 254.667 358C252.532 354.891 249.545 352.438 246.667 350C243.75 347.529 240.419 345.592 237.334 343.333C233.748 340.708 229.515 338.745 226.667 335.333C223.483 331.518 220 326.969 220 322C220 318.025 222.408 314.025 225.333 311.333C228.856 308.092 233.881 305.889 238.666 306C244.035 306.124 249.466 308.94 253.333 312.667C256.195 315.425 258.666 323.334 258.666 323.334V320.667C258.666 319.334 258.533 313.377 257.333 310C255.929 306.049 253.503 302.421 250.666 299.333C247.656 296.06 239.999 291.333 239.999 291.333V290C239.999 290 250.611 292.221 255.999 292.667C258.657 292.887 261.341 292.887 263.999 292.667C269.387 292.221 279.999 290 279.999 290V291.333C279.999 291.333 272.339 296.06 269.332 299.333C266.496 302.421 264.069 306.049 262.665 310C261.465 313.376 261.332 320.667 261.332 320.667V323.334C261.332 323.334 263.803 315.426 266.665 312.667C270.532 308.941 275.963 306.124 281.332 306C286.118 305.89 291.143 308.092 294.665 311.333C297.59 314.025 299.998 318.024 299.998 322C299.998 326.969 296.515 331.518 293.331 335.333C290.483 338.745 286.251 340.708 282.664 343.333C279.579 345.591 276.248 347.528 273.331 350C270.453 352.438 267.466 354.891 265.331 358C262.853 361.608 261.331 363.333 259.998 370" fill="black"/>
<path id="path14636" d="M180 430C178.667 423.333 177.145 421.608 174.667 418C172.532 414.891 169.545 412.438 166.667 410C163.75 407.529 160.419 405.592 157.334 403.333C153.748 400.708 149.515 398.745 146.667 395.333C143.483 391.518 140 386.969 140 382C140 378.025 142.408 374.025 145.333 371.333C148.856 368.092 153.881 365.889 158.666 366C164.035 366.124 169.466 368.94 173.333 372.667C176.195 375.425 178.666 383.334 178.666 383.334V380.667C178.666 379.334 178.533 373.377 177.333 370C175.929 366.049 173.503 362.421 170.666 359.333C167.656 356.06 159.999 351.333 159.999 351.333V350C159.999 350 170.611 352.221 175.999 352.667C178.657 352.887 181.341 352.887 183.999 352.667C189.387 352.221 199.999 350 199.999 350V351.333C199.999 351.333 192.339 356.06 189.332 359.333C186.496 362.421 184.069 366.049 182.665 370C181.465 373.376 181.332 380.667 181.332 380.667V383.334C181.332 383.334 183.803 375.426 186.665 372.667C190.532 368.941 195.963 366.124 201.332 366C206.118 365.89 211.143 368.092 214.665 371.333C217.59 374.025 219.998 378.024 219.998 382C219.998 386.969 216.515 391.518 213.331 395.333C210.483 398.745 206.251 400.708 202.664 403.333C199.579 405.591 196.248 407.528 193.331 410C190.453 412.438 187.466 414.891 185.331 418C182.853 421.608 181.331 423.333 179.998 430" fill="black"/>
<path id="path14638" d="M100 490C98.667 483.333 97.145 481.608 94.667 478C92.532 474.891 89.545 472.438 86.667 470C83.75 467.529 80.419 465.592 77.334 463.333C73.748 460.708 69.515 458.745 66.667 455.333C63.483 451.518 60 446.969 60 442C60 438.025 62.408 434.025 65.333 431.333C68.856 428.092 73.881 425.889 78.666 426C84.035 426.124 89.466 428.94 93.333 432.667C96.195 435.425 98.666 443.334 98.666 443.334V440.667C98.666 439.334 98.533 433.377 97.333 430C95.929 426.049 93.503 422.421 90.666 419.333C87.656 416.06 79.999 411.333 79.999 411.333V410C79.999 410 90.611 412.221 95.999 412.667C98.657 412.887 101.341 412.887 103.999 412.667C109.387 412.221 119.999 410 119.999 410V411.333C119.999 411.333 112.339 416.06 109.332 419.333C106.496 422.421 104.069 426.049 102.665 430C101.465 433.376 101.332 440.667 101.332 440.667V443.334C101.332 443.334 103.803 435.426 106.665 432.667C110.532 428.941 115.963 426.124 121.332 426C126.118 425.89 131.143 428.092 134.665 431.333C137.59 434.025 139.998 438.024 139.998 442C139.998 446.969 136.515 451.518 133.331 455.333C130.483 458.745 126.251 460.708 122.664 463.333C119.579 465.591 116.248 467.528 113.331 470C110.453 472.438 107.466 474.891 105.331 478C102.853 481.608 101.331 483.333 99.998 490" fill="black"/>
<path id="path14640" d="M260 490C258.667 483.333 257.145 481.608 254.667 478C252.532 474.891 249.545 472.438 246.667 470C243.75 467.529 240.419 465.592 237.334 463.333C233.748 460.708 229.515 458.745 226.667 455.333C223.483 451.518 220 446.969 220 442C220 438.025 222.408 434.025 225.333 431.333C228.856 428.092 233.881 425.889 238.666 426C244.035 426.124 249.466 428.94 253.333 432.667C256.195 435.425 258.666 443.334 258.666 443.334V440.667C258.666 439.334 258.533 433.377 257.333 430C255.929 426.049 253.503 422.421 250.666 419.333C247.656 416.06 239.999 411.333 239.999 411.333V410C239.999 410 250.611 412.221 255.999 412.667C258.657 412.887 261.341 412.887 263.999 412.667C269.387 412.221 279.999 410 279.999 410V411.333C279.999 411.333 272.339 416.06 269.332 419.333C266.496 422.421 264.069 426.049 262.665 430C261.465 433.376 261.332 440.667 261.332 440.667V443.334C261.332 443.334 263.803 435.426 266.665 432.667C270.532 428.941 275.963 426.124 281.332 426C286.118 425.89 291.143 428.092 294.665 431.333C297.59 434.025 299.998 438.024 299.998 442C299.998 446.969 296.515 451.518 293.331 455.333C290.483 458.745 286.251 460.708 282.664 463.333C279.579 465.591 276.248 467.528 273.331 470C270.453 472.438 267.466 474.891 265.331 478C262.853 481.608 261.331 483.333 259.998 490" fill="black"/>
<path id="path14642" d="M30 90C29.5 92.5 28.929 93.147 28 94.5C27.199 95.666 26.079 96.586 25 97.5C23.906 98.427 22.657 99.153 21.5 100C20.155 100.984 18.568 101.72 17.5 103C16.306 104.431 15 106.137 15 108C15 109.491 15.903 110.991 17 112C18.321 113.215 20.205 114.041 22 114C24.01 113.953 26.05 112.897 27.5 111.5C28.573 110.466 29.5 107.5 29.5 107.5V108.5C29.5 109 29.45 111.234 29 112.5C28.473 113.982 27.564 115.342 26.5 116.5C25.373 117.727 22.5 119.5 22.5 119.5V120C22.5 120 26.479 119.167 28.5 119C29.497 118.918 30.5 118.918 31.5 119C33.52 119.167 37.5 120 37.5 120V119.5C37.5 119.5 34.627 117.727 33.5 116.5C32.436 115.342 31.527 113.982 31 112.5C30.55 111.234 30.5 108.5 30.5 108.5V107.5C30.5 107.5 31.427 110.466 32.5 111.5C33.95 112.897 35.987 113.954 38 114C39.795 114.041 41.679 113.215 43 112C44.097 110.99 45 109.491 45 108C45 106.137 43.694 104.431 42.5 103C41.432 101.72 39.845 100.98 38.5 100C37.343 99.153 36.094 98.427 35 97.5C33.921 96.586 32.801 95.666 32 94.5C31.071 93.147 30.5 92.5 30 90Z" fill="black"/>
<path id="path14644" d="M330 450C329.5 447.5 328.929 446.853 328 445.5C327.199 444.334 326.079 443.414 325 442.5C323.906 441.573 322.657 440.847 321.5 440C320.155 439.016 318.568 438.28 317.5 437C316.306 435.569 315 433.863 315 432C315 430.509 315.903 429.009 317 428C318.321 426.785 320.205 425.959 322 426C324.01 426.047 326.05 427.103 327.5 428.5C328.573 429.534 329.5 432.5 329.5 432.5V431.5C329.5 431 329.45 428.766 329 427.5C328.473 426.018 327.564 424.658 326.5 423.5C325.373 422.273 322.5 420.5 322.5 420.5V420C322.5 420 326.479 420.833 328.5 421C329.497 421.082 330.5 421.082 331.5 421C333.52 420.833 337.5 420 337.5 420V420.5C337.5 420.5 334.627 422.273 333.5 423.5C332.436 424.658 331.527 426.018 331 427.5C330.55 428.766 330.5 431.5 330.5 431.5V432.5C330.5 432.5 331.427 429.534 332.5 428.5C333.95 427.103 335.987 426.046 338 426C339.795 425.959 341.679 426.785 343 428C344.097 429.01 345 430.509 345 432C345 433.863 343.694 435.569 342.5 437C341.432 438.28 339.845 439.02 338.5 440C337.343 440.847 336.094 441.573 335 442.5C333.921 443.414 332.801 444.334 332 445.5C331.071 446.853 330.5 447.5 330 450Z" fill="black"/>
</g>
</svg>
