<svg width="360" height="540" viewBox="0 0 360 540" fill="none" xmlns="http://www.w3.org/2000/svg">
<g id="2C">
<path id="rect70" d="M329.556 0.5H30.444C13.9064 0.5 0.5 13.9064 0.5 30.444V509.556C0.5 526.094 13.9064 539.5 30.444 539.5H329.556C346.094 539.5 359.5 526.094 359.5 509.556V30.444C359.5 13.9064 346.094 0.5 329.556 0.5Z" fill="white" stroke="black"/>
<path id="path72" d="M180 50.01C176.001 49.928 173.333 51.343 170.667 54.01C168 56.677 166.667 59.343 166.667 63.343C166.667 67.343 168.185 69.715 170.667 72.676C173.042 75.509 174.667 76.6761 176 79.3421C177.333 82.0091 178.667 87.342 178.667 90.008C178.667 92.675 178.667 92.406 178.667 94.008H176C173.333 94.008 168 91.341 166.667 90.008L162.667 86.008C160 83.341 157.334 82.008 153.334 82.008C149.334 82.008 146.667 83.341 144.001 86.008C141.334 88.675 140.001 91.341 140.001 95.341C140.001 99.341 141.334 102.007 144.001 104.674C146.668 107.341 149.334 108.674 153.334 108.674C157.334 108.674 160.001 107.341 162.667 104.674L166.667 100.674C168 99.341 173.334 96.674 176 96.674H178.667C178.601 100.45 178.321 107.044 177.334 110.007C176.001 114.007 173.334 118.007 170.667 120.673C168 123.34 160 128.673 160 128.673V130.006C160 130.006 173.333 127.339 176 127.339H184C186.667 127.339 200 130.006 200 130.006V128.673C200 128.673 192 123.34 189.333 120.673C186.666 118.006 184 114.007 182.666 110.007C181.678 107.044 181.399 100.45 181.333 96.674H184C186.667 96.674 192 99.341 193.333 100.674L197.333 104.674C200 107.341 202.666 108.674 206.666 108.674C210.666 108.674 213.333 107.341 215.999 104.674C218.666 102.007 219.999 99.341 219.999 95.341C219.999 91.341 218.666 88.675 215.999 86.008C213.332 83.341 210.666 82.008 206.666 82.008C202.666 82.008 199.999 83.341 197.333 86.008L193.333 90.008C192 91.341 186.666 94.008 184 94.008H181.333C181.333 92.153 181.333 92.675 181.333 90.008C181.333 87.341 182.666 82.0081 184 79.3421C185.333 76.6751 186.667 75.342 189.333 72.676C191.986 70.023 193.333 67.343 193.333 63.343C193.333 59.343 192 56.677 189.333 54.01C186.666 51.343 184 50.01 180 50.01Z" fill="black"/>
<path id="path74" d="M180 490C183.999 490.081 186.667 488.667 189.333 486C192 483.333 193.333 480.667 193.333 476.667C193.333 472.667 191.815 470.295 189.333 467.334C186.958 464.501 185.333 463.334 184 460.668C182.667 458.001 181.333 452.668 181.333 450.002C181.333 447.335 181.333 447.604 181.333 446.002H184C186.667 446.002 192 448.669 193.333 450.002L197.333 454.002C200 456.669 202.666 458.002 206.666 458.002C210.666 458.002 213.333 456.669 215.999 454.002C218.666 451.335 219.999 448.669 219.999 444.669C219.999 440.669 218.666 438.003 215.999 435.336C213.332 432.669 210.666 431.336 206.666 431.336C202.666 431.336 199.999 432.669 197.333 435.336L193.333 439.336C192 440.669 186.666 443.336 184 443.336H181.333C181.399 439.56 181.679 432.966 182.666 430.003C183.999 426.003 186.666 422.003 189.333 419.337C192 416.67 200 411.337 200 411.337V410.004C200 410.004 186.667 412.671 184 412.671H176C173.333 412.671 160 410.004 160 410.004V411.337C160 411.337 168 416.67 170.667 419.337C173.334 422.004 176 426.003 177.334 430.003C178.322 432.966 178.601 439.56 178.667 443.336H176C173.333 443.336 168 440.669 166.667 439.336L162.667 435.336C160 432.669 157.334 431.336 153.334 431.336C149.334 431.336 146.667 432.669 144.001 435.336C141.334 438.003 140.001 440.669 140.001 444.669C140.001 448.669 141.334 451.335 144.001 454.002C146.668 456.669 149.334 458.002 153.334 458.002C157.334 458.002 160.001 456.669 162.667 454.002L166.667 450.002C168 448.669 173.334 446.002 176 446.002H178.667C178.667 447.857 178.667 447.335 178.667 450.002C178.667 452.669 177.334 458.002 176 460.668C174.667 463.335 173.333 464.668 170.667 467.334C168.014 469.987 166.667 472.667 166.667 476.667C166.667 480.667 168 483.333 170.667 486C173.334 488.667 176 490 180 490Z" fill="black"/>
<path id="path76" d="M30 90C28.5 89.969 27.5 90.5 26.5 91.5C25.5 92.5 25 93.5 25 95C25 96.5 25.569 97.39 26.5 98.5C27.391 99.563 28 100 28.5 101C29 102 29.5 104 29.5 105C29.5 106 29.5 105.899 29.5 106.5H28.5C27.5 106.5 25.5 105.5 25 105L23.5 103.5C22.5 102.5 21.5 102 20 102C18.5 102 17.5 102.5 16.5 103.5C15.5 104.5 15 105.5 15 107C15 108.5 15.5 109.5 16.5 110.5C17.5 111.5 18.5 112 20 112C21.5 112 22.5 111.5 23.5 110.5L25 109C25.5 108.5 27.5 107.5 28.5 107.5H29.5C29.475 108.916 29.37 111.389 29 112.5C28.5 114 27.5 115.5 26.5 116.5C25.5 117.5 22.5 119.5 22.5 119.5V120C22.5 120 27.5 119 28.5 119H31.5C32.5 119 37.5 120 37.5 120V119.5C37.5 119.5 34.5 117.5 33.5 116.5C32.5 115.5 31.5 114 31 112.5C30.63 111.389 30.525 108.916 30.5 107.5H31.5C32.5 107.5 34.5 108.5 35 109L36.5 110.5C37.5 111.5 38.5 112 40 112C41.5 112 42.5 111.5 43.5 110.5C44.5 109.5 45 108.5 45 107C45 105.5 44.5 104.5 43.5 103.5C42.5 102.5 41.5 102 40 102C38.5 102 37.5 102.5 36.5 103.5L35 105C34.5 105.5 32.5 106.5 31.5 106.5H30.5C30.5 105.804 30.5 106 30.5 105C30.5 104 31 102 31.5 101C32 100 32.5 99.5 33.5 98.5C34.495 97.505 35 96.5 35 95C35 93.5 34.5 92.5 33.5 91.5C32.5 90.5 31.5 90 30 90Z" fill="black"/>
<path id="path78" d="M330 450C331.5 450.031 332.5 449.5 333.5 448.5C334.5 447.5 335 446.5 335 445C335 443.5 334.431 442.61 333.5 441.5C332.609 440.437 332 440 331.5 439C331 438 330.5 436 330.5 435C330.5 434 330.5 434.101 330.5 433.5H331.5C332.5 433.5 334.5 434.5 335 435L336.5 436.5C337.5 437.5 338.5 438 340 438C341.5 438 342.5 437.5 343.5 436.5C344.5 435.5 345 434.5 345 433C345 431.5 344.5 430.5 343.5 429.5C342.5 428.5 341.5 428 340 428C338.5 428 337.5 428.5 336.5 429.5L335 431C334.5 431.5 332.5 432.5 331.5 432.5H330.5C330.525 431.084 330.63 428.611 331 427.5C331.5 426 332.5 424.5 333.5 423.5C334.5 422.5 337.5 420.5 337.5 420.5V420C337.5 420 332.5 421 331.5 421H328.5C327.5 421 322.5 420 322.5 420V420.5C322.5 420.5 325.5 422.5 326.5 423.5C327.5 424.5 328.5 426 329 427.5C329.37 428.611 329.475 431.084 329.5 432.5H328.5C327.5 432.5 325.5 431.5 325 431L323.5 429.5C322.5 428.5 321.5 428 320 428C318.5 428 317.5 428.5 316.5 429.5C315.5 430.5 315 431.5 315 433C315 434.5 315.5 435.5 316.5 436.5C317.5 437.5 318.5 438 320 438C321.5 438 322.5 437.5 323.5 436.5L325 435C325.5 434.5 327.5 433.5 328.5 433.5H329.5C329.5 434.196 329.5 434 329.5 435C329.5 436 329 438 328.5 439C328 440 327.5 440.5 326.5 441.5C325.505 442.495 325 443.5 325 445C325 446.5 325.5 447.5 326.5 448.5C327.5 449.5 328.5 450 330 450Z" fill="black"/>
<path id="path80" d="M30 30C24.46 30 20 34.46 20 40V45H25V40C25 37.23 27.23 35 30 35C32.77 35 35 37.23 35 40V45C35 46.128 34.625 48.065 34 48.9C29.537 58.004 24.722 66.03 20 75V80H30H40V75V70H35V75H30H25.5C29.989 67.085 33.718 59.428 38 51.4C39.25 49.731 40 47.255 40 45V40C40 34.46 35.54 30 30 30Z" fill="black"/>
<path id="path82" d="M330 510C335.54 510 340 505.54 340 500V495H335V500C335 502.77 332.77 505 330 505C327.23 505 325 502.77 325 500V495C325 493.872 325.375 491.935 326 491.1C330.463 481.996 335.278 473.97 340 465V460H330H320V465V470H325V465H330H334.5C330.011 472.915 326.282 480.572 322 488.6C320.75 490.269 320 492.745 320 495V500C320 505.54 324.46 510 330 510Z" fill="black"/>
</g>
</svg>
