<svg width="360" height="540" viewBox="0 0 360 540" fill="none" xmlns="http://www.w3.org/2000/svg">
<g id="2H">
<path id="rect104" d="M329.556 0.5H30.444C13.9064 0.5 0.5 13.9064 0.5 30.444V509.556C0.5 526.094 13.9064 539.5 30.444 539.5H329.556C346.094 539.5 359.5 526.094 359.5 509.556V30.444C359.5 13.9064 346.094 0.5 329.556 0.5Z" fill="white" stroke="black"/>
<g id="g106">
<path id="path108" d="M30 97.5C30 97.5 30.682 93.318 32 92C33.318 90.682 35.637 90 37.5 90C39.363 90 41.682 90.682 43 92C44.318 93.318 45 95.637 45 97.5C45 99.363 44 102 43 103C42 104 41 104.5 40 105.5C39 106.5 38.5 106.5 37.5 107.5C36.5 108.5 36 109 35 110C34 111 32.5 113 31.5 115C30.5 117 30 120 30 120C30 120 29.5 117 28.5 115C27.5 113 26 111 25 110C24 109 23.5 108.5 22.5 107.5C21.5 106.5 21 106.5 20 105.5C19 104.5 18 104 17 103C16 102 15 99.363 15 97.5C15 95.637 15.682 93.318 17 92C18.318 90.682 20.637 90 22.5 90C24.363 90 26.682 90.682 28 92C29.318 93.318 30 97.5 30 97.5Z" fill="#FF5555"/>
<path id="path110" d="M330 442.5C330 442.5 330.682 446.682 332 448C333.318 449.318 335.637 450 337.5 450C339.363 450 341.682 449.318 343 448C344.318 446.682 345 444.363 345 442.5C345 440.637 344 438 343 437C342 436 341 435.5 340 434.5C339 433.5 338.5 433.5 337.5 432.5C336.5 431.5 336 431 335 430C334 429 332.5 427 331.5 425C330.5 423 330 420 330 420C330 420 329.5 423 328.5 425C327.5 427 326 429 325 430C324 431 323.5 431.5 322.5 432.5C321.5 433.5 321 433.5 320 434.5C319 435.5 318 436 317 437C316 438 315 440.637 315 442.5C315 444.363 315.682 446.682 317 448C318.318 449.318 320.637 450 322.5 450C324.363 450 326.682 449.318 328 448C329.318 446.682 330 442.5 330 442.5Z" fill="#FF5555"/>
<path id="path112" d="M180 70C180 70 181.82 58.847 185.333 55.333C188.847 51.819 195.031 50 200 50C204.969 50 211.153 51.82 214.667 55.333C218.181 58.847 220 65.031 220 70C220 74.969 217.333 82 214.667 84.667C212 87.334 209.334 88.667 206.667 91.334C204 94.001 202.667 94.001 200 96.667C197.333 99.334 196 100.667 193.333 103.334C190.666 106.001 186.666 111.334 184 116.667C181.333 122 180 130 180 130C180 130 178.667 122 176 116.667C173.333 111.334 169.333 106 166.667 103.334C164 100.667 162.667 99.334 160 96.667C157.333 94 156 94 153.333 91.334C150.666 88.667 148 87.334 145.333 84.667C142.666 82 140 74.969 140 70C140 65.031 141.82 58.847 145.333 55.333C148.847 51.819 155.031 50 160 50C164.969 50 171.153 51.82 174.667 55.333C178.181 58.847 180 70 180 70Z" fill="#FF5555"/>
<path id="path114" d="M180 470C180 470 181.82 481.153 185.333 484.667C188.847 488.181 195.031 490 200 490C204.969 490 211.153 488.18 214.667 484.667C218.181 481.153 220 474.969 220 470C220 465.031 217.333 458 214.667 455.333C212 452.666 209.334 451.333 206.667 448.666C204 445.999 202.667 445.999 200 443.333C197.333 440.666 196 439.333 193.333 436.666C190.666 433.999 186.666 428.666 184 423.333C181.333 418 180 410 180 410C180 410 178.667 418 176 423.333C173.333 428.666 169.333 434 166.667 436.666C164 439.333 162.667 440.666 160 443.333C157.333 446 156 446 153.333 448.666C150.666 451.333 148 452.666 145.333 455.333C142.666 458 140 465.031 140 470C140 474.969 141.82 481.153 145.333 484.667C148.847 488.181 155.031 490 160 490C164.969 490 171.153 488.18 174.667 484.667C178.181 481.153 180 470 180 470Z" fill="#FF5555"/>
<path id="path116" d="M30 30C24.46 30 20 34.46 20 40V45H25V40C25 37.23 27.23 35 30 35C32.77 35 35 37.23 35 40V45C35 46.128 34.625 48.065 34 48.9C29.537 58.004 24.722 66.03 20 75V80H30H40V75V70H35V75H30H25.5C29.989 67.085 33.718 59.428 38 51.4C39.25 49.731 40 47.255 40 45V40C40 34.46 35.54 30 30 30Z" fill="#FF5555"/>
<path id="path118" d="M330 510C335.54 510 340 505.54 340 500V495H335V500C335 502.77 332.77 505 330 505C327.23 505 325 502.77 325 500V495C325 493.872 325.375 491.935 326 491.1C330.463 481.996 335.278 473.97 340 465V460H330H320V465V470H325V465H330H334.5C330.011 472.915 326.282 480.572 322 488.6C320.75 490.269 320 492.745 320 495V500C320 505.54 324.46 510 330 510Z" fill="#FF5555"/>
</g>
</g>
</svg>
