<svg width="360" height="540" viewBox="0 0 360 540" fill="none" xmlns="http://www.w3.org/2000/svg">
<g id="3D">
<path id="rect122" d="M329.556 0.5H30.444C13.9064 0.5 0.5 13.9064 0.5 30.444V509.556C0.5 526.094 13.9064 539.5 30.444 539.5H329.556C346.094 539.5 359.5 526.094 359.5 509.556V30.444C359.5 13.9064 346.094 0.5 329.556 0.5Z" fill="white" stroke="black"/>
<g id="g124">
<path id="path126" d="M180 50C180 50 188 63.333 197.333 72.667C206.666 82 220 90 220 90C220 90 206.667 98 197.333 107.333C188 116.666 180 130 180 130C180 130 172 116.667 162.667 107.333C153.334 98 140 90 140 90C140 90 153.333 82 162.667 72.667C172 63.334 180 50 180 50Z" fill="#FF5555"/>
<path id="path128" d="M180 230C180 230 188 243.333 197.333 252.667C206.666 262 220 270 220 270C220 270 206.667 278 197.333 287.333C188 296.666 180 310 180 310C180 310 172 296.667 162.667 287.333C153.334 278 140 270 140 270C140 270 153.333 262 162.667 252.667C172 243.334 180 230 180 230Z" fill="#FF5555"/>
<path id="path130" d="M180 410C180 410 188 423.333 197.333 432.667C206.666 442 220 450 220 450C220 450 206.667 458 197.333 467.333C188 476.666 180 490 180 490C180 490 172 476.667 162.667 467.333C153.334 458 140 450 140 450C140 450 153.333 442 162.667 432.667C172 423.334 180 410 180 410Z" fill="#FF5555"/>
<path id="path132" d="M330 420C330 420 333 425 336.5 428.5C340 432 345 435 345 435C345 435 340 438 336.5 441.5C333 445 330 450 330 450C330 450 327 445 323.5 441.5C320 438 315 435 315 435C315 435 320 432 323.5 428.5C327 425 330 420 330 420Z" fill="#FF5555"/>
<path id="path134" d="M30 90C30 90 33 95 36.5 98.5C40 102 45 105 45 105C45 105 40 108 36.5 111.5C33 115 30 120 30 120C30 120 27 115 23.5 111.5C20 108 15 105 15 105C15 105 20 102 23.5 98.5C27 95 30 90 30 90Z" fill="#FF5555"/>
<path id="path136" d="M30 30C24.46 30 20 34.46 20 40V45H25V40C25 37.23 27.23 35 30 35C32.77 35 35 37.23 35 40V45C35 47.77 32.77 50 30 50H25V55H30C32.77 55 35 57.23 35 60V70C35 72.77 32.77 75 30 75C27.23 75 25 72.77 25 70V65H20V70C20 75.54 24.46 80 30 80C35.54 80 40 75.54 40 70V60C40 57 38.677 54.33 36.594 52.5C38.677 50.67 40 48.004 40 45V40C40 34.46 35.54 30 30 30Z" fill="#FF5555"/>
<path id="path138" d="M330 510C335.54 510 340 505.54 340 500V495H335V500C335 502.77 332.77 505 330 505C327.23 505 325 502.77 325 500V495C325 492.23 327.23 490 330 490H335V485H330C327.23 485 325 482.77 325 480V470C325 467.23 327.23 465 330 465C332.77 465 335 467.23 335 470V475H340V470C340 464.46 335.54 460 330 460C324.46 460 320 464.46 320 470V480C320 483 321.323 485.67 323.406 487.5C321.323 489.33 320 491.996 320 495V500C320 505.54 324.46 510 330 510Z" fill="#FF5555"/>
</g>
</g>
</svg>
