<svg width="360" height="540" viewBox="0 0 360 540" fill="none" xmlns="http://www.w3.org/2000/svg">
<g id="3S">
<path id="rect14478" d="M329.556 0.5H30.444C13.9064 0.5 0.5 13.9064 0.5 30.444V509.556C0.5 526.094 13.9064 539.5 30.444 539.5H329.556C346.094 539.5 359.5 526.094 359.5 509.556V30.444C359.5 13.9064 346.094 0.5 329.556 0.5Z" fill="white" stroke="black"/>
<path id="path14480" d="M30 30C24.46 30 20 34.46 20 40V45H25V40C25 37.23 27.23 35 30 35C32.77 35 35 37.23 35 40V45C35 47.77 32.77 50 30 50H25V55H30C32.77 55 35 57.23 35 60V70C35 72.77 32.77 75 30 75C27.23 75 25 72.77 25 70V65H20V70C20 75.54 24.46 80 30 80C35.54 80 40 75.54 40 70V60C40 57 38.677 54.33 36.594 52.5C38.677 50.67 40 48.004 40 45V40C40 34.46 35.54 30 30 30Z" fill="black"/>
<path id="path14482" d="M330 510C335.54 510 340 505.54 340 500V495H335V500C335 502.77 332.77 505 330 505C327.23 505 325 502.77 325 500V495C325 492.23 327.23 490 330 490H335V485H330C327.23 485 325 482.77 325 480V470C325 467.23 327.23 465 330 465C332.77 465 335 467.23 335 470V475H340V470C340 464.46 335.54 460 330 460C324.46 460 320 464.46 320 470V480C320 483 321.323 485.67 323.406 487.5C321.323 489.33 320 491.996 320 495V500C320 505.54 324.46 510 330 510Z" fill="black"/>
<path id="path14484" d="M180 50C178.667 56.667 177.145 58.392 174.667 62C172.532 65.109 169.545 67.562 166.667 70C163.75 72.471 160.419 74.408 157.334 76.667C153.748 79.292 149.515 81.255 146.667 84.667C143.483 88.482 140 93.031 140 98C140 101.975 142.408 105.975 145.333 108.667C148.856 111.908 153.881 114.111 158.666 114C164.035 113.876 169.466 111.06 173.333 107.333C176.195 104.575 178.666 96.666 178.666 96.666V99.333C178.666 100.666 178.533 106.623 177.333 110C175.929 113.951 173.503 117.579 170.666 120.667C167.656 123.94 159.999 128.667 159.999 128.667V130C159.999 130 170.611 127.779 175.999 127.333C178.657 127.113 181.341 127.113 183.999 127.333C189.387 127.779 199.999 130 199.999 130V128.667C199.999 128.667 192.339 123.94 189.332 120.667C186.496 117.579 184.069 113.951 182.665 110C181.465 106.624 181.332 99.333 181.332 99.333V96.666C181.332 96.666 183.803 104.574 186.665 107.333C190.532 111.059 195.963 113.876 201.332 114C206.118 114.11 211.143 111.908 214.665 108.667C217.59 105.975 219.998 101.976 219.998 98C219.998 93.031 216.515 88.482 213.331 84.667C210.483 81.255 206.251 79.292 202.664 76.667C199.579 74.409 196.248 72.472 193.331 70C190.453 67.562 187.466 65.109 185.331 62C182.853 58.392 181.331 56.667 179.998 50" fill="black"/>
<path id="path14486" d="M180 230C178.667 236.667 177.145 238.392 174.667 242C172.532 245.109 169.545 247.562 166.667 250C163.75 252.471 160.419 254.408 157.334 256.667C153.748 259.292 149.515 261.255 146.667 264.667C143.483 268.482 140 273.031 140 278C140 281.975 142.408 285.975 145.333 288.667C148.856 291.908 153.881 294.111 158.666 294C164.035 293.876 169.466 291.06 173.333 287.333C176.195 284.575 178.666 276.666 178.666 276.666V279.333C178.666 280.666 178.533 286.623 177.333 290C175.929 293.951 173.503 297.579 170.666 300.667C167.656 303.94 159.999 308.667 159.999 308.667V310C159.999 310 170.611 307.779 175.999 307.333C178.657 307.113 181.341 307.113 183.999 307.333C189.387 307.779 199.999 310 199.999 310V308.667C199.999 308.667 192.339 303.94 189.332 300.667C186.496 297.579 184.069 293.951 182.665 290C181.465 286.624 181.332 279.333 181.332 279.333V276.666C181.332 276.666 183.803 284.574 186.665 287.333C190.532 291.059 195.963 293.876 201.332 294C206.118 294.11 211.143 291.908 214.665 288.667C217.59 285.975 219.998 281.976 219.998 278C219.998 273.031 216.515 268.482 213.331 264.667C210.483 261.255 206.251 259.292 202.664 256.667C199.579 254.409 196.248 252.472 193.331 250C190.453 247.562 187.466 245.109 185.331 242C182.853 238.392 181.331 236.667 179.998 230" fill="black"/>
<path id="path14488" d="M180 490C178.667 483.333 177.145 481.608 174.667 478C172.532 474.891 169.545 472.438 166.667 470C163.75 467.529 160.419 465.592 157.334 463.333C153.748 460.708 149.515 458.745 146.667 455.333C143.483 451.518 140 446.969 140 442C140 438.025 142.408 434.025 145.333 431.333C148.856 428.092 153.881 425.889 158.666 426C164.035 426.124 169.466 428.94 173.333 432.667C176.195 435.425 178.666 443.334 178.666 443.334V440.667C178.666 439.334 178.533 433.377 177.333 430C175.929 426.049 173.503 422.421 170.666 419.333C167.656 416.06 159.999 411.333 159.999 411.333V410C159.999 410 170.611 412.221 175.999 412.667C178.657 412.887 181.341 412.887 183.999 412.667C189.387 412.221 199.999 410 199.999 410V411.333C199.999 411.333 192.339 416.06 189.332 419.333C186.496 422.421 184.069 426.049 182.665 430C181.465 433.376 181.332 440.667 181.332 440.667V443.334C181.332 443.334 183.803 435.426 186.665 432.667C190.532 428.941 195.963 426.124 201.332 426C206.118 425.89 211.143 428.092 214.665 431.333C217.59 434.025 219.998 438.024 219.998 442C219.998 446.969 216.515 451.518 213.331 455.333C210.483 458.745 206.251 460.708 202.664 463.333C199.579 465.591 196.248 467.528 193.331 470C190.453 472.438 187.466 474.891 185.331 478C182.853 481.608 181.331 483.333 179.998 490" fill="black"/>
<path id="path14490" d="M30 90C29.5 92.5 28.929 93.147 28 94.5C27.199 95.666 26.079 96.586 25 97.5C23.906 98.427 22.657 99.153 21.5 100C20.155 100.984 18.568 101.72 17.5 103C16.306 104.431 15 106.137 15 108C15 109.491 15.903 110.991 17 112C18.321 113.215 20.205 114.041 22 114C24.01 113.954 26.05 112.897 27.5 111.5C28.573 110.466 29.5 107.5 29.5 107.5V108.5C29.5 109 29.45 111.234 29 112.5C28.473 113.982 27.564 115.342 26.5 116.5C25.373 117.727 22.5 119.5 22.5 119.5V120C22.5 120 26.479 119.167 28.5 119C29.497 118.918 30.5 118.918 31.5 119C33.52 119.167 37.5 120 37.5 120V119.5C37.5 119.5 34.627 117.727 33.5 116.5C32.436 115.342 31.527 113.982 31 112.5C30.55 111.234 30.5 108.5 30.5 108.5V107.5C30.5 107.5 31.427 110.466 32.5 111.5C33.95 112.897 35.987 113.954 38 114C39.795 114.041 41.679 113.215 43 112C44.097 110.99 45 109.491 45 108C45 106.137 43.694 104.431 42.5 103C41.432 101.72 39.845 100.98 38.5 100C37.343 99.153 36.094 98.427 35 97.5C33.921 96.586 32.801 95.666 32 94.5C31.071 93.147 30.5 92.5 30 90Z" fill="black"/>
<path id="path14492" d="M330 450C329.5 447.5 328.929 446.853 328 445.5C327.199 444.334 326.079 443.414 325 442.5C323.906 441.573 322.657 440.847 321.5 440C320.155 439.016 318.568 438.28 317.5 437C316.306 435.569 315 433.863 315 432C315 430.509 315.903 429.009 317 428C318.321 426.785 320.205 425.959 322 426C324.01 426.046 326.05 427.103 327.5 428.5C328.573 429.534 329.5 432.5 329.5 432.5V431.5C329.5 431 329.45 428.766 329 427.5C328.473 426.018 327.564 424.658 326.5 423.5C325.373 422.273 322.5 420.5 322.5 420.5V420C322.5 420 326.479 420.833 328.5 421C329.497 421.082 330.5 421.082 331.5 421C333.52 420.833 337.5 420 337.5 420V420.5C337.5 420.5 334.627 422.273 333.5 423.5C332.436 424.658 331.527 426.018 331 427.5C330.55 428.766 330.5 431.5 330.5 431.5V432.5C330.5 432.5 331.427 429.534 332.5 428.5C333.95 427.103 335.987 426.046 338 426C339.795 425.959 341.679 426.785 343 428C344.097 429.01 345 430.509 345 432C345 433.863 343.694 435.569 342.5 437C341.432 438.28 339.845 439.02 338.5 440C337.343 440.847 336.094 441.573 335 442.5C333.921 443.414 332.801 444.334 332 445.5C331.071 446.853 330.5 447.5 330 450Z" fill="black"/>
</g>
</svg>
