<svg width="360" height="540" viewBox="0 0 360 540" fill="none" xmlns="http://www.w3.org/2000/svg">
<g id="4C">
<path id="rect162" d="M329.556 0.5H30.444C13.9064 0.5 0.5 13.9064 0.5 30.444V509.556C0.5 526.094 13.9064 539.5 30.444 539.5H329.556C346.094 539.5 359.5 526.094 359.5 509.556V30.444C359.5 13.9064 346.094 0.5 329.556 0.5Z" fill="white" stroke="black"/>
<path id="path164" d="M30 30L20 65V70H32V80H37V70H40V65H37V50H32V65H25.2L35.2 30H30Z" fill="black"/>
<path id="path166" d="M330 510L340 475V470H328V460H323V470H320V475H323V490H328V475H334.8L324.8 510H330Z" fill="black"/>
<path id="path168" d="M100 50.01C96.001 49.928 93.333 51.343 90.667 54.01C88 56.677 86.667 59.343 86.667 63.343C86.667 67.343 88.185 69.715 90.667 72.676C93.042 75.509 94.667 76.6761 96 79.3421C97.333 82.0091 98.667 87.342 98.667 90.008C98.667 92.675 98.667 92.406 98.667 94.008H96C93.333 94.008 88 91.341 86.667 90.008L82.667 86.008C80 83.341 77.334 82.008 73.334 82.008C69.334 82.008 66.667 83.341 64.001 86.008C61.334 88.675 60.001 91.341 60.001 95.341C60.001 99.341 61.334 102.007 64.001 104.674C66.668 107.341 69.334 108.674 73.334 108.674C77.334 108.674 80.001 107.341 82.667 104.674L86.667 100.674C88 99.341 93.334 96.674 96 96.674H98.667C98.601 100.45 98.321 107.044 97.334 110.007C96.001 114.007 93.334 118.007 90.667 120.673C88 123.34 80 128.673 80 128.673V130.006C80 130.006 93.333 127.339 96 127.339H104C106.667 127.339 120 130.006 120 130.006V128.673C120 128.673 112 123.34 109.333 120.673C106.666 118.006 104 114.007 102.666 110.007C101.678 107.044 101.399 100.45 101.333 96.674H104C106.667 96.674 112 99.341 113.333 100.674L117.333 104.674C120 107.341 122.666 108.674 126.666 108.674C130.666 108.674 133.333 107.341 135.999 104.674C138.666 102.007 139.999 99.341 139.999 95.341C139.999 91.341 138.666 88.675 135.999 86.008C133.332 83.341 130.666 82.008 126.666 82.008C122.666 82.008 119.999 83.341 117.333 86.008L113.333 90.008C112 91.341 106.666 94.008 104 94.008H101.333C101.333 92.153 101.333 92.675 101.333 90.008C101.333 87.341 102.666 82.0081 104 79.3421C105.333 76.6751 106.667 75.342 109.333 72.676C111.986 70.023 113.333 67.343 113.333 63.343C113.333 59.343 112 56.677 109.333 54.01C106.666 51.343 104 50.01 100 50.01Z" fill="black"/>
<path id="path170" d="M260 50.01C256.001 49.928 253.333 51.343 250.667 54.01C248 56.677 246.667 59.343 246.667 63.343C246.667 67.343 248.185 69.715 250.667 72.676C253.042 75.509 254.667 76.6761 256 79.3421C257.333 82.0091 258.667 87.342 258.667 90.008C258.667 92.675 258.667 92.406 258.667 94.008H256C253.333 94.008 248 91.341 246.667 90.008L242.667 86.008C240 83.341 237.334 82.008 233.334 82.008C229.334 82.008 226.667 83.341 224.001 86.008C221.334 88.675 220.001 91.341 220.001 95.341C220.001 99.341 221.334 102.007 224.001 104.674C226.668 107.341 229.334 108.674 233.334 108.674C237.334 108.674 240.001 107.341 242.667 104.674L246.667 100.674C248 99.341 253.334 96.674 256 96.674H258.667C258.601 100.45 258.321 107.044 257.334 110.007C256.001 114.007 253.334 118.007 250.667 120.673C248 123.34 240 128.673 240 128.673V130.006C240 130.006 253.333 127.339 256 127.339H264C266.667 127.339 280 130.006 280 130.006V128.673C280 128.673 272 123.34 269.333 120.673C266.666 118.006 264 114.007 262.666 110.007C261.678 107.044 261.399 100.45 261.333 96.674H264C266.667 96.674 272 99.341 273.333 100.674L277.333 104.674C280 107.341 282.666 108.674 286.666 108.674C290.666 108.674 293.333 107.341 295.999 104.674C298.666 102.007 299.999 99.341 299.999 95.341C299.999 91.341 298.666 88.675 295.999 86.008C293.332 83.341 290.666 82.008 286.666 82.008C282.666 82.008 279.999 83.341 277.333 86.008L273.333 90.008C272 91.341 266.666 94.008 264 94.008H261.333C261.333 92.153 261.333 92.675 261.333 90.008C261.333 87.341 262.666 82.0081 264 79.3421C265.333 76.6751 266.667 75.342 269.333 72.676C271.986 70.023 273.333 67.343 273.333 63.343C273.333 59.343 272 56.677 269.333 54.01C266.666 51.343 264 50.01 260 50.01Z" fill="black"/>
<path id="path172" d="M260 490C263.999 490.081 266.667 488.667 269.333 486C272 483.333 273.333 480.667 273.333 476.667C273.333 472.667 271.815 470.295 269.333 467.334C266.958 464.501 265.333 463.334 264 460.668C262.667 458.001 261.333 452.668 261.333 450.002C261.333 447.335 261.333 447.604 261.333 446.002H264C266.667 446.002 272 448.669 273.333 450.002L277.333 454.002C280 456.669 282.666 458.002 286.666 458.002C290.666 458.002 293.333 456.669 295.999 454.002C298.666 451.335 299.999 448.669 299.999 444.669C299.999 440.669 298.666 438.003 295.999 435.336C293.332 432.669 290.666 431.336 286.666 431.336C282.666 431.336 279.999 432.669 277.333 435.336L273.333 439.336C272 440.669 266.666 443.336 264 443.336H261.333C261.399 439.56 261.679 432.966 262.666 430.003C263.999 426.003 266.666 422.003 269.333 419.337C272 416.67 280 411.337 280 411.337V410.004C280 410.004 266.667 412.671 264 412.671H256C253.333 412.671 240 410.004 240 410.004V411.337C240 411.337 248 416.67 250.667 419.337C253.334 422.004 256 426.003 257.334 430.003C258.322 432.966 258.601 439.56 258.667 443.336H256C253.333 443.336 248 440.669 246.667 439.336L242.667 435.336C240 432.669 237.334 431.336 233.334 431.336C229.334 431.336 226.667 432.669 224.001 435.336C221.334 438.003 220.001 440.669 220.001 444.669C220.001 448.669 221.334 451.335 224.001 454.002C226.668 456.669 229.334 458.002 233.334 458.002C237.334 458.002 240.001 456.669 242.667 454.002L246.667 450.002C248 448.669 253.334 446.002 256 446.002H258.667C258.667 447.857 258.667 447.335 258.667 450.002C258.667 452.669 257.334 458.002 256 460.668C254.667 463.335 253.333 464.668 250.667 467.334C248.014 469.987 246.667 472.667 246.667 476.667C246.667 480.667 248 483.333 250.667 486C253.334 488.667 256 490 260 490Z" fill="black"/>
<path id="path174" d="M100 490C103.999 490.081 106.667 488.667 109.333 486C112 483.333 113.333 480.667 113.333 476.667C113.333 472.667 111.815 470.295 109.333 467.334C106.958 464.501 105.333 463.334 104 460.668C102.667 458.001 101.333 452.668 101.333 450.002C101.333 447.335 101.333 447.604 101.333 446.002H104C106.667 446.002 112 448.669 113.333 450.002L117.333 454.002C120 456.669 122.666 458.002 126.666 458.002C130.666 458.002 133.333 456.669 135.999 454.002C138.666 451.335 139.999 448.669 139.999 444.669C139.999 440.669 138.666 438.003 135.999 435.336C133.332 432.669 130.666 431.336 126.666 431.336C122.666 431.336 119.999 432.669 117.333 435.336L113.333 439.336C112 440.669 106.666 443.336 104 443.336H101.333C101.399 439.56 101.679 432.966 102.666 430.003C103.999 426.003 106.666 422.003 109.333 419.337C112 416.67 120 411.337 120 411.337V410.004C120 410.004 106.667 412.671 104 412.671H96C93.333 412.671 80 410.004 80 410.004V411.337C80 411.337 88 416.67 90.667 419.337C93.334 422.004 96 426.003 97.334 430.003C98.322 432.966 98.601 439.56 98.667 443.336H96C93.333 443.336 88 440.669 86.667 439.336L82.667 435.336C80 432.669 77.334 431.336 73.334 431.336C69.334 431.336 66.667 432.669 64.001 435.336C61.334 438.003 60.001 440.669 60.001 444.669C60.001 448.669 61.334 451.335 64.001 454.002C66.668 456.669 69.334 458.002 73.334 458.002C77.334 458.002 80.001 456.669 82.667 454.002L86.667 450.002C88 448.669 93.334 446.002 96 446.002H98.667C98.667 447.857 98.667 447.335 98.667 450.002C98.667 452.669 97.334 458.002 96 460.668C94.667 463.335 93.333 464.668 90.667 467.334C88.014 469.987 86.667 472.667 86.667 476.667C86.667 480.667 88 483.333 90.667 486C93.334 488.667 96 490 100 490Z" fill="black"/>
<path id="path176" d="M30 90C28.5 89.969 27.5 90.5 26.5 91.5C25.5 92.5 25 93.5 25 95C25 96.5 25.569 97.39 26.5 98.5C27.391 99.563 28 100 28.5 101C29 102 29.5 104 29.5 105C29.5 106 29.5 105.899 29.5 106.5H28.5C27.5 106.5 25.5 105.5 25 105L23.5 103.5C22.5 102.5 21.5 102 20 102C18.5 102 17.5 102.5 16.5 103.5C15.5 104.5 15 105.5 15 107C15 108.5 15.5 109.5 16.5 110.5C17.5 111.5 18.5 112 20 112C21.5 112 22.5 111.5 23.5 110.5L25 109C25.5 108.5 27.5 107.5 28.5 107.5H29.5C29.475 108.916 29.37 111.389 29 112.5C28.5 114 27.5 115.5 26.5 116.5C25.5 117.5 22.5 119.5 22.5 119.5V120C22.5 120 27.5 119 28.5 119H31.5C32.5 119 37.5 120 37.5 120V119.5C37.5 119.5 34.5 117.5 33.5 116.5C32.5 115.5 31.5 114 31 112.5C30.63 111.389 30.525 108.916 30.5 107.5H31.5C32.5 107.5 34.5 108.5 35 109L36.5 110.5C37.5 111.5 38.5 112 40 112C41.5 112 42.5 111.5 43.5 110.5C44.5 109.5 45 108.5 45 107C45 105.5 44.5 104.5 43.5 103.5C42.5 102.5 41.5 102 40 102C38.5 102 37.5 102.5 36.5 103.5L35 105C34.5 105.5 32.5 106.5 31.5 106.5H30.5C30.5 105.804 30.5 106 30.5 105C30.5 104 31 102 31.5 101C32 100 32.5 99.5 33.5 98.5C34.495 97.505 35 96.5 35 95C35 93.5 34.5 92.5 33.5 91.5C32.5 90.5 31.5 90 30 90Z" fill="black"/>
<path id="path178" d="M330 450C331.5 450.028 332.5 449.555 333.5 448.667C334.5 447.778 335 446.889 335 445.556C335 444.223 334.431 443.432 333.5 442.445C332.609 441.501 332 441.112 331.5 440.223C331 439.334 330.5 437.556 330.5 436.667C330.5 435.778 330.5 435.868 330.5 435.334H331.5C332.5 435.334 334.5 436.223 335 436.667L336.5 438C337.5 438.889 338.5 439.333 340 439.333C341.5 439.333 342.5 438.888 343.5 438C344.5 437.111 345 436.222 345 434.889C345 433.556 344.5 432.667 343.5 431.778C342.5 430.889 341.5 430.445 340 430.445C338.5 430.445 337.5 430.889 336.5 431.778L335 433.111C334.5 433.555 332.5 434.444 331.5 434.444H330.5C330.525 433.185 330.63 430.987 331 429.999C331.5 428.666 332.5 427.332 333.5 426.443C334.5 425.554 337.5 423.776 337.5 423.776V423.332C337.5 423.332 332.5 424.221 331.5 424.221H328.5C327.5 424.221 322.5 423.332 322.5 423.332V423.776C322.5 423.776 325.5 425.554 326.5 426.443C327.5 427.332 328.5 428.665 329 429.999C329.37 430.987 329.475 433.185 329.5 434.444H328.5C327.5 434.444 325.5 433.555 325 433.111L323.5 431.778C322.5 430.889 321.5 430.445 320 430.445C318.5 430.445 317.5 430.889 316.5 431.778C315.5 432.667 315 433.556 315 434.889C315 436.222 315.5 437.111 316.5 438C317.5 438.889 318.5 439.333 320 439.333C321.5 439.333 322.5 438.888 323.5 438L325 436.667C325.5 436.223 327.5 435.334 328.5 435.334H329.5C329.5 435.952 329.5 435.779 329.5 436.667C329.5 437.556 329 439.334 328.5 440.223C328 441.112 327.5 441.556 326.5 442.445C325.505 443.33 325 444.223 325 445.556C325 446.889 325.5 447.778 326.5 448.667C327.5 449.556 328.5 450 330 450Z" fill="black"/>
</g>
</svg>
