<svg width="360" height="540" viewBox="0 0 360 540" fill="none" xmlns="http://www.w3.org/2000/svg">
<g id="4S">
<path id="rect14458" d="M329.556 0.5H30.444C13.9064 0.5 0.5 13.9064 0.5 30.444V509.556C0.5 526.094 13.9064 539.5 30.444 539.5H329.556C346.094 539.5 359.5 526.094 359.5 509.556V30.444C359.5 13.9064 346.094 0.5 329.556 0.5Z" fill="white" stroke="black"/>
<path id="path14460" d="M30 30L20 65V70H32V80H37V70H40V65H37V50H32V65H25.2L35.2 30H30Z" fill="black"/>
<path id="path14462" d="M330 510L340 475V470H328V460H323V470H320V475H323V490H328V475H334.8L324.8 510H330Z" fill="black"/>
<path id="path14464" d="M30 90C29.5 92.5 28.929 93.147 28 94.5C27.199 95.666 26.079 96.586 25 97.5C23.906 98.427 22.657 99.153 21.5 100C20.155 100.984 18.568 101.72 17.5 103C16.306 104.431 15 106.137 15 108C15 109.491 15.903 110.991 17 112C18.321 113.215 20.205 114.041 22 114C24.01 113.954 26.05 112.897 27.5 111.5C28.573 110.466 29.5 107.5 29.5 107.5V108.5C29.5 109 29.45 111.234 29 112.5C28.473 113.982 27.564 115.342 26.5 116.5C25.373 117.727 22.5 119.5 22.5 119.5V120C22.5 120 26.479 119.167 28.5 119C29.497 118.918 30.5 118.918 31.5 119C33.52 119.167 37.5 120 37.5 120V119.5C37.5 119.5 34.627 117.727 33.5 116.5C32.436 115.342 31.527 113.982 31 112.5C30.55 111.234 30.5 108.5 30.5 108.5V107.5C30.5 107.5 31.427 110.466 32.5 111.5C33.95 112.897 35.987 113.954 38 114C39.795 114.041 41.679 113.215 43 112C44.097 110.99 45 109.491 45 108C45 106.137 43.694 104.431 42.5 103C41.432 101.72 39.845 100.98 38.5 100C37.343 99.153 36.094 98.427 35 97.5C33.921 96.586 32.801 95.666 32 94.5C31.071 93.147 30.5 92.5 30 90Z" fill="black"/>
<path id="path14466" d="M330 450C329.5 447.5 328.929 446.853 328 445.5C327.199 444.334 326.079 443.414 325 442.5C323.906 441.573 322.657 440.847 321.5 440C320.155 439.016 318.568 438.28 317.5 437C316.306 435.569 315 433.863 315 432C315 430.509 315.903 429.009 317 428C318.321 426.785 320.205 425.959 322 426C324.01 426.046 326.05 427.103 327.5 428.5C328.573 429.534 329.5 432.5 329.5 432.5V431.5C329.5 431 329.45 428.766 329 427.5C328.473 426.018 327.564 424.658 326.5 423.5C325.373 422.273 322.5 420.5 322.5 420.5V420C322.5 420 326.479 420.833 328.5 421C329.497 421.082 330.5 421.082 331.5 421C333.52 420.833 337.5 420 337.5 420V420.5C337.5 420.5 334.627 422.273 333.5 423.5C332.436 424.658 331.527 426.018 331 427.5C330.55 428.766 330.5 431.5 330.5 431.5V432.5C330.5 432.5 331.427 429.534 332.5 428.5C333.95 427.103 335.987 426.046 338 426C339.795 425.959 341.679 426.785 343 428C344.097 429.01 345 430.509 345 432C345 433.863 343.694 435.569 342.5 437C341.432 438.28 339.845 439.02 338.5 440C337.343 440.847 336.094 441.573 335 442.5C333.921 443.414 332.801 444.334 332 445.5C331.071 446.853 330.5 447.5 330 450Z" fill="black"/>
<path id="path14468" d="M260 50C258.667 56.667 257.145 58.392 254.667 62C252.532 65.109 249.545 67.562 246.667 70C243.75 72.471 240.419 74.408 237.334 76.667C233.748 79.292 229.515 81.255 226.667 84.667C223.483 88.482 220 93.031 220 98C220 101.975 222.408 105.975 225.333 108.667C228.856 111.908 233.881 114.111 238.666 114C244.035 113.876 249.466 111.06 253.333 107.333C256.195 104.575 258.666 96.666 258.666 96.666V99.333C258.666 100.666 258.533 106.623 257.333 110C255.929 113.951 253.503 117.579 250.666 120.667C247.656 123.94 239.999 128.667 239.999 128.667V130C239.999 130 250.611 127.779 255.999 127.333C258.657 127.113 261.341 127.113 263.999 127.333C269.387 127.779 279.999 130 279.999 130V128.667C279.999 128.667 272.339 123.94 269.332 120.667C266.496 117.579 264.069 113.951 262.665 110C261.465 106.624 261.332 99.333 261.332 99.333V96.666C261.332 96.666 263.803 104.574 266.665 107.333C270.532 111.059 275.963 113.876 281.332 114C286.118 114.11 291.143 111.908 294.665 108.667C297.59 105.975 299.998 101.976 299.998 98C299.998 93.031 296.515 88.482 293.331 84.667C290.483 81.255 286.251 79.292 282.664 76.667C279.579 74.409 276.248 72.472 273.331 70C270.453 67.562 267.466 65.109 265.331 62C262.853 58.392 261.331 56.667 259.998 50" fill="black"/>
<path id="path14470" d="M100 50C98.667 56.667 97.145 58.392 94.667 62C92.532 65.109 89.545 67.562 86.667 70C83.75 72.471 80.419 74.408 77.334 76.667C73.748 79.292 69.515 81.255 66.667 84.667C63.483 88.482 60 93.031 60 98C60 101.975 62.408 105.975 65.333 108.667C68.856 111.908 73.881 114.111 78.666 114C84.035 113.876 89.466 111.06 93.333 107.333C96.195 104.575 98.666 96.666 98.666 96.666V99.333C98.666 100.666 98.533 106.623 97.333 110C95.929 113.951 93.503 117.579 90.666 120.667C87.656 123.94 79.999 128.667 79.999 128.667V130C79.999 130 90.611 127.779 95.999 127.333C98.657 127.113 101.341 127.113 103.999 127.333C109.387 127.779 119.999 130 119.999 130V128.667C119.999 128.667 112.339 123.94 109.332 120.667C106.496 117.579 104.069 113.951 102.665 110C101.465 106.624 101.332 99.333 101.332 99.333V96.666C101.332 96.666 103.803 104.574 106.665 107.333C110.532 111.059 115.963 113.876 121.332 114C126.118 114.11 131.143 111.908 134.665 108.667C137.59 105.975 139.998 101.976 139.998 98C139.998 93.031 136.515 88.482 133.331 84.667C130.483 81.255 126.251 79.292 122.664 76.667C119.579 74.409 116.248 72.472 113.331 70C110.453 67.562 107.466 65.109 105.331 62C102.853 58.392 101.331 56.667 99.998 50" fill="black"/>
<path id="path14472" d="M100 490C98.667 483.333 97.145 481.608 94.667 478C92.532 474.891 89.545 472.438 86.667 470C83.75 467.529 80.419 465.592 77.334 463.333C73.748 460.708 69.515 458.745 66.667 455.333C63.483 451.518 60 446.969 60 442C60 438.025 62.408 434.025 65.333 431.333C68.856 428.092 73.881 425.889 78.666 426C84.035 426.124 89.466 428.94 93.333 432.667C96.195 435.425 98.666 443.334 98.666 443.334V440.667C98.666 439.334 98.533 433.377 97.333 430C95.929 426.049 93.503 422.421 90.666 419.333C87.656 416.06 79.999 411.333 79.999 411.333V410C79.999 410 90.611 412.221 95.999 412.667C98.657 412.887 101.341 412.887 103.999 412.667C109.387 412.221 119.999 410 119.999 410V411.333C119.999 411.333 112.339 416.06 109.332 419.333C106.496 422.421 104.069 426.049 102.665 430C101.465 433.376 101.332 440.667 101.332 440.667V443.334C101.332 443.334 103.803 435.426 106.665 432.667C110.532 428.941 115.963 426.124 121.332 426C126.118 425.89 131.143 428.092 134.665 431.333C137.59 434.025 139.998 438.024 139.998 442C139.998 446.969 136.515 451.518 133.331 455.333C130.483 458.745 126.251 460.708 122.664 463.333C119.579 465.591 116.248 467.528 113.331 470C110.453 472.438 107.466 474.891 105.331 478C102.853 481.608 101.331 483.333 99.998 490" fill="black"/>
<path id="path14474" d="M260 490C258.667 483.333 257.145 481.608 254.667 478C252.532 474.891 249.545 472.438 246.667 470C243.75 467.529 240.419 465.592 237.334 463.333C233.748 460.708 229.515 458.745 226.667 455.333C223.483 451.518 220 446.969 220 442C220 438.025 222.408 434.025 225.333 431.333C228.856 428.092 233.881 425.889 238.666 426C244.035 426.124 249.466 428.94 253.333 432.667C256.195 435.425 258.666 443.334 258.666 443.334V440.667C258.666 439.334 258.533 433.377 257.333 430C255.929 426.049 253.503 422.421 250.666 419.333C247.656 416.06 239.999 411.333 239.999 411.333V410C239.999 410 250.611 412.221 255.999 412.667C258.657 412.887 261.341 412.887 263.999 412.667C269.387 412.221 279.999 410 279.999 410V411.333C279.999 411.333 272.339 416.06 269.332 419.333C266.496 422.421 264.069 426.049 262.665 430C261.465 433.376 261.332 440.667 261.332 440.667V443.334C261.332 443.334 263.803 435.426 266.665 432.667C270.532 428.941 275.963 426.124 281.332 426C286.118 425.89 291.143 428.092 294.665 431.333C297.59 434.025 299.998 438.024 299.998 442C299.998 446.969 296.515 451.518 293.331 455.333C290.483 458.745 286.251 460.708 282.664 463.333C279.579 465.591 276.248 467.528 273.331 470C270.453 472.438 267.466 474.891 265.331 478C262.853 481.608 261.331 483.333 259.998 490" fill="black"/>
</g>
</svg>
