<svg width="360" height="540" viewBox="0 0 360 540" fill="none" xmlns="http://www.w3.org/2000/svg">
<g id="5D">
<path id="rect356" d="M329.556 0.5H30.444C13.9064 0.5 0.5 13.9064 0.5 30.444V509.556C0.5 526.094 13.9064 539.5 30.444 539.5H329.556C346.094 539.5 359.5 526.094 359.5 509.556V30.444C359.5 13.9064 346.094 0.5 329.556 0.5Z" fill="white" stroke="black"/>
<g id="g358">
<path id="path360" d="M100 50C100 50 108 63.333 117.333 72.667C126.666 82 140 90 140 90C140 90 126.667 98 117.333 107.333C108 116.666 100 130 100 130C100 130 92 116.667 82.667 107.333C73.334 98 60 90 60 90C60 90 73.333 82 82.667 72.667C92 63.334 100 50 100 50Z" fill="#FF5555"/>
<path id="path362" d="M260 50C260 50 268 63.333 277.333 72.667C286.666 82 300 90 300 90C300 90 286.667 98 277.333 107.333C268 116.666 260 130 260 130C260 130 252 116.667 242.667 107.333C233.334 98 220 90 220 90C220 90 233.333 82 242.667 72.667C252 63.334 260 50 260 50Z" fill="#FF5555"/>
<path id="path364" d="M180 230C180 230 188 243.333 197.333 252.667C206.666 262 220 270 220 270C220 270 206.667 278 197.333 287.333C188 296.666 180 310 180 310C180 310 172 296.667 162.667 287.333C153.334 278 140 270 140 270C140 270 153.333 262 162.667 252.667C172 243.334 180 230 180 230Z" fill="#FF5555"/>
<path id="path366" d="M100 410C100 410 108 423.333 117.333 432.667C126.666 442 140 450 140 450C140 450 126.667 458 117.333 467.333C108 476.666 100 490 100 490C100 490 92 476.667 82.667 467.333C73.334 458 60 450 60 450C60 450 73.333 442 82.667 432.667C92 423.334 100 410 100 410Z" fill="#FF5555"/>
<path id="path368" d="M260 410C260 410 268 423.333 277.333 432.667C286.666 442 300 450 300 450C300 450 286.667 458 277.333 467.333C268 476.666 260 490 260 490C260 490 252 476.667 242.667 467.333C233.334 458 220 450 220 450C220 450 233.333 442 242.667 432.667C252 423.334 260 410 260 410Z" fill="#FF5555"/>
<path id="path370" d="M330 420C330 420 333 425 336.5 428.5C340 432 345 435 345 435C345 435 340 438 336.5 441.5C333 445 330 450 330 450C330 450 327 445 323.5 441.5C320 438 315 435 315 435C315 435 320 432 323.5 428.5C327 425 330 420 330 420Z" fill="#FF5555"/>
<path id="path372" d="M30 90C30 90 33 95 36.5 98.5C40 102 45 105 45 105C45 105 40 108 36.5 111.5C33 115 30 120 30 120C30 120 27 115 23.5 111.5C20 108 15 105 15 105C15 105 20 102 23.5 98.5C27 95 30 90 30 90Z" fill="#FF5555"/>
<path id="path374" d="M20 30V45V50H30C32.77 50 35 52.23 35 55V70C35 72.77 32.77 75 30 75C27.23 75 25 72.77 25 70V65H20V70C20 75.54 24.46 80 30 80C35.54 80 40 75.54 40 70V55C40 49.46 35.306 43.407 30 45H25V35H30H40V30H30H25H20Z" fill="#FF5555"/>
<path id="path376" d="M340 510V495V490H330C327.23 490 325 487.77 325 485V470C325 467.23 327.23 465 330 465C332.77 465 335 467.23 335 470V475H340V470C340 464.46 335.54 460 330 460C324.46 460 320 464.46 320 470V485C320 490.54 324.46 495 330 495H335V505H330H320V510H330H335H340Z" fill="#FF5555"/>
</g>
</g>
</svg>
