<svg width="360" height="540" viewBox="0 0 360 540" fill="none" xmlns="http://www.w3.org/2000/svg">
<g id="7D">
<path id="rect430" d="M329.556 0.5H30.444C13.9064 0.5 0.5 13.9064 0.5 30.444V509.556C0.5 526.094 13.9064 539.5 30.444 539.5H329.556C346.094 539.5 359.5 526.094 359.5 509.556V30.444C359.5 13.9064 346.094 0.5 329.556 0.5Z" fill="white" stroke="black"/>
<g id="g432">
<path id="path434" d="M100 50C100 50 108 63.333 117.333 72.667C126.666 82 140 90 140 90C140 90 126.667 98 117.333 107.333C108 116.666 100 130 100 130C100 130 92 116.667 82.667 107.333C73.334 98 60 90 60 90C60 90 73.333 82 82.667 72.667C92 63.334 100 50 100 50Z" fill="#FF5555"/>
<path id="path436" d="M260 50C260 50 268 63.333 277.333 72.667C286.666 82 300 90 300 90C300 90 286.667 98 277.333 107.333C268 116.666 260 130 260 130C260 130 252 116.667 242.667 107.333C233.334 98 220 90 220 90C220 90 233.333 82 242.667 72.667C252 63.334 260 50 260 50Z" fill="#FF5555"/>
<path id="path438" d="M180 140C180 140 188 153.333 197.333 162.667C206.666 172 220 180 220 180C220 180 206.667 188 197.333 197.333C188 206.666 180 220 180 220C180 220 172 206.667 162.667 197.333C153.334 188 140 180 140 180C140 180 153.333 172 162.667 162.667C172 153.334 180 140 180 140Z" fill="#FF5555"/>
<path id="path440" d="M100 230C100 230 108 243.333 117.333 252.667C126.666 262 140 270 140 270C140 270 126.667 278 117.333 287.333C108 296.666 100 310 100 310C100 310 92 296.667 82.667 287.333C73.334 278 60 270 60 270C60 270 73.333 262 82.667 252.667C92 243.334 100 230 100 230Z" fill="#FF5555"/>
<path id="path442" d="M260 230C260 230 268 243.333 277.333 252.667C286.666 262 300 270 300 270C300 270 286.667 278 277.333 287.333C268 296.666 260 310 260 310C260 310 252 296.667 242.667 287.333C233.334 278 220 270 220 270C220 270 233.333 262 242.667 252.667C252 243.334 260 230 260 230Z" fill="#FF5555"/>
<path id="path444" d="M100 410C100 410 108 423.333 117.333 432.667C126.666 442 140 450 140 450C140 450 126.667 458 117.333 467.333C108 476.666 100 490 100 490C100 490 92 476.667 82.667 467.333C73.334 458 60 450 60 450C60 450 73.333 442 82.667 432.667C92 423.334 100 410 100 410Z" fill="#FF5555"/>
<path id="path446" d="M260 410C260 410 268 423.333 277.333 432.667C286.666 442 300 450 300 450C300 450 286.667 458 277.333 467.333C268 476.666 260 490 260 490C260 490 252 476.667 242.667 467.333C233.334 458 220 450 220 450C220 450 233.333 442 242.667 432.667C252 423.334 260 410 260 410Z" fill="#FF5555"/>
<path id="path448" d="M330 420C330 420 333 425 336.5 428.5C340 432 345 435 345 435C345 435 340 438 336.5 441.5C333 445 330 450 330 450C330 450 327 445 323.5 441.5C320 438 315 435 315 435C315 435 320 432 323.5 428.5C327 425 330 420 330 420Z" fill="#FF5555"/>
<path id="path450" d="M30 90C30 90 33 95 36.5 98.5C40 102 45 105 45 105C45 105 40 108 36.5 111.5C33 115 30 120 30 120C30 120 27 115 23.5 111.5C20 108 15 105 15 105C15 105 20 102 23.5 98.5C27 95 30 90 30 90Z" fill="#FF5555"/>
<path id="path452" d="M20 30V35V40H25V35H35L25 80H30L40 35V30H20Z" fill="#FF5555"/>
<path id="path454" d="M340 510V505V500H335V505H325L335 460H330L320 505V510H340Z" fill="#FF5555"/>
</g>
</g>
</svg>
