<svg width="360" height="540" viewBox="0 0 360 540" fill="none" xmlns="http://www.w3.org/2000/svg">
<g id="8C">
<path id="rect254" d="M329.556 0.5H30.444C13.9064 0.5 0.5 13.9064 0.5 30.444V509.556C0.5 526.094 13.9064 539.5 30.444 539.5H329.556C346.094 539.5 359.5 526.094 359.5 509.556V30.444C359.5 13.9064 346.094 0.5 329.556 0.5Z" fill="white" stroke="black"/>
<path id="path256" d="M30 30C24.46 30 20 34.46 20 40V45C20 48 21.323 50.67 23.406 52.5C21.323 54.33 20 56.996 20 60V70C20 75.54 24.46 80 30 80C35.54 80 40 75.54 40 70V60C40 57 38.677 54.33 36.594 52.5C38.677 50.67 40 48.004 40 45V40C40 34.46 35.54 30 30 30ZM30 35C32.77 35 35 37.23 35 40V45C35 47.77 32.77 50 30 50C27.23 50 25 47.77 25 45V40C25 37.23 27.23 35 30 35ZM30 55C32.77 55 35 57.23 35 60V70C35 72.77 32.77 75 30 75C27.23 75 25 72.77 25 70V60C25 57.23 27.23 55 30 55Z" fill="black"/>
<path id="path258" d="M330 510C324.46 510 320 505.54 320 500V495C320 492 321.323 489.33 323.406 487.5C321.323 485.67 320 483.004 320 480V470C320 464.46 324.46 460 330 460C335.54 460 340 464.46 340 470V480C340 483 338.677 485.67 336.594 487.5C338.677 489.33 340 491.996 340 495V500C340 505.54 335.54 510 330 510ZM330 505C332.77 505 335 502.77 335 500V495C335 492.23 332.77 490 330 490C327.23 490 325 492.23 325 495V500C325 502.77 327.23 505 330 505ZM330 485C332.77 485 335 482.77 335 480V470C335 467.23 332.77 465 330 465C327.23 465 325 467.23 325 470V480C325 482.77 327.23 485 330 485Z" fill="black"/>
<path id="path260" d="M100 50.01C96.001 49.928 93.333 51.343 90.667 54.01C88 56.677 86.667 59.343 86.667 63.343C86.667 67.343 88.185 69.715 90.667 72.676C93.042 75.509 94.667 76.6761 96 79.3421C97.333 82.0091 98.667 87.342 98.667 90.008C98.667 92.675 98.667 92.406 98.667 94.008H96C93.333 94.008 88 91.341 86.667 90.008L82.667 86.008C80 83.341 77.334 82.008 73.334 82.008C69.334 82.008 66.667 83.341 64.001 86.008C61.334 88.675 60.001 91.341 60.001 95.341C60.001 99.341 61.334 102.007 64.001 104.674C66.668 107.341 69.334 108.674 73.334 108.674C77.334 108.674 80.001 107.341 82.667 104.674L86.667 100.674C88 99.341 93.334 96.674 96 96.674H98.667C98.601 100.45 98.321 107.044 97.334 110.007C96.001 114.007 93.334 118.007 90.667 120.673C88 123.34 80 128.673 80 128.673V130.006C80 130.006 93.333 127.339 96 127.339H104C106.667 127.339 120 130.006 120 130.006V128.673C120 128.673 112 123.34 109.333 120.673C106.666 118.006 104 114.007 102.666 110.007C101.678 107.044 101.399 100.45 101.333 96.674H104C106.667 96.674 112 99.341 113.333 100.674L117.333 104.674C120 107.341 122.666 108.674 126.666 108.674C130.666 108.674 133.333 107.341 135.999 104.674C138.666 102.007 139.999 99.341 139.999 95.341C139.999 91.341 138.666 88.675 135.999 86.008C133.332 83.341 130.666 82.008 126.666 82.008C122.666 82.008 119.999 83.341 117.333 86.008L113.333 90.008C112 91.341 106.666 94.008 104 94.008H101.333C101.333 92.153 101.333 92.675 101.333 90.008C101.333 87.341 102.666 82.0081 104 79.3421C105.333 76.6751 106.667 75.342 109.333 72.676C111.986 70.023 113.333 67.343 113.333 63.343C113.333 59.343 112 56.677 109.333 54.01C106.666 51.343 104 50.01 100 50.01Z" fill="black"/>
<path id="path262" d="M260 50.01C256.001 49.928 253.333 51.343 250.667 54.01C248 56.677 246.667 59.343 246.667 63.343C246.667 67.343 248.185 69.715 250.667 72.676C253.042 75.509 254.667 76.6761 256 79.3421C257.333 82.0091 258.667 87.342 258.667 90.008C258.667 92.675 258.667 92.406 258.667 94.008H256C253.333 94.008 248 91.341 246.667 90.008L242.667 86.008C240 83.341 237.334 82.008 233.334 82.008C229.334 82.008 226.667 83.341 224.001 86.008C221.334 88.675 220.001 91.341 220.001 95.341C220.001 99.341 221.334 102.007 224.001 104.674C226.668 107.341 229.334 108.674 233.334 108.674C237.334 108.674 240.001 107.341 242.667 104.674L246.667 100.674C248 99.341 253.334 96.674 256 96.674H258.667C258.601 100.45 258.321 107.044 257.334 110.007C256.001 114.007 253.334 118.007 250.667 120.673C248 123.34 240 128.673 240 128.673V130.006C240 130.006 253.333 127.339 256 127.339H264C266.667 127.339 280 130.006 280 130.006V128.673C280 128.673 272 123.34 269.333 120.673C266.666 118.006 264 114.007 262.666 110.007C261.678 107.044 261.399 100.45 261.333 96.674H264C266.667 96.674 272 99.341 273.333 100.674L277.333 104.674C280 107.341 282.666 108.674 286.666 108.674C290.666 108.674 293.333 107.341 295.999 104.674C298.666 102.007 299.999 99.341 299.999 95.341C299.999 91.341 298.666 88.675 295.999 86.008C293.332 83.341 290.666 82.008 286.666 82.008C282.666 82.008 279.999 83.341 277.333 86.008L273.333 90.008C272 91.341 266.666 94.008 264 94.008H261.333C261.333 92.153 261.333 92.675 261.333 90.008C261.333 87.341 262.666 82.0081 264 79.3421C265.333 76.6751 266.667 75.342 269.333 72.676C271.986 70.023 273.333 67.343 273.333 63.343C273.333 59.343 272 56.677 269.333 54.01C266.666 51.343 264 50.01 260 50.01Z" fill="black"/>
<path id="path264" d="M100 230.01C96.001 229.928 93.333 231.343 90.667 234.01C88 236.677 86.667 239.343 86.667 243.343C86.667 247.343 88.185 249.715 90.667 252.676C93.042 255.509 94.667 256.676 96 259.342C97.333 262.009 98.667 267.342 98.667 270.008C98.667 272.675 98.667 272.406 98.667 274.008H96C93.333 274.008 88 271.341 86.667 270.008L82.667 266.008C80 263.341 77.334 262.008 73.334 262.008C69.334 262.008 66.667 263.341 64.001 266.008C61.334 268.675 60.001 271.341 60.001 275.341C60.001 279.341 61.334 282.007 64.001 284.674C66.668 287.341 69.334 288.674 73.334 288.674C77.334 288.674 80.001 287.341 82.667 284.674L86.667 280.674C88 279.341 93.334 276.674 96 276.674H98.667C98.601 280.45 98.321 287.044 97.334 290.007C96.001 294.007 93.334 298.007 90.667 300.673C88 303.34 80 308.673 80 308.673V310.006C80 310.006 93.333 307.339 96 307.339H104C106.667 307.339 120 310.006 120 310.006V308.673C120 308.673 112 303.34 109.333 300.673C106.666 298.006 104 294.007 102.666 290.007C101.678 287.044 101.399 280.45 101.333 276.674H104C106.667 276.674 112 279.341 113.333 280.674L117.333 284.674C120 287.341 122.666 288.674 126.666 288.674C130.666 288.674 133.333 287.341 135.999 284.674C138.666 282.007 139.999 279.341 139.999 275.341C139.999 271.341 138.666 268.675 135.999 266.008C133.332 263.341 130.666 262.008 126.666 262.008C122.666 262.008 119.999 263.341 117.333 266.008L113.333 270.008C112 271.341 106.666 274.008 104 274.008H101.333C101.333 272.153 101.333 272.675 101.333 270.008C101.333 267.341 102.666 262.008 104 259.342C105.333 256.675 106.667 255.342 109.333 252.676C111.986 250.023 113.333 247.343 113.333 243.343C113.333 239.343 112 236.677 109.333 234.01C106.666 231.343 104 230.01 100 230.01Z" fill="black"/>
<path id="path266" d="M260 230.01C256.001 229.928 253.333 231.343 250.667 234.01C248 236.677 246.667 239.343 246.667 243.343C246.667 247.343 248.185 249.715 250.667 252.676C253.042 255.509 254.667 256.676 256 259.342C257.333 262.009 258.667 267.342 258.667 270.008C258.667 272.675 258.667 272.406 258.667 274.008H256C253.333 274.008 248 271.341 246.667 270.008L242.667 266.008C240 263.341 237.334 262.008 233.334 262.008C229.334 262.008 226.667 263.341 224.001 266.008C221.334 268.675 220.001 271.341 220.001 275.341C220.001 279.341 221.334 282.007 224.001 284.674C226.668 287.341 229.334 288.674 233.334 288.674C237.334 288.674 240.001 287.341 242.667 284.674L246.667 280.674C248 279.341 253.334 276.674 256 276.674H258.667C258.601 280.45 258.321 287.044 257.334 290.007C256.001 294.007 253.334 298.007 250.667 300.673C248 303.34 240 308.673 240 308.673V310.006C240 310.006 253.333 307.339 256 307.339H264C266.667 307.339 280 310.006 280 310.006V308.673C280 308.673 272 303.34 269.333 300.673C266.666 298.006 264 294.007 262.666 290.007C261.678 287.044 261.399 280.45 261.333 276.674H264C266.667 276.674 272 279.341 273.333 280.674L277.333 284.674C280 287.341 282.666 288.674 286.666 288.674C290.666 288.674 293.333 287.341 295.999 284.674C298.666 282.007 299.999 279.341 299.999 275.341C299.999 271.341 298.666 268.675 295.999 266.008C293.332 263.341 290.666 262.008 286.666 262.008C282.666 262.008 279.999 263.341 277.333 266.008L273.333 270.008C272 271.341 266.666 274.008 264 274.008H261.333C261.333 272.153 261.333 272.675 261.333 270.008C261.333 267.341 262.666 262.008 264 259.342C265.333 256.675 266.667 255.342 269.333 252.676C271.986 250.023 273.333 247.343 273.333 243.343C273.333 239.343 272 236.677 269.333 234.01C266.666 231.343 264 230.01 260 230.01Z" fill="black"/>
<path id="path268" d="M180 140.01C176.001 139.928 173.333 141.343 170.667 144.01C168 146.677 166.667 149.343 166.667 153.343C166.667 157.343 168.185 159.715 170.667 162.676C173.042 165.509 174.667 166.676 176 169.342C177.333 172.009 178.667 177.342 178.667 180.008C178.667 182.675 178.667 182.406 178.667 184.008H176C173.333 184.008 168 181.341 166.667 180.008L162.667 176.008C160 173.341 157.334 172.008 153.334 172.008C149.334 172.008 146.667 173.341 144.001 176.008C141.334 178.675 140.001 181.341 140.001 185.341C140.001 189.341 141.334 192.007 144.001 194.674C146.668 197.341 149.334 198.674 153.334 198.674C157.334 198.674 160.001 197.341 162.667 194.674L166.667 190.674C168 189.341 173.334 186.674 176 186.674H178.667C178.601 190.45 178.321 197.044 177.334 200.007C176.001 204.007 173.334 208.007 170.667 210.673C168 213.34 160 218.673 160 218.673V220.006C160 220.006 173.333 217.339 176 217.339H184C186.667 217.339 200 220.006 200 220.006V218.673C200 218.673 192 213.34 189.333 210.673C186.666 208.006 184 204.007 182.666 200.007C181.678 197.044 181.399 190.45 181.333 186.674H184C186.667 186.674 192 189.341 193.333 190.674L197.333 194.674C200 197.341 202.666 198.674 206.666 198.674C210.666 198.674 213.333 197.341 215.999 194.674C218.666 192.007 219.999 189.341 219.999 185.341C219.999 181.341 218.666 178.675 215.999 176.008C213.332 173.341 210.666 172.008 206.666 172.008C202.666 172.008 199.999 173.341 197.333 176.008L193.333 180.008C192 181.341 186.666 184.008 184 184.008H181.333C181.333 182.153 181.333 182.675 181.333 180.008C181.333 177.341 182.666 172.008 184 169.342C185.333 166.675 186.667 165.342 189.333 162.676C191.986 160.023 193.333 157.343 193.333 153.343C193.333 149.343 192 146.677 189.333 144.01C186.666 141.343 184 140.01 180 140.01Z" fill="black"/>
<path id="path270" d="M260 490C263.999 490.081 266.667 488.667 269.333 486C272 483.333 273.333 480.667 273.333 476.667C273.333 472.667 271.815 470.295 269.333 467.334C266.958 464.501 265.333 463.334 264 460.668C262.667 458.001 261.333 452.668 261.333 450.002C261.333 447.335 261.333 447.604 261.333 446.002H264C266.667 446.002 272 448.669 273.333 450.002L277.333 454.002C280 456.669 282.666 458.002 286.666 458.002C290.666 458.002 293.333 456.669 295.999 454.002C298.666 451.335 299.999 448.669 299.999 444.669C299.999 440.669 298.666 438.003 295.999 435.336C293.332 432.669 290.666 431.336 286.666 431.336C282.666 431.336 279.999 432.669 277.333 435.336L273.333 439.336C272 440.669 266.666 443.336 264 443.336H261.333C261.399 439.56 261.679 432.966 262.666 430.003C263.999 426.003 266.666 422.003 269.333 419.337C272 416.67 280 411.337 280 411.337V410.004C280 410.004 266.667 412.671 264 412.671H256C253.333 412.671 240 410.004 240 410.004V411.337C240 411.337 248 416.67 250.667 419.337C253.334 422.004 256 426.003 257.334 430.003C258.322 432.966 258.601 439.56 258.667 443.336H256C253.333 443.336 248 440.669 246.667 439.336L242.667 435.336C240 432.669 237.334 431.336 233.334 431.336C229.334 431.336 226.667 432.669 224.001 435.336C221.334 438.003 220.001 440.669 220.001 444.669C220.001 448.669 221.334 451.335 224.001 454.002C226.668 456.669 229.334 458.002 233.334 458.002C237.334 458.002 240.001 456.669 242.667 454.002L246.667 450.002C248 448.669 253.334 446.002 256 446.002H258.667C258.667 447.857 258.667 447.335 258.667 450.002C258.667 452.669 257.334 458.002 256 460.668C254.667 463.335 253.333 464.668 250.667 467.334C248.014 469.987 246.667 472.667 246.667 476.667C246.667 480.667 248 483.333 250.667 486C253.334 488.667 256 490 260 490Z" fill="black"/>
<path id="path272" d="M100 490C103.999 490.081 106.667 488.667 109.333 486C112 483.333 113.333 480.667 113.333 476.667C113.333 472.667 111.815 470.295 109.333 467.334C106.958 464.501 105.333 463.334 104 460.668C102.667 458.001 101.333 452.668 101.333 450.002C101.333 447.335 101.333 447.604 101.333 446.002H104C106.667 446.002 112 448.669 113.333 450.002L117.333 454.002C120 456.669 122.666 458.002 126.666 458.002C130.666 458.002 133.333 456.669 135.999 454.002C138.666 451.335 139.999 448.669 139.999 444.669C139.999 440.669 138.666 438.003 135.999 435.336C133.332 432.669 130.666 431.336 126.666 431.336C122.666 431.336 119.999 432.669 117.333 435.336L113.333 439.336C112 440.669 106.666 443.336 104 443.336H101.333C101.399 439.56 101.679 432.966 102.666 430.003C103.999 426.003 106.666 422.003 109.333 419.337C112 416.67 120 411.337 120 411.337V410.004C120 410.004 106.667 412.671 104 412.671H96C93.333 412.671 80 410.004 80 410.004V411.337C80 411.337 88 416.67 90.667 419.337C93.334 422.004 96 426.003 97.334 430.003C98.322 432.966 98.601 439.56 98.667 443.336H96C93.333 443.336 88 440.669 86.667 439.336L82.667 435.336C80 432.669 77.334 431.336 73.334 431.336C69.334 431.336 66.667 432.669 64.001 435.336C61.334 438.003 60.001 440.669 60.001 444.669C60.001 448.669 61.334 451.335 64.001 454.002C66.668 456.669 69.334 458.002 73.334 458.002C77.334 458.002 80.001 456.669 82.667 454.002L86.667 450.002C88 448.669 93.334 446.002 96 446.002H98.667C98.667 447.857 98.667 447.335 98.667 450.002C98.667 452.669 97.334 458.002 96 460.668C94.667 463.335 93.333 464.668 90.667 467.334C88.014 469.987 86.667 472.667 86.667 476.667C86.667 480.667 88 483.333 90.667 486C93.334 488.667 96 490 100 490Z" fill="black"/>
<path id="path274" d="M180 400C183.999 400.082 186.667 398.667 189.333 396C192 393.333 193.333 390.667 193.333 386.667C193.333 382.667 191.815 380.295 189.333 377.334C186.958 374.501 185.333 373.334 184 370.668C182.667 368.001 181.333 362.668 181.333 360.002C181.333 357.335 181.333 357.604 181.333 356.002H184C186.667 356.002 192 358.669 193.333 360.002L197.333 364.002C200 366.669 202.666 368.002 206.666 368.002C210.666 368.002 213.333 366.669 215.999 364.002C218.666 361.335 219.999 358.669 219.999 354.669C219.999 350.669 218.666 348.003 215.999 345.336C213.332 342.669 210.666 341.336 206.666 341.336C202.666 341.336 199.999 342.669 197.333 345.336L193.333 349.336C192 350.669 186.666 353.336 184 353.336H181.333C181.399 349.56 181.679 342.966 182.666 340.003C183.999 336.003 186.666 332.003 189.333 329.337C192 326.67 200 321.337 200 321.337V320.004C200 320.004 186.667 322.671 184 322.671H176C173.333 322.671 160 320.004 160 320.004V321.337C160 321.337 168 326.67 170.667 329.337C173.334 332.004 176 336.003 177.334 340.003C178.322 342.966 178.601 349.56 178.667 353.336H176C173.333 353.336 168 350.669 166.667 349.336L162.667 345.336C160 342.669 157.334 341.336 153.334 341.336C149.334 341.336 146.667 342.669 144.001 345.336C141.334 348.003 140.001 350.669 140.001 354.669C140.001 358.669 141.334 361.335 144.001 364.002C146.668 366.669 149.334 368.002 153.334 368.002C157.334 368.002 160.001 366.669 162.667 364.002L166.667 360.002C168 358.669 173.334 356.002 176 356.002H178.667C178.667 357.857 178.667 357.335 178.667 360.002C178.667 362.669 177.334 368.002 176 370.668C174.667 373.335 173.333 374.668 170.667 377.334C168.014 379.987 166.667 382.667 166.667 386.667C166.667 390.667 168 393.333 170.667 396C173.334 398.667 176 400 180 400Z" fill="black"/>
<path id="path276" d="M30 90C28.5 89.969 27.5 90.5 26.5 91.5C25.5 92.5 25 93.5 25 95C25 96.5 25.569 97.39 26.5 98.5C27.391 99.563 28 100 28.5 101C29 102 29.5 104 29.5 105C29.5 106 29.5 105.899 29.5 106.5H28.5C27.5 106.5 25.5 105.5 25 105L23.5 103.5C22.5 102.5 21.5 102 20 102C18.5 102 17.5 102.5 16.5 103.5C15.5 104.5 15 105.5 15 107C15 108.5 15.5 109.5 16.5 110.5C17.5 111.5 18.5 112 20 112C21.5 112 22.5 111.5 23.5 110.5L25 109C25.5 108.5 27.5 107.5 28.5 107.5H29.5C29.475 108.916 29.37 111.389 29 112.5C28.5 114 27.5 115.5 26.5 116.5C25.5 117.5 22.5 119.5 22.5 119.5V120C22.5 120 27.5 119 28.5 119H31.5C32.5 119 37.5 120 37.5 120V119.5C37.5 119.5 34.5 117.5 33.5 116.5C32.5 115.5 31.5 114 31 112.5C30.63 111.389 30.525 108.916 30.5 107.5H31.5C32.5 107.5 34.5 108.5 35 109L36.5 110.5C37.5 111.5 38.5 112 40 112C41.5 112 42.5 111.5 43.5 110.5C44.5 109.5 45 108.5 45 107C45 105.5 44.5 104.5 43.5 103.5C42.5 102.5 41.5 102 40 102C38.5 102 37.5 102.5 36.5 103.5L35 105C34.5 105.5 32.5 106.5 31.5 106.5H30.5C30.5 105.804 30.5 106 30.5 105C30.5 104 31 102 31.5 101C32 100 32.5 99.5 33.5 98.5C34.495 97.505 35 96.5 35 95C35 93.5 34.5 92.5 33.5 91.5C32.5 90.5 31.5 90 30 90Z" fill="black"/>
<path id="path278" d="M330 450C331.5 450.031 332.5 449.5 333.5 448.5C334.5 447.5 335 446.5 335 445C335 443.5 334.431 442.61 333.5 441.5C332.609 440.437 332 440 331.5 439C331 438 330.5 436 330.5 435C330.5 434 330.5 434.101 330.5 433.5H331.5C332.5 433.5 334.5 434.5 335 435L336.5 436.5C337.5 437.5 338.5 438 340 438C341.5 438 342.5 437.5 343.5 436.5C344.5 435.5 345 434.5 345 433C345 431.5 344.5 430.5 343.5 429.5C342.5 428.5 341.5 428 340 428C338.5 428 337.5 428.5 336.5 429.5L335 431C334.5 431.5 332.5 432.5 331.5 432.5H330.5C330.525 431.084 330.63 428.611 331 427.5C331.5 426 332.5 424.5 333.5 423.5C334.5 422.5 337.5 420.5 337.5 420.5V420C337.5 420 332.5 421 331.5 421H328.5C327.5 421 322.5 420 322.5 420V420.5C322.5 420.5 325.5 422.5 326.5 423.5C327.5 424.5 328.5 426 329 427.5C329.37 428.611 329.475 431.084 329.5 432.5H328.5C327.5 432.5 325.5 431.5 325 431L323.5 429.5C322.5 428.5 321.5 428 320 428C318.5 428 317.5 428.5 316.5 429.5C315.5 430.5 315 431.5 315 433C315 434.5 315.5 435.5 316.5 436.5C317.5 437.5 318.5 438 320 438C321.5 438 322.5 437.5 323.5 436.5L325 435C325.5 434.5 327.5 433.5 328.5 433.5H329.5C329.5 434.196 329.5 434 329.5 435C329.5 436 329 438 328.5 439C328 440 327.5 440.5 326.5 441.5C325.505 442.495 325 443.5 325 445C325 446.5 325.5 447.5 326.5 448.5C327.5 449.5 328.5 450 330 450Z" fill="black"/>
</g>
</svg>
