<svg width="360" height="540" viewBox="0 0 360 540" fill="none" xmlns="http://www.w3.org/2000/svg">
<g id="8D">
<path id="rect458" d="M329.556 0.5H30.444C13.9064 0.5 0.5 13.9064 0.5 30.444V509.556C0.5 526.094 13.9064 539.5 30.444 539.5H329.556C346.094 539.5 359.5 526.094 359.5 509.556V30.444C359.5 13.9064 346.094 0.5 329.556 0.5Z" fill="white" stroke="black"/>
<g id="g460">
<path id="path462" d="M100 50C100 50 108 63.333 117.333 72.667C126.666 82 140 90 140 90C140 90 126.667 98 117.333 107.333C108 116.666 100 130 100 130C100 130 92 116.667 82.667 107.333C73.334 98 60 90 60 90C60 90 73.333 82 82.667 72.667C92 63.334 100 50 100 50Z" fill="#FF5555"/>
<path id="path464" d="M260 50C260 50 268 63.333 277.333 72.667C286.666 82 300 90 300 90C300 90 286.667 98 277.333 107.333C268 116.666 260 130 260 130C260 130 252 116.667 242.667 107.333C233.334 98 220 90 220 90C220 90 233.333 82 242.667 72.667C252 63.334 260 50 260 50Z" fill="#FF5555"/>
<path id="path466" d="M180 140C180 140 188 153.333 197.333 162.667C206.666 172 220 180 220 180C220 180 206.667 188 197.333 197.333C188 206.666 180 220 180 220C180 220 172 206.667 162.667 197.333C153.334 188 140 180 140 180C140 180 153.333 172 162.667 162.667C172 153.334 180 140 180 140Z" fill="#FF5555"/>
<path id="path468" d="M100 230C100 230 108 243.333 117.333 252.667C126.666 262 140 270 140 270C140 270 126.667 278 117.333 287.333C108 296.666 100 310 100 310C100 310 92 296.667 82.667 287.333C73.334 278 60 270 60 270C60 270 73.333 262 82.667 252.667C92 243.334 100 230 100 230Z" fill="#FF5555"/>
<path id="path470" d="M260 230C260 230 268 243.333 277.333 252.667C286.666 262 300 270 300 270C300 270 286.667 278 277.333 287.333C268 296.666 260 310 260 310C260 310 252 296.667 242.667 287.333C233.334 278 220 270 220 270C220 270 233.333 262 242.667 252.667C252 243.334 260 230 260 230Z" fill="#FF5555"/>
<path id="path472" d="M180 320C180 320 188 333.333 197.333 342.667C206.666 352 220 360 220 360C220 360 206.667 368 197.333 377.333C188 386.666 180 400 180 400C180 400 172 386.667 162.667 377.333C153.334 368 140 360 140 360C140 360 153.333 352 162.667 342.667C172 333.334 180 320 180 320Z" fill="#FF5555"/>
<path id="path474" d="M100 410C100 410 108 423.333 117.333 432.667C126.666 442 140 450 140 450C140 450 126.667 458 117.333 467.333C108 476.666 100 490 100 490C100 490 92 476.667 82.667 467.333C73.334 458 60 450 60 450C60 450 73.333 442 82.667 432.667C92 423.334 100 410 100 410Z" fill="#FF5555"/>
<path id="path476" d="M260 410C260 410 268 423.333 277.333 432.667C286.666 442 300 450 300 450C300 450 286.667 458 277.333 467.333C268 476.666 260 490 260 490C260 490 252 476.667 242.667 467.333C233.334 458 220 450 220 450C220 450 233.333 442 242.667 432.667C252 423.334 260 410 260 410Z" fill="#FF5555"/>
<path id="path478" d="M330 420C330 420 333 425 336.5 428.5C340 432 345 435 345 435C345 435 340 438 336.5 441.5C333 445 330 450 330 450C330 450 327 445 323.5 441.5C320 438 315 435 315 435C315 435 320 432 323.5 428.5C327 425 330 420 330 420Z" fill="#FF5555"/>
<path id="path480" d="M30 90C30 90 33 95 36.5 98.5C40 102 45 105 45 105C45 105 40 108 36.5 111.5C33 115 30 120 30 120C30 120 27 115 23.5 111.5C20 108 15 105 15 105C15 105 20 102 23.5 98.5C27 95 30 90 30 90Z" fill="#FF5555"/>
<path id="path482" d="M30 30C24.46 30 20 34.46 20 40V45C20 48 21.323 50.67 23.406 52.5C21.323 54.33 20 56.996 20 60V70C20 75.54 24.46 80 30 80C35.54 80 40 75.54 40 70V60C40 57 38.677 54.33 36.594 52.5C38.677 50.67 40 48.004 40 45V40C40 34.46 35.54 30 30 30ZM30 35C32.77 35 35 37.23 35 40V45C35 47.77 32.77 50 30 50C27.23 50 25 47.77 25 45V40C25 37.23 27.23 35 30 35ZM30 55C32.77 55 35 57.23 35 60V70C35 72.77 32.77 75 30 75C27.23 75 25 72.77 25 70V60C25 57.23 27.23 55 30 55Z" fill="#FF5555"/>
<path id="path484" d="M330 510C324.46 510 320 505.54 320 500V495C320 492 321.323 489.33 323.406 487.5C321.323 485.67 320 483.004 320 480V470C320 464.46 324.46 460 330 460C335.54 460 340 464.46 340 470V480C340 483 338.677 485.67 336.594 487.5C338.677 489.33 340 491.996 340 495V500C340 505.54 335.54 510 330 510ZM330 505C332.77 505 335 502.77 335 500V495C335 492.23 332.77 490 330 490C327.23 490 325 492.23 325 495V500C325 502.77 327.23 505 330 505ZM330 485C332.77 485 335 482.77 335 480V470C335 467.23 332.77 465 330 465C327.23 465 325 467.23 325 470V480C325 482.77 327.23 485 330 485Z" fill="#FF5555"/>
</g>
</g>
</svg>
