<svg width="360" height="540" viewBox="0 0 360 540" fill="none" xmlns="http://www.w3.org/2000/svg">
<g id="9D">
<path id="rect488" d="M329.556 0.5H30.444C13.9064 0.5 0.5 13.9064 0.5 30.444V509.556C0.5 526.094 13.9064 539.5 30.444 539.5H329.556C346.094 539.5 359.5 526.094 359.5 509.556V30.444C359.5 13.9064 346.094 0.5 329.556 0.5Z" fill="white" stroke="black"/>
<g id="g490">
<path id="path492" d="M100 50C100 50 108 63.333 117.333 72.667C126.666 82 140 90 140 90C140 90 126.667 98 117.333 107.333C108 116.666 100 130 100 130C100 130 92 116.667 82.667 107.333C73.334 98 60 90 60 90C60 90 73.333 82 82.667 72.667C92 63.334 100 50 100 50Z" fill="#FF5555"/>
<path id="path494" d="M260 50C260 50 268 63.333 277.333 72.667C286.666 82 300 90 300 90C300 90 286.667 98 277.333 107.333C268 116.666 260 130 260 130C260 130 252 116.667 242.667 107.333C233.334 98 220 90 220 90C220 90 233.333 82 242.667 72.667C252 63.334 260 50 260 50Z" fill="#FF5555"/>
<path id="path496" d="M180 230C180 230 188 243.333 197.333 252.667C206.666 262 220 270 220 270C220 270 206.667 278 197.333 287.333C188 296.666 180 310 180 310C180 310 172 296.667 162.667 287.333C153.334 278 140 270 140 270C140 270 153.333 262 162.667 252.667C172 243.334 180 230 180 230Z" fill="#FF5555"/>
<path id="path498" d="M100 170C100 170 108 183.333 117.333 192.667C126.666 202 140 210 140 210C140 210 126.667 218 117.333 227.333C108 236.666 100 250 100 250C100 250 92 236.667 82.667 227.333C73.334 218 60 210 60 210C60 210 73.333 202 82.667 192.667C92 183.334 100 170 100 170Z" fill="#FF5555"/>
<path id="path500" d="M260 170C260 170 268 183.333 277.333 192.667C286.666 202 300 210 300 210C300 210 286.667 218 277.333 227.333C268 236.666 260 250 260 250C260 250 252 236.667 242.667 227.333C233.334 218 220 210 220 210C220 210 233.333 202 242.667 192.667C252 183.334 260 170 260 170Z" fill="#FF5555"/>
<path id="path502" d="M100 290C100 290 108 303.333 117.333 312.667C126.666 322 140 330 140 330C140 330 126.667 338 117.333 347.333C108 356.666 100 370 100 370C100 370 92 356.667 82.667 347.333C73.334 338 60 330 60 330C60 330 73.333 322 82.667 312.667C92 303.334 100 290 100 290Z" fill="#FF5555"/>
<path id="path504" d="M260 290C260 290 268 303.333 277.333 312.667C286.666 322 300 330 300 330C300 330 286.667 338 277.333 347.333C268 356.666 260 370 260 370C260 370 252 356.667 242.667 347.333C233.334 338 220 330 220 330C220 330 233.333 322 242.667 312.667C252 303.334 260 290 260 290Z" fill="#FF5555"/>
<path id="path506" d="M100 410C100 410 108 423.333 117.333 432.667C126.666 442 140 450 140 450C140 450 126.667 458 117.333 467.333C108 476.666 100 490 100 490C100 490 92 476.667 82.667 467.333C73.334 458 60 450 60 450C60 450 73.333 442 82.667 432.667C92 423.334 100 410 100 410Z" fill="#FF5555"/>
<path id="path508" d="M260 410C260 410 268 423.333 277.333 432.667C286.666 442 300 450 300 450C300 450 286.667 458 277.333 467.333C268 476.666 260 490 260 490C260 490 252 476.667 242.667 467.333C233.334 458 220 450 220 450C220 450 233.333 442 242.667 432.667C252 423.334 260 410 260 410Z" fill="#FF5555"/>
<path id="path510" d="M330 420C330 420 333 425 336.5 428.5C340 432 345 435 345 435C345 435 340 438 336.5 441.5C333 445 330 450 330 450C330 450 327 445 323.5 441.5C320 438 315 435 315 435C315 435 320 432 323.5 428.5C327 425 330 420 330 420Z" fill="#FF5555"/>
<path id="path512" d="M30 90C30 90 33 95 36.5 98.5C40 102 45 105 45 105C45 105 40 108 36.5 111.5C33 115 30 120 30 120C30 120 27 115 23.5 111.5C20 108 15 105 15 105C15 105 20 102 23.5 98.5C27 95 30 90 30 90Z" fill="#FF5555"/>
<path id="path514" d="M30 80C35.54 80 40 75.54 40 70V50V40C40 34.46 35.54 30 30 30C24.46 30 20 34.46 20 40V50C20 55.54 24.46 60 30 60C31.823 60 33.532 59.501 35 58.656V70C35 72.77 32.77 75 30 75C27.23 75 25 72.77 25 70V69H20V70C20 75.54 24.46 80 30 80ZM30 55C27.23 55 25 52.77 25 50V40C25 37.23 27.23 35 30 35C32.77 35 35 37.23 35 40V50C35 52.77 32.77 55 30 55Z" fill="#FF5555"/>
<path id="path516" d="M330 460C324.46 460 320 464.46 320 470V490V500C320 505.54 324.46 510 330 510C335.54 510 340 505.54 340 500V490C340 484.46 335.54 480 330 480C328.177 480 326.468 480.499 325 481.344V470C325 467.23 327.23 465 330 465C332.77 465 335 467.23 335 470V471H340V470C340 464.46 335.54 460 330 460ZM330 485C332.77 485 335 487.23 335 490V500C335 502.77 332.77 505 330 505C327.23 505 325 502.77 325 500V490C325 487.23 327.23 485 330 485Z" fill="#FF5555"/>
</g>
</g>
</svg>
