<svg width="360" height="540" viewBox="0 0 360 540" fill="none" xmlns="http://www.w3.org/2000/svg">
<g id="9H">
<path id="rect14690" d="M329.556 0.5H30.4441C13.9065 0.5 0.5 13.9064 0.5 30.444V509.556C0.5 526.094 13.9065 539.5 30.4441 539.5H329.556C346.094 539.5 359.5 526.094 359.5 509.556V30.444C359.5 13.9064 346.094 0.5 329.556 0.5Z" fill="white" stroke="black"/>
<path id="path14694" d="M30 97.5C30 97.5 30.682 93.318 32 92C33.318 90.682 35.637 90 37.5 90C39.363 90 41.682 90.682 43 92C44.318 93.318 45 95.637 45 97.5C45 99.363 44 102 43 103C42 104 41 104.5 40 105.5C39 106.5 38.5 106.5 37.5 107.5C36.5 108.5 36 109 35 110C34 111 32.5 113 31.5 115C30.5 117 30 120 30 120C30 120 29.5 117 28.5 115C27.5 113 26 111 25 110C24 109 23.5 108.5 22.5 107.5C21.5 106.5 21 106.5 20 105.5C19 104.5 18 104 17 103C16 102 15 99.363 15 97.5C15 95.637 15.682 93.318 17 92C18.318 90.682 20.637 90 22.5 90C24.363 90 26.682 90.682 28 92C29.318 93.318 30 97.5 30 97.5Z" fill="#FF5555"/>
<path id="path14696" d="M330 442.5C330 442.5 330.682 446.682 332 448C333.318 449.318 335.637 450 337.5 450C339.363 450 341.682 449.318 343 448C344.318 446.682 345 444.363 345 442.5C345 440.637 344 438 343 437C342 436 341 435.5 340 434.5C339 433.5 338.5 433.5 337.5 432.5C336.5 431.5 336 431 335 430C334 429 332.5 427 331.5 425C330.5 423 330 420 330 420C330 420 329.5 423 328.5 425C327.5 427 326 429 325 430C324 431 323.5 431.5 322.5 432.5C321.5 433.5 321 433.5 320 434.5C319 435.5 318 436 317 437C316 438 315 440.637 315 442.5C315 444.363 315.682 446.682 317 448C318.318 449.318 320.637 450 322.5 450C324.363 450 326.682 449.318 328 448C329.318 446.682 330 442.5 330 442.5Z" fill="#FF5555"/>
<path id="path14698" d="M30 80C35.54 80 40 75.54 40 70V50V40C40 34.46 35.54 30 30 30C24.46 30 20 34.46 20 40V50C20 55.54 24.46 60 30 60C31.823 60 33.532 59.501 35 58.656V70C35 72.77 32.77 75 30 75C27.23 75 25 72.77 25 70V69H20V70C20 75.54 24.46 80 30 80ZM30 55C27.23 55 25 52.77 25 50V40C25 37.23 27.23 35 30 35C32.77 35 35 37.23 35 40V50C35 52.77 32.77 55 30 55Z" fill="#FF5555"/>
<path id="path14700" d="M330 460C324.46 460 320 464.46 320 470V490V500C320 505.54 324.46 510 330 510C335.54 510 340 505.54 340 500V490C340 484.46 335.54 480 330 480C328.177 480 326.468 480.499 325 481.344V470C325 467.23 327.23 465 330 465C332.77 465 335 467.23 335 470V471H340V470C340 464.46 335.54 460 330 460ZM330 485C332.77 485 335 487.23 335 490V500C335 502.77 332.77 505 330 505C327.23 505 325 502.77 325 500V490C325 487.23 327.23 485 330 485Z" fill="#FF5555"/>
<path id="path14702" d="M100 70C100 70 101.82 58.847 105.333 55.333C108.847 51.819 115.031 50 120 50C124.969 50 131.153 51.82 134.667 55.333C138.181 58.847 140 65.031 140 70C140 74.969 137.333 82 134.667 84.667C132 87.334 129.334 88.667 126.667 91.334C124 94.001 122.667 94.001 120 96.667C117.333 99.334 116 100.667 113.333 103.334C110.666 106.001 106.666 111.334 104 116.667C101.333 122 100 130 100 130C100 130 98.667 122 96 116.667C93.333 111.334 89.333 106 86.667 103.334C84 100.667 82.667 99.334 80 96.667C77.333 94 76 94 73.333 91.334C70.666 88.667 68 87.334 65.333 84.667C62.666 82 60 74.969 60 70C60 65.031 61.82 58.847 65.333 55.333C68.847 51.819 75.031 50 80 50C84.969 50 91.153 51.82 94.667 55.333C98.181 58.847 100 70 100 70Z" fill="#FF5555"/>
<path id="path14704" d="M260 70C260 70 261.82 58.847 265.333 55.333C268.847 51.819 275.031 50 280 50C284.969 50 291.153 51.82 294.667 55.333C298.181 58.847 300 65.031 300 70C300 74.969 297.333 82 294.667 84.667C292 87.334 289.334 88.667 286.667 91.334C284 94.001 282.667 94.001 280 96.667C277.333 99.334 276 100.667 273.333 103.334C270.666 106.001 266.666 111.334 264 116.667C261.333 122 260 130 260 130C260 130 258.667 122 256 116.667C253.333 111.334 249.333 106 246.667 103.334C244 100.667 242.667 99.334 240 96.667C237.333 94 236 94 233.333 91.334C230.666 88.667 228 87.334 225.333 84.667C222.666 82 220 74.969 220 70C220 65.031 221.82 58.847 225.333 55.333C228.847 51.819 235.031 50 240 50C244.969 50 251.153 51.82 254.667 55.333C258.181 58.847 260 70 260 70Z" fill="#FF5555"/>
<path id="path14706" d="M100 190C100 190 101.82 178.847 105.333 175.333C108.847 171.819 115.031 170 120 170C124.969 170 131.153 171.82 134.667 175.333C138.181 178.847 140 185.031 140 190C140 194.969 137.333 202 134.667 204.667C132 207.334 129.334 208.667 126.667 211.334C124 214.001 122.667 214.001 120 216.667C117.333 219.334 116 220.667 113.333 223.334C110.666 226.001 106.666 231.334 104 236.667C101.333 242 100 250 100 250C100 250 98.667 242 96 236.667C93.333 231.334 89.333 226 86.667 223.334C84 220.667 82.667 219.334 80 216.667C77.333 214 76 214 73.333 211.334C70.666 208.667 68 207.334 65.333 204.667C62.666 202 60 194.969 60 190C60 185.031 61.82 178.847 65.333 175.333C68.847 171.819 75.031 170 80 170C84.969 170 91.153 171.82 94.667 175.333C98.181 178.847 100 190 100 190Z" fill="#FF5555"/>
<path id="path14708" d="M260 190C260 190 261.82 178.847 265.333 175.333C268.847 171.819 275.031 170 280 170C284.969 170 291.153 171.82 294.667 175.333C298.181 178.847 300 185.031 300 190C300 194.969 297.333 202 294.667 204.667C292 207.334 289.334 208.667 286.667 211.334C284 214.001 282.667 214.001 280 216.667C277.333 219.334 276 220.667 273.333 223.334C270.666 226.001 266.666 231.334 264 236.667C261.333 242 260 250 260 250C260 250 258.667 242 256 236.667C253.333 231.334 249.333 226 246.667 223.334C244 220.667 242.667 219.334 240 216.667C237.333 214 236 214 233.333 211.334C230.666 208.667 228 207.334 225.333 204.667C222.666 202 220 194.969 220 190C220 185.031 221.82 178.847 225.333 175.333C228.847 171.819 235.031 170 240 170C244.969 170 251.153 171.82 254.667 175.333C258.181 178.847 260 190 260 190Z" fill="#FF5555"/>
<path id="path14710" d="M100 470C100 470 101.82 481.153 105.333 484.667C108.847 488.181 115.031 490 120 490C124.969 490 131.153 488.18 134.667 484.667C138.181 481.153 140 474.969 140 470C140 465.031 137.333 458 134.667 455.333C132 452.666 129.334 451.333 126.667 448.666C124 445.999 122.667 445.999 120 443.333C117.333 440.666 116 439.333 113.333 436.666C110.666 433.999 106.666 428.666 104 423.333C101.333 418 100 410 100 410C100 410 98.667 418 96 423.333C93.333 428.666 89.333 434 86.667 436.666C84 439.333 82.667 440.666 80 443.333C77.333 446 76 446 73.333 448.666C70.666 451.333 68 452.666 65.333 455.333C62.666 458 60 465.031 60 470C60 474.969 61.82 481.153 65.333 484.667C68.847 488.181 75.031 490 80 490C84.969 490 91.153 488.18 94.667 484.667C98.181 481.153 100 470 100 470Z" fill="#FF5555"/>
<path id="path14712" d="M260 470C260 470 261.82 481.153 265.333 484.667C268.847 488.181 275.031 490 280 490C284.969 490 291.153 488.18 294.667 484.667C298.181 481.153 300 474.969 300 470C300 465.031 297.333 458 294.667 455.333C292 452.666 289.334 451.333 286.667 448.666C284 445.999 282.667 445.999 280 443.333C277.333 440.666 276 439.333 273.333 436.666C270.666 433.999 266.666 428.666 264 423.333C261.333 418 260 410 260 410C260 410 258.667 418 256 423.333C253.333 428.666 249.333 434 246.667 436.666C244 439.333 242.667 440.666 240 443.333C237.333 446 236 446 233.333 448.666C230.666 451.333 228 452.666 225.333 455.333C222.666 458 220 465.031 220 470C220 474.969 221.82 481.153 225.333 484.667C228.847 488.181 235.031 490 240 490C244.969 490 251.153 488.18 254.667 484.667C258.181 481.153 260 470 260 470Z" fill="#FF5555"/>
<path id="path14714" d="M100 350C100 350 101.82 361.153 105.333 364.667C108.847 368.181 115.031 370 120 370C124.969 370 131.153 368.18 134.667 364.667C138.181 361.153 140 354.969 140 350C140 345.031 137.333 338 134.667 335.333C132 332.666 129.334 331.333 126.667 328.666C124 325.999 122.667 325.999 120 323.333C117.333 320.666 116 319.333 113.333 316.666C110.666 313.999 106.666 308.666 104 303.333C101.333 298 100 290 100 290C100 290 98.667 298 96 303.333C93.333 308.666 89.333 314 86.667 316.666C84 319.333 82.667 320.666 80 323.333C77.333 326 76 326 73.333 328.666C70.666 331.333 68 332.666 65.333 335.333C62.666 338 60 345.031 60 350C60 354.969 61.82 361.153 65.333 364.667C68.847 368.181 75.031 370 80 370C84.969 370 91.153 368.18 94.667 364.667C98.181 361.153 100 350 100 350Z" fill="#FF5555"/>
<path id="path14716" d="M260 350C260 350 261.82 361.153 265.333 364.667C268.847 368.181 275.031 370 280 370C284.969 370 291.153 368.18 294.667 364.667C298.181 361.153 300 354.969 300 350C300 345.031 297.333 338 294.667 335.333C292 332.666 289.334 331.333 286.667 328.666C284 325.999 282.667 325.999 280 323.333C277.333 320.666 276 319.333 273.333 316.666C270.666 313.999 266.666 308.666 264 303.333C261.333 298 260 290 260 290C260 290 258.667 298 256 303.333C253.333 308.666 249.333 314 246.667 316.666C244 319.333 242.667 320.666 240 323.333C237.333 326 236 326 233.333 328.666C230.666 331.333 228 332.666 225.333 335.333C222.666 338 220 345.031 220 350C220 354.969 221.82 361.153 225.333 364.667C228.847 368.181 235.031 370 240 370C244.969 370 251.153 368.18 254.667 364.667C258.181 361.153 260 350 260 350Z" fill="#FF5555"/>
<path id="path14718" d="M180 250C180 250 181.82 238.847 185.333 235.333C188.847 231.819 195.031 230 200 230C204.969 230 211.153 231.82 214.667 235.333C218.181 238.847 220 245.031 220 250C220 254.969 217.333 262 214.667 264.667C212 267.334 209.334 268.667 206.667 271.334C204 274.001 202.667 274.001 200 276.667C197.333 279.334 196 280.667 193.333 283.334C190.666 286.001 186.666 291.334 184 296.667C181.333 302 180 310 180 310C180 310 178.667 302 176 296.667C173.333 291.334 169.333 286 166.667 283.334C164 280.667 162.667 279.334 160 276.667C157.333 274 156 274 153.333 271.334C150.666 268.667 148 267.334 145.333 264.667C142.666 262 140 254.969 140 250C140 245.031 141.82 238.847 145.333 235.333C148.847 231.819 155.031 230 160 230C164.969 230 171.153 231.82 174.667 235.333C178.181 238.847 180 250 180 250Z" fill="#FF5555"/>
</g>
</svg>
