<svg width="360" height="540" viewBox="0 0 360 540" fill="none" xmlns="http://www.w3.org/2000/svg">
<g id="AC">
<path id="rect56" d="M329.556 0.5H30.444C13.9064 0.5 0.5 13.9064 0.5 30.444V509.556C0.5 526.094 13.9064 539.5 30.444 539.5H329.556C346.094 539.5 359.5 526.094 359.5 509.556V30.444C359.5 13.9064 346.094 0.5 329.556 0.5Z" fill="white" stroke="black"/>
<path id="path58" d="M180 230.01C176.001 229.929 173.333 231.343 170.667 234.01C168 236.677 166.667 239.343 166.667 243.343C166.667 247.343 168.185 249.715 170.667 252.676C173.042 255.509 174.667 256.676 176 259.342C177.333 262.009 178.667 267.342 178.667 270.008C178.667 272.675 178.667 272.406 178.667 274.008H176C173.333 274.008 168 271.341 166.667 270.008L162.667 266.008C160 263.341 157.334 262.008 153.334 262.008C149.334 262.008 146.667 263.341 144.001 266.008C141.334 268.675 140.001 271.341 140.001 275.341C140.001 279.341 141.334 282.007 144.001 284.674C146.668 287.341 149.334 288.674 153.334 288.674C157.334 288.674 160.001 287.341 162.667 284.674L166.667 280.674C168 279.341 173.334 276.674 176 276.674H178.667C178.601 280.45 178.321 287.044 177.334 290.007C176.001 294.007 173.334 298.007 170.667 300.673C168 303.34 160 308.673 160 308.673V310.006C160 310.006 173.333 307.339 176 307.339H184C186.667 307.339 200 310.006 200 310.006V308.673C200 308.673 192 303.34 189.333 300.673C186.666 298.006 184 294.007 182.666 290.007C181.678 287.044 181.399 280.45 181.333 276.674H184C186.667 276.674 192 279.341 193.333 280.674L197.333 284.674C200 287.341 202.666 288.674 206.666 288.674C210.666 288.674 213.333 287.341 215.999 284.674C218.666 282.007 219.999 279.341 219.999 275.341C219.999 271.341 218.666 268.675 215.999 266.008C213.332 263.341 210.666 262.008 206.666 262.008C202.666 262.008 199.999 263.341 197.333 266.008L193.333 270.008C192 271.341 186.666 274.008 184 274.008H181.333C181.333 272.153 181.333 272.675 181.333 270.008C181.333 267.341 182.666 262.008 184 259.342C185.333 256.675 186.667 255.342 189.333 252.676C191.986 250.023 193.333 247.343 193.333 243.343C193.333 239.343 192 236.677 189.333 234.01C186.666 231.343 184 230.01 180 230.01Z" fill="black"/>
<path id="path60" d="M30 90C28.5 89.969 27.5 90.5 26.5 91.5C25.5 92.5 25 93.5 25 95C25 96.5 25.569 97.39 26.5 98.5C27.391 99.563 28 100 28.5 101C29 102 29.5 104 29.5 105C29.5 106 29.5 105.899 29.5 106.5H28.5C27.5 106.5 25.5 105.5 25 105L23.5 103.5C22.5 102.5 21.5 102 20 102C18.5 102 17.5 102.5 16.5 103.5C15.5 104.5 15 105.5 15 107C15 108.5 15.5 109.5 16.5 110.5C17.5 111.5 18.5 112 20 112C21.5 112 22.5 111.5 23.5 110.5L25 109C25.5 108.5 27.5 107.5 28.5 107.5H29.5C29.475 108.916 29.37 111.389 29 112.5C28.5 114 27.5 115.5 26.5 116.5C25.5 117.5 22.5 119.5 22.5 119.5V120C22.5 120 27.5 119 28.5 119H31.5C32.5 119 37.5 120 37.5 120V119.5C37.5 119.5 34.5 117.5 33.5 116.5C32.5 115.5 31.5 114 31 112.5C30.63 111.389 30.525 108.916 30.5 107.5H31.5C32.5 107.5 34.5 108.5 35 109L36.5 110.5C37.5 111.5 38.5 112 40 112C41.5 112 42.5 111.5 43.5 110.5C44.5 109.5 45 108.5 45 107C45 105.5 44.5 104.5 43.5 103.5C42.5 102.5 41.5 102 40 102C38.5 102 37.5 102.5 36.5 103.5L35 105C34.5 105.5 32.5 106.5 31.5 106.5H30.5C30.5 105.804 30.5 106 30.5 105C30.5 104 31 102 31.5 101C32 100 32.5 99.5 33.5 98.5C34.495 97.505 35 96.5 35 95C35 93.5 34.5 92.5 33.5 91.5C32.5 90.5 31.5 90 30 90Z" fill="black"/>
<path id="path62" d="M330 450C331.5 450.031 332.5 449.5 333.5 448.5C334.5 447.5 335 446.5 335 445C335 443.5 334.431 442.61 333.5 441.5C332.609 440.437 332 440 331.5 439C331 438 330.5 436 330.5 435C330.5 434 330.5 434.101 330.5 433.5H331.5C332.5 433.5 334.5 434.5 335 435L336.5 436.5C337.5 437.5 338.5 438 340 438C341.5 438 342.5 437.5 343.5 436.5C344.5 435.5 345 434.5 345 433C345 431.5 344.5 430.5 343.5 429.5C342.5 428.5 341.5 428 340 428C338.5 428 337.5 428.5 336.5 429.5L335 431C334.5 431.5 332.5 432.5 331.5 432.5H330.5C330.525 431.084 330.63 428.611 331 427.5C331.5 426 332.5 424.5 333.5 423.5C334.5 422.5 337.5 420.5 337.5 420.5V420C337.5 420 332.5 421 331.5 421H328.5C327.5 421 322.5 420 322.5 420V420.5C322.5 420.5 325.5 422.5 326.5 423.5C327.5 424.5 328.5 426 329 427.5C329.37 428.611 329.475 431.084 329.5 432.5H328.5C327.5 432.5 325.5 431.5 325 431L323.5 429.5C322.5 428.5 321.5 428 320 428C318.5 428 317.5 428.5 316.5 429.5C315.5 430.5 315 431.5 315 433C315 434.5 315.5 435.5 316.5 436.5C317.5 437.5 318.5 438 320 438C321.5 438 322.5 437.5 323.5 436.5L325 435C325.5 434.5 327.5 433.5 328.5 433.5H329.5C329.5 434.196 329.5 434 329.5 435C329.5 436 329 438 328.5 439C328 440 327.5 440.5 326.5 441.5C325.505 442.495 325 443.5 325 445C325 446.5 325.5 447.5 326.5 448.5C327.5 449.5 328.5 450 330 450Z" fill="black"/>
<path id="path64" d="M20 30V35H27.6V80H32.6V35H40V30H32.6H27.6H20Z" fill="black"/>
<path id="path66" d="M320 510V505H327.6V460H332.6V505H340V510H332.6H327.6H320Z" fill="black"/>
</g>
</svg>
