<svg width="360" height="540" viewBox="0 0 360 540" fill="none" xmlns="http://www.w3.org/2000/svg">
<g id="AD">
<path id="rect6472" d="M329.556 0.5H30.4444C13.9066 0.5 0.5 13.9066 0.5 30.4445V509.556C0.5 526.093 13.9066 539.5 30.4444 539.5H329.556C346.093 539.5 359.5 526.093 359.5 509.556V30.4445C359.5 13.9066 346.093 0.5 329.556 0.5Z" fill="white" stroke="black"/>
<g id="g9607">
<path id="path8973" d="M254.976 487.184C247.481 484.409 238.516 480.436 233.174 477.204C234.279 481.167 234.769 481.574 235.564 484.645C233.378 483.307 227.951 481.781 224.104 480.463C222.161 479.798 222.791 480.001 218.236 478.583C220.628 484.053 222.081 489.243 223.112 492.519C219.153 490.658 209.275 486.642 205.289 484.834C201.303 483.026 196.264 480.867 192.202 479.221C192.944 481.548 193.213 482.216 193.679 483.726C194.12 485.155 194.747 487.411 194.927 488.035C194.448 487.924 191.876 487.136 190.31 486.892C186.239 486.257 182.547 485.617 177.976 486.072C173.406 486.526 168.86 487.603 164.51 488.841C164.784 485.383 167.082 482.362 167.43 479.118C162.38 480.678 152.896 484.263 148.039 486.352C143.182 488.441 138.468 490.829 133.989 493.587C134.699 490.771 136.042 488.213 137.577 485.74C139.112 483.268 140.838 480.88 142.313 478.406C138.521 478.797 135.246 479.699 131.86 480.861C128.367 482.059 124.11 484.234 121.788 485.481C122.313 483.556 122.032 483.027 123.223 479.447C120.423 480.458 121.065 480.052 117.486 481.982C113.906 483.911 110.73 485.514 107.189 486.9C102.474 488.745 97.6005 490.216 92.6814 491.394C87.7624 492.573 80.2213 494.052 75.0953 493.992C77.1641 489.422 76.9721 487.107 77.6302 484.599C73.5676 486.481 68.6684 489.113 64.4919 490.764C60.3154 492.416 55.3855 493.722 50.8397 494.222C51.3337 491.064 51.6845 488.584 52.4629 485.85C53.3079 482.883 55.4128 479.909 55.7521 477.2C54.9584 477.036 54.3017 476.953 53.3678 477.04C52.4339 477.128 51.2229 477.386 49.3207 477.906C49.702 476.195 50.5563 473.904 51.5578 471.479C52.5594 469.054 53.7082 466.496 54.6785 464.253C55.2634 462.9 55.9001 461.794 56.5454 460.58C57.1906 459.366 57.8444 458.045 58.4636 456.263C56.3864 456.315 55.2867 456.133 54.2036 456.052C53.1206 455.971 52.0543 455.99 50.0441 456.443C51.0712 455.067 52.3003 453.33 53.5767 451.501C54.8532 449.671 56.177 447.749 57.3939 446.004C57.9955 445.141 59.893 443.158 61.9054 441.144C63.9178 439.13 66.045 437.083 67.1059 436.092C67.3811 435.835 66.6774 435.654 65.6164 435.473C64.5554 435.292 63.1371 435.111 61.9829 434.854C61.9829 434.854 62.6625 433.877 63.4649 432.629C65.7158 428.181 69.4164 424.374 72.7226 421.49C75.3076 419.242 77.9947 417.073 80.3741 414.668C78.8917 414.185 76.1902 413.705 74.9535 413.489C75.9566 412.118 77.159 410.359 78.4328 408.936C79.9146 407.281 81.0323 406.4 83.2492 404.332C85.4661 402.264 90.6382 399.998 89.2912 397.18C88.4909 395.506 85.7955 395.726 83.7399 397.326C81.6843 398.927 80.0987 400.603 78.5596 402.497C77.3099 404.034 75.9374 405.583 75.308 407.475C73.4112 406.376 73.7059 406.073 72.3818 405.714C70.8858 408.329 70.0778 414.37 68.8584 418.679C68.3965 420.312 68.0226 421.734 67.4216 423.562C66.5223 422.923 64.9194 422.893 62.9558 421.639C61.1818 425.064 60.2269 428.867 59.0391 432.556C57.8512 436.245 56.4305 439.819 53.7248 442.786C51.4802 439.453 50.4967 435.509 49.9974 431.441C49.498 427.373 49.4827 423.181 49.1747 419.352C47.8339 419.881 47.2159 420.247 46.7203 420.574C46.2246 420.902 45.8513 421.19 45 421.561C45.0221 420.75 45.3742 419.059 45.7397 417.387C46.1051 415.715 46.5414 414.204 47.0817 412.657C47.6479 411.035 47.8869 410.179 49.0665 407.902C50.2462 405.625 51.4967 403.288 51.9986 402.12C50.8845 401.915 50.6376 401.915 50.362 401.923C50.0863 401.93 49.7819 401.945 48.5527 401.771C49.2941 399.407 50.7646 396.97 52.5855 394.678C54.4064 392.385 56.5777 390.236 58.7207 388.447C61.502 386.125 64.6389 384.284 67.9307 382.709C71.2226 381.135 74.6694 379.826 78.0704 378.57C75.6738 376.972 75.9385 376.151 73.3004 374.426C74.6884 373.449 77.1998 372.466 80.4895 371.291C77.9443 369.755 76.986 368.784 71.4688 365.802C65.7668 362.72 58.1122 360.816 56.4184 360.055C57.6096 359.533 59.2801 358.655 60.9484 357.614C62.6166 356.574 64.2825 355.37 65.4645 354.195C63.0681 352.317 60.001 350.522 56.7404 348.763C53.4797 347.004 50.0255 345.281 46.855 343.548C52.2555 340.922 58.5275 339.019 64.9352 338.054C71.3429 337.09 77.8864 337.065 83.8299 338.194C82.8155 336.492 82.3447 335.79 81.9993 335.102C81.6539 334.413 81.4337 333.739 80.9205 332.091C82.6439 332.561 84.7145 332.93 86.8095 333.428C88.9046 333.926 91.0241 334.551 92.8453 335.534C97.7353 338.174 102.4 340.992 106.676 344.455C110.953 347.918 114.84 352.026 118.176 357.244C119.661 353.591 120.44 351.937 122.656 349.453C124.215 352.223 127.022 356.894 128.205 359.824C129.388 362.753 130.438 365.736 131.464 368.717C135.16 367.289 136.957 365.823 137.702 364.187C138.447 362.551 138.138 360.745 137.62 358.635C140.893 359.361 143.457 360.51 146.029 361.368C148.601 362.226 151.394 362.84 154.041 362.354C156.378 361.924 157.958 360.905 160.348 359.025C159.204 358.354 156.581 357.613 154.031 356.888C151.481 356.163 151.24 356.052 148.149 354.845C150.6 352.436 153.098 351.414 155.782 350.405C157.9 349.603 160.327 349.026 162.676 348.606C165.025 348.186 167.297 347.923 169.103 347.751C170.749 344.821 172.233 341.729 173.987 339.093C175.742 336.457 177.766 334.278 180.493 333.174C183.162 334.063 185.209 336.405 186.862 339.108C188.516 341.811 189.776 344.875 190.875 347.21C193.653 347.859 197.629 348.377 201.458 349.216C205.286 350.054 208.966 351.213 211.153 353.143C209.133 354.558 207.195 355.426 205.067 356.228C202.298 357.271 199.283 357.677 196.472 358.437C197.443 359.048 200.536 361.434 202.935 361.735C206.445 362.177 210.333 360.659 213.289 359.397C216.245 358.136 217.634 357.406 220.498 357.101C218.749 360.01 217.006 361.481 217.965 363.154C219.086 365.109 222.042 366.018 224.052 366.622C223.577 364.389 223.152 363.58 223.465 361.859C223.779 360.139 224.002 358.487 224.555 356.882C225.258 354.843 226.157 353.193 227.358 351.054C228.558 348.916 229.949 346.866 231.303 345.758C232.508 347.647 233.226 349.023 233.883 350.472C234.541 351.921 235.138 353.444 236.101 355.627C237.931 351.289 240.371 347.569 243.216 344.417C246.062 341.264 249.314 338.68 252.766 336.612C256.219 334.544 259.872 332.993 263.522 331.908C267.172 330.823 270.818 330.204 274.255 330C273.853 330.762 273.606 331.467 273.428 332.225C273.251 332.983 273.143 333.795 273.021 334.772C273.742 335.023 276.041 334.785 278.723 334.577C281.406 334.369 284.472 334.192 286.725 334.567C290.224 335.148 293.778 335.928 297.185 337.071C300.592 338.214 303.852 339.719 306.762 341.753C308.196 342.754 309.522 343.869 310.669 345.184C311.815 346.498 312.781 348.012 313.492 349.812C311.744 349.975 309.452 350.395 307.043 350.954C304.634 351.513 302.11 352.21 299.899 352.927C298.951 353.235 298.03 353.581 297.119 353.97C296.208 354.359 295.306 354.79 294.398 355.267C295.019 355.939 295.662 356.661 296.315 357.393C296.967 358.124 297.629 358.865 298.287 359.574C298.873 360.205 299.592 360.843 300.251 361.472C300.91 362.1 301.509 362.72 301.857 363.315C300.579 363.97 298.402 364.579 296.003 365.188C293.605 365.797 290.985 366.406 288.822 367.062C286.552 367.751 284.684 367.962 282.623 368.437C280.562 368.912 278.307 369.65 275.264 371.39C277.326 372.286 279.107 373.141 280.835 374.651C279.677 375.895 278.464 377.169 277.326 378.186C281.88 379.818 286.1 380.898 288.997 382.071C291.893 383.244 294.353 384.509 297.166 386.51C299.971 388.506 303.048 391.111 305.642 393.809C308.237 396.506 310.35 399.296 311.226 401.66C309.904 401.678 308.61 401.934 307.61 402.415C309.365 405.92 310.665 408.05 311.544 411.107C312.562 414.646 313.173 420.005 313.03 422.055C310.317 420.396 310.022 420.804 308.077 420.321C308.175 423.248 308.225 425.542 308.11 428.149C307.988 430.933 307.795 433.498 307.339 436.475C306.882 439.452 306.086 442.359 304.818 445.062C301.785 441.423 299.977 437.134 298.58 432.665C297.183 428.196 296.196 423.547 294.806 419.188C293.817 419.911 292.978 421.016 292.311 421.567C291.744 420.809 290.764 419.014 289.839 417.107C288.913 415.201 288.042 413.183 287.693 411.981C287.343 410.779 286.944 408.977 286.561 407.3C286.177 405.623 285.678 402.757 285.39 402.052C284.787 403.048 284.332 404.465 283.931 405.407C283.315 404.004 282.191 401.774 280.68 399.601C279.169 397.428 277.464 395.234 275.105 394.134C273.742 393.498 271.745 392.82 270.615 393.696C269.486 394.573 269.656 396.622 270.028 398.032C270.634 400.333 272.354 402.11 274.349 403.713C276.344 405.317 279.783 409.164 281.059 411.19C279.955 412.089 278.818 412.267 277.15 413.003C279.249 414.995 280.464 415.809 282.071 417.268C284.633 419.595 287.117 422.017 289.593 424.425C292.069 426.833 295.487 430.832 296.86 434.031C294.862 435.061 292.785 434.344 290.956 435.165C293.264 437.524 299.178 442.624 302.616 446.951C303.947 448.626 305.098 450.898 306.042 452.381C304.858 452.918 301.511 452.489 300.744 452.959C302.482 456.379 304.047 459.853 305.298 463.42C306.549 466.986 307.485 470.647 307.965 474.44C306.165 474.875 304.253 474.301 303.214 474.519C305.045 481.559 306.304 486.665 307.49 493.513C299.469 490.944 296.362 489.792 290.891 487.681C286.64 486.041 282.061 483.597 278.295 482.378C279.08 486.774 280.357 491.056 282.166 495C268.483 490.66 263.82 490.459 254.976 487.184Z" fill="#FF5555"/>
<path id="path8971" d="M276.627 490.487C276.535 487.975 272.982 477.681 272.712 474.797C278.211 476.915 284.786 480.804 291.064 483.237C294.705 484.648 298.075 486.167 302.225 486.792C302.03 483.405 301.115 480.249 299.837 477.212C298.56 474.175 296.922 471.257 295.282 468.346C299.928 469.494 299.254 469.34 304.13 469.922C302.815 466.955 300.953 460.305 299.546 457.389C298.139 454.473 296.469 451.702 294.103 449.316C295.553 448.315 298.526 449.157 299.698 448.996C299.452 447.18 297.99 445.892 296.852 444.55C294.884 442.229 292.595 440.265 290.071 438.438C287.547 436.611 285.139 434.788 283.984 432.353C287.469 432.223 288.731 432.163 292.068 431.728C290.203 428.422 287.041 425.809 284.258 423.109C282.232 421.142 280.135 419.243 277.813 417.611C275.49 415.98 273.108 414.414 271.015 412.507C274.539 411.456 274.074 410.92 276.511 410.001C274.824 408.004 269.402 403.29 268.211 401.239C266.693 399.39 265.557 397.123 265.431 395.004C265.305 392.886 266.757 390.402 268.71 389.666C271.418 388.645 274.698 390.42 277.006 392.226C279.314 394.032 281.283 396.457 283.265 398.501C284.589 397.056 285.032 396.501 285.732 395.117C286.498 396.359 287.96 401.196 288.43 404.289C289.065 408.482 291.513 413.677 292.772 416.246C293.899 415.532 295.729 413.504 296.866 413.092C297.119 416.998 298.139 422.594 299.162 426.163C300.186 429.732 302.319 434.705 303.435 438.186C305.278 432.829 304.852 428.433 304.969 423.518C305.035 420.714 304.554 417.171 304.492 415.117C307.271 415.941 307.68 415.468 309.665 415.987C308.925 413 308.594 412.077 307.557 409.86C305.485 405.427 301.761 400.103 300.711 398.188C302.241 397.996 302.883 398.043 303.424 398.062C303.965 398.081 304.405 398.073 305.533 397.77C302.669 394.862 298.776 391.84 294.472 389.093C290.167 386.345 285.451 383.872 280.939 382.062C278.693 381.161 276.319 380.693 273.913 380.334C271.507 379.975 269.069 379.724 266.695 379.256C268.171 378.178 269.209 377.366 269.888 376.707C270.567 376.047 271.588 375.119 272.327 374.464C271.514 373.798 269.679 372.951 268.243 372.32C266.808 371.69 264.789 370.576 263.563 369.846C264.686 369.236 266.914 368.396 269.433 367.552C271.953 366.707 274.764 365.858 277.056 365.231C279.821 364.474 282.041 363.977 284.564 363.48C287.088 362.983 289.914 362.486 293.891 361.731C292.998 360.479 291.498 359.25 289.881 358.026C288.264 356.802 286.531 355.583 285.172 354.348C287.347 352.772 291.003 351.883 294.903 351.068C298.804 350.252 302.948 349.51 306.1 348.226C305.039 346.582 302.883 344.748 300.336 343.116C297.79 341.484 294.852 340.054 292.225 339.223C289.292 338.294 286.198 338.025 283.079 338.036C279.96 338.047 276.817 338.338 273.785 338.529C272.475 338.539 271.052 338.938 269.564 339.381C268.076 339.824 266.522 340.31 264.952 340.496C266.048 338.783 266.412 337.755 266.612 336.888C266.813 336.02 266.849 335.313 267.291 334.241C266.047 334.498 264.002 334.944 261.833 335.597C259.664 336.25 257.371 337.111 255.628 338.197C252.54 340.121 249.612 342.439 246.992 345.051C244.373 347.663 242.063 350.569 240.214 353.671C238.541 355.949 237.794 358.468 237.409 361.08C237.024 363.693 237.001 366.399 236.778 369.054C235.935 366.176 235.045 363.311 234.135 360.451C233.226 357.592 232.296 354.738 231.372 351.884C229.677 353.926 228.6 355.76 227.862 357.524C226.312 361.406 226.307 366.281 226.317 369.084C224.871 369.314 222.106 367.585 220.056 366.697C218.671 366.096 216.935 365.888 215.985 364.713C215.261 363.818 214.306 362.896 215.152 361.36C211.602 362.707 208.308 363.559 205.081 363.562C201.854 363.565 198.435 362.153 195.412 360.675C193.731 359.853 191.898 358.549 190.839 357.415C191.517 357.498 194.605 356.751 197.823 355.879C201.041 355.008 204.389 354.013 205.587 353.602C204.304 352.247 202.862 351.933 201.382 351.356C199.325 350.553 197.088 349.851 194.972 349.695C192.855 349.539 190.804 349.591 188.95 349.283C188.493 346.874 187.233 343.715 185.664 340.959C184.096 338.203 182.218 335.849 180.526 335.049C178.359 336.046 176.663 338.369 175.131 341.062C173.6 343.756 172.233 346.82 170.726 349.3C167.762 350.172 164.488 350.557 161.268 351.115C158.049 351.673 154.885 352.405 152.138 353.973C153.946 355.136 156.856 355.705 159.55 356.246C162.245 356.786 164.723 357.297 165.666 358.342C162.786 359.886 159.758 361.939 156.578 363.331C153.398 364.722 150.738 364.766 147.773 364.652C145.667 364.57 144.021 363.727 141.61 363.235C141.551 365.07 140.696 365.765 139.826 366.748C138.393 368.369 136.951 368.942 134.444 370.368C131.938 371.794 131.747 372.362 129.832 373.325C129.376 370.808 127.346 364.181 126.228 361.76C125.11 359.34 123.711 357.089 122.134 355.25C121.385 358.238 120.926 361.252 120.685 364.284C120.444 367.316 120.422 370.367 120.547 373.43L118.587 372.424C118.676 365.318 115.583 358.837 111.366 353.367C107.149 347.896 101.807 343.437 97.3976 340.373C96.4385 339.566 95.0915 338.866 93.5123 338.258C91.9332 337.649 90.1219 337.132 88.2344 336.691C88.3528 337.091 89.0774 338.271 89.8403 339.583C90.6033 340.896 91.4048 342.34 91.677 343.268C90.3118 342.86 87.7431 342.073 85.2608 341.397C82.7785 340.722 80.3826 340.159 79.3632 340.199C75.82 340.25 73.3636 340.157 71.1897 340.147C69.0159 340.137 67.1248 340.21 64.7122 340.594C62.8513 340.889 61.0304 341.137 59.2302 341.589C57.4299 342.041 55.6501 342.697 53.8714 343.809C56.6329 345.057 60.2322 346.973 63.8314 348.889C67.4307 350.805 71.0299 352.722 73.7915 353.969C73.0351 354.944 71.4735 355.806 69.7828 356.642C68.0921 357.479 66.2723 358.291 64.9994 359.165C68.8301 361.679 75.2167 363.421 80.1989 365.825C84.5759 367.937 90.2711 370.339 93.0901 372.638C90.4583 373.348 85.9167 374.874 84.1887 375.534C85.5921 376.792 87.1825 378.05 88.5989 378.704C86.4064 379.635 85.3876 379.655 83.7543 380.018C82.0336 380.401 80.2414 380.446 78.5449 380.925C76.0912 381.618 73.7478 382.675 71.4351 383.75C69.1322 384.821 66.8452 385.961 64.7197 387.352C62.458 388.832 60.2562 390.453 58.3468 392.366C56.4282 394.289 54.3689 396.757 53.3215 398.78C54.6043 398.701 54.9325 398.766 56.1664 398.861C55.2381 400.526 53.9056 403.213 52.8139 405.408C51.9963 407.052 51.0631 408.65 50.4192 410.369C49.8478 411.896 49.2996 413.319 49.1304 415.086C51.4841 413.89 50.7756 414.417 52.3306 413.614C52.3198 415.354 51.9007 419.276 51.8136 422.113C51.7345 424.688 51.6647 427.296 51.8087 429.841C51.9527 432.385 52.4871 434.845 54.1459 437.061C55.9154 433.737 56.8401 430.148 57.6863 426.534C58.5325 422.919 59.3002 419.279 60.7558 415.851C62.8127 417.45 64.0036 417.961 66.2385 419.257C66.9077 416.29 67.5005 411.589 68.74 407.925C69.6105 405.352 71.195 402.525 72.1753 400.537C73.3047 400.569 74.5793 401.541 75.885 401.782C77.8926 399.85 79.8462 397.388 82.1139 395.536C84.3816 393.685 87.6408 391.788 90.2275 392.957C91.8389 393.685 92.5512 396.055 92.3756 397.819C92.1943 399.642 90.4681 400.976 89.2101 402.304C87.8192 403.772 86.5359 404.382 84.4509 406.061C82.3658 407.741 81.8616 408.67 80.0804 410.402C84.4939 411.162 84.4983 412.12 86.6777 412.694C84.5328 414.389 80.5513 417.829 77.5458 420.463C75.6333 422.14 73.4798 423.598 71.8829 425.578C70.3099 427.528 69.0728 429.815 68.14 432.098L73.3622 433.633C73.1748 434.095 66.3011 439.548 62.5395 443.689C60.1019 446.389 57.7536 450.004 55.5208 452.891C57.1456 453.02 58.2336 452.934 59.5875 452.866C61.1138 452.79 62.4413 452.436 64.1519 452.437C63.4754 454.681 62.2525 457.047 61.127 459.268C59.894 461.701 58.2876 463.931 57.0529 466.363C56.1021 468.236 55.0582 470.682 54.4929 472.121C57.0463 472.915 59.1312 471.922 62.9005 471.71C62.0704 474.102 59.7701 478.625 58.9506 480.861C57.6279 483.192 56.4145 487.203 56.6525 488.673C62.9866 486.932 69.5455 484.295 75.7719 480.433C80.0704 477.76 82.7342 476.131 87.425 474.153C86.6934 477.001 85.5906 478.977 84.8473 481.446C84.0747 484.012 83.7373 485.884 82.8963 489.246C87.5369 489.415 92.0699 488.563 96.523 487.313C100.976 486.064 105.427 484.807 109.671 482.999C112.61 481.746 115.416 480.131 118.137 478.5C120.859 476.869 123.275 474.786 125.475 472.526C127.596 470.346 129.306 467.793 131.044 465.297C132.377 463.383 132.691 462.667 134.76 459.371L135.494 459.282C133.828 462.716 132.886 465.935 131.686 469.492C130.677 472.449 129.564 474.527 128.915 477.571C131.54 477.245 134.26 476.074 139.077 474.628C143.894 473.183 148.035 473.099 151.239 472.83C149.434 474.726 146.743 481.557 146.424 483.22C148.425 481.921 151.188 480.945 153.628 479.942C156.727 478.666 159.523 477.804 163.059 476.46C166.594 475.115 171.528 474.008 175.265 473.796C174.144 475.522 173.825 476.74 173.29 478.285C172.92 479.353 172.725 480.289 172.443 481.568C173.162 481.353 175.147 480.585 176.556 480.33C177.573 480.145 178.617 480.156 179.651 480.125C180.846 480.088 182.045 480.049 183.237 480.144C184.337 480.233 185.387 480.396 186.509 480.655C186.054 479.295 185.368 477.843 184.886 476.405C184.572 475.47 184.269 474.889 184.062 473.563C184.653 473.561 186.424 473.722 187.582 473.951C189.845 474.399 193.173 475.677 194.234 475.867C197.637 477.037 200.966 478.379 204.267 479.786C207.569 481.193 212.994 483.561 216.285 484.987C215.612 482.938 214.647 481.522 213.686 480.052C212.726 478.582 211.411 474.904 211.116 473.536C222.588 475.535 223.733 476.764 229.424 478.713C227.205 471.039 223.905 462.727 221.394 456.454L222.651 456.978C223.86 459.483 225.804 462.74 227.468 464.91C229.132 467.08 231.179 469.031 233.297 470.806C237.305 474.164 241.627 477.194 246.21 479.708C250.878 482.27 255.905 484.148 260.922 485.929C266.059 487.754 269.497 488.486 276.627 490.487Z" fill="white"/>
<path id="path8969" d="M259.175 477.253C256.567 475.044 256.151 474.598 251.626 470.313L252.84 469.719C252.84 469.719 259.295 475.064 262.468 477.801C265.796 480.674 272.335 486.554 272.335 486.554L271.971 487.227C267.658 484.13 263.302 480.748 259.175 477.253Z" fill="#FF5555"/>
<path id="path8967" d="M60.7917 484.179C61.4535 482.599 62.3747 481.137 63.2268 479.649C64.7852 476.929 66.319 474.183 68.1202 471.618C68.9088 470.495 69.9586 469.2 70.6994 468.41L71.6591 469.042C69.6889 472.72 67.2118 476.562 64.7464 480.163C63.7051 481.683 62.0915 483.366 61.4244 484.582L60.7917 484.179Z" fill="#FF5555"/>
<path id="path8965" d="M89.4632 482.086C91.13 480.556 92.7582 479.782 94.5693 478.418C98.1308 475.826 101.738 473.292 105.359 470.777C105.699 471.095 106.039 471.413 106.379 471.731C105.325 472.874 102.85 474.58 100.998 475.886C98.0123 477.991 95.6383 479.73 91.7757 481.808C90.7652 482.325 89.731 482.798 88.7109 483.298C88.87 483.057 89.3041 482.327 89.4632 482.086Z" fill="#FF5555"/>
<path id="path8963" d="M296.896 481.72C295.333 479.45 292.809 476.542 290.665 474.037C289.452 472.621 286.916 469.886 286.916 469.886C287.191 469.629 287.466 469.371 287.741 469.114C287.741 469.114 290.044 471.312 291.078 472.519C293.721 475.603 296.86 479.717 298.373 482.278L296.896 481.72Z" fill="#FF5555"/>
<path id="path8961" d="M88.2905 415.179C89.8425 411.239 91.6135 407.236 94.2879 403.936C97.6659 399.768 101.838 396.684 106.612 393.583C106.897 397.408 106.367 401.378 106.162 404.978C105.95 408.709 106.196 412.452 106.213 416.189C108.34 413.968 110.467 411.748 112.594 409.528C114.203 411.139 115.929 412.661 117.206 414.517C118.92 417.009 120.263 419.758 121.195 422.621C122.366 426.216 122.576 430.588 123.138 433.797C122.107 433.688 121.821 433.689 120.718 433.631C124.354 441.754 127.91 450.814 129.252 459.619C126.402 459.438 123.867 457.877 121.211 456.952C119.344 463.339 119.669 464.405 117.742 470.815C116.598 473.192 115.455 475.57 114.312 477.947C113.193 475.297 111.248 472.379 109.792 469.555C107.656 465.411 105.882 462.499 103.609 457.008C101.867 457.446 101.67 457.588 100.766 458.021C99.691 458.537 98.6567 459.095 97.7325 459.892C96.8142 458.322 96.6065 457.342 96.2247 456.01C95.1702 452.331 94.4914 448.544 94.087 444.748C93.7664 441.739 93.7936 438.699 93.8641 435.675C93.9084 433.777 94.1341 431.888 94.2692 429.994C91.5318 429.892 88.7507 430.115 85.4436 430.029C85.8958 424.295 86.5591 419.573 88.2905 415.179Z" fill="#FF5555"/>
<path id="path8959" d="M103.975 399.018C101.32 400.419 100.139 401.928 98.549 403.693C95.8343 406.706 93.3053 409.966 91.6522 413.649C89.747 417.894 88.7205 422.471 88.3628 427.214C90.8322 427.023 95.4089 426.441 97.3998 426.146C97.0452 427.468 96.2557 429.841 96.0208 431.746C95.6292 434.92 95.7242 438.149 95.985 441.336C96.3773 446.131 97.1702 450.907 98.385 455.579C100.865 453.901 101.925 453.148 104.515 452.212C106.852 458.747 108.545 461.594 110.516 465.381L114.352 472.461C115.549 469.537 115.993 467.58 116.588 465.079C117.527 461.123 117.646 457.902 118.68 453.061C120.974 453.536 123.689 455.002 125.859 455.844C126.072 454.847 125.565 453.641 125.264 452.576C123.564 446.553 120.671 440.932 118.473 435.076C117.757 433.168 117.126 431.865 116.39 429.331C117.834 429.815 118.824 429.902 120.041 430.188C119.613 427.68 119.77 425.015 118.863 422.634C117.625 419.381 115.407 416.39 113.204 413.864C111.866 415.014 110.483 416.108 109.049 417.132C107.278 418.397 106.787 419.271 103.565 420.675C103.303 413.093 103.606 406.053 103.975 399.018Z" fill="white"/>
<path id="path8957" d="M105.737 446.096C103.944 443.288 101.931 440.473 101.087 437.279C100.666 435.688 100.703 433.982 100.941 432.357C101.122 431.126 101.538 429.914 102.119 428.803C102.754 427.589 103.36 426.152 104.596 425.495C105.637 424.942 107.029 424.914 108.156 425.278C109.476 425.705 110.423 426.88 111.323 427.904C112.081 428.765 112.867 429.702 113.149 430.797C114.097 434.482 112.602 438.372 112.434 442.164C112.268 445.915 112.423 449.678 112.143 453.424C111.164 452.492 110.455 452.111 109.729 451.34C108.217 449.734 106.916 447.942 105.737 446.096Z" fill="#FF5555"/>
<path id="path8955" d="M110.3 440.429C110.509 438.843 110.935 437.273 110.955 435.674C110.978 433.807 111.147 431.798 110.328 430.106C109.759 428.931 108.77 427.807 107.532 427.299C106.912 427.044 106.11 427.003 105.51 427.299C104.373 427.859 103.661 429.121 103.268 430.292C102.507 432.563 102.639 435.144 103.268 437.452C104.03 440.25 106.076 442.572 107.69 445.011C108.314 445.952 109.287 447.153 109.717 447.733C109.769 446.976 109.746 445.297 109.843 444.083C109.94 442.86 110.14 441.646 110.3 440.429Z" fill="white"/>
<path id="path8953" d="M105.866 438.058C105.43 437.178 104.905 436.309 104.708 435.351C104.45 434.093 104.134 432.661 104.708 431.504C105.107 430.7 105.943 429.827 106.868 429.827C107.725 429.827 108.423 430.675 108.869 431.38C109.542 432.444 109.675 433.796 109.647 435.042C109.623 436.11 109.084 437.109 108.841 438.152C108.578 439.282 108.372 440.423 108.137 441.559C107.75 440.981 107.276 440.461 106.898 439.879C106.518 439.292 106.176 438.682 105.866 438.058Z" fill="#FF5555"/>
<path id="path8951" d="M97.8879 442.813C97.6128 440.241 97.6905 437.629 97.9355 435.053C98.101 433.314 98.2674 431.384 98.8927 429.895L100.046 430.071C99.5025 431.279 99.5682 432.661 99.4435 433.97C99.2061 436.461 98.9983 438.976 99.1676 441.472C99.3779 444.573 99.835 447.68 100.765 450.658L99.7766 451.287C98.8551 448.218 98.1958 445.691 97.8879 442.813Z" fill="#FF5555"/>
<path id="path8947" d="M117.46 444.291C116.829 443.116 115.567 440.765 115.567 440.765L116.367 440.791C116.904 441.481 117.701 442.552 118.309 443.473C118.89 444.352 119.937 446.181 119.937 446.181C119.742 446.727 119.548 447.272 119.354 447.817C119.354 447.817 118.091 445.467 117.46 444.291Z" fill="#FF5555"/>
<path id="path8945" d="M114.224 421.872L112.734 417.793L113.542 418.044L114.349 418.296L114.872 419.936C115.16 420.837 115.722 422.56 116.121 423.763L116.847 425.952H116.28H115.713L114.224 421.872Z" fill="#FF5555"/>
<path id="path8943" d="M93.9979 415.363C95.2882 412.321 97.0798 408.824 98.9385 406.767L100.271 407.254C99.1526 408.48 98.3965 410.175 97.4724 411.689C96.5483 413.202 95.5255 415.842 94.5688 418.71L92.8293 423.925L91.4053 424.361C92.3777 420.87 92.7792 418.237 93.9979 415.363Z" fill="#FF5555"/>
<path id="path8941" d="M280.942 474.935C277.308 472.012 274.449 468.183 271.774 464.358C270.497 462.533 269.151 460.653 268.53 458.512C267.711 455.684 267.521 452.595 268.02 449.694C268.7 445.742 270.46 441.939 272.691 438.607C273.492 437.41 275.036 435.43 275.734 435.538C275.251 437.371 275.355 438.635 275.563 440.164C275.853 442.305 276.65 444.364 277.518 446.341C278.776 449.204 280.242 452.029 282.187 454.475C283.873 456.594 285.879 458.513 288.141 459.996C290.364 461.454 293.008 462.128 295.441 463.193C295.042 463.61 291.823 464.409 289.956 464.778C287.688 465.227 286.68 465.054 283.061 465.534C283.582 469.174 283.511 472.813 283.736 476.453C282.547 476.378 281.769 475.599 280.942 474.935Z" fill="#FF5555"/>
<path id="path8939" d="M278.575 461.976C280.208 461.751 281.841 461.527 283.474 461.303C282.134 459.816 280.815 458.311 279.675 456.67C277.493 453.529 275.096 450.388 273.895 446.753C273.443 445.386 273.418 443.331 273.418 442.458C272.172 443.68 271.032 447.446 270.86 448.969C270.559 451.949 270.569 455.072 271.445 457.936C271.987 459.707 273.172 461.225 274.248 462.731C275.707 464.776 277.659 466.983 279.165 468.44C278.856 465.726 279.041 465.795 278.575 461.976Z" fill="white"/>
<path id="path8937" d="M72.3202 475.617C73.1625 472.634 75.1751 468.795 75.762 465.757C72.894 465.451 69.2395 464.518 66.3445 463.43C68.2406 462.701 69.8852 462.007 71.4749 460.972C74.3571 459.095 77.2554 456.983 79.3206 454.265C80.9296 452.148 82.0072 449.626 82.6437 447.075C83.5903 443.281 83.072 439.281 83.2862 435.385C84.598 436.725 85.1076 437.361 85.8359 438.333C88.0616 442.637 90.1598 447.103 91.0294 451.826C91.5459 454.631 91.5541 457.574 90.994 460.371C90.5141 462.768 89.4919 465.097 88.1949 467.178C86.8223 469.381 85.127 471.472 83.0366 473.005C81.2 474.352 79.0329 475.354 76.7985 475.786C75.3317 476.069 73.7812 475.903 72.3202 475.617Z" fill="#FF5555"/>
<path id="path8935" d="M84.1938 468.616C86.1261 466.867 87.6943 464.547 88.5096 462.09C89.602 458.798 89.6391 455.148 89.0651 451.737C88.5994 448.969 86.5088 445.241 85.8828 443.904C86.1562 447.054 84.8916 450.547 83.3737 453.473C81.5958 456.9 77.3473 460.52 75.9082 462.319C77.6615 462.357 79.8672 462.444 80.5984 462.262C79.6312 464.726 77.2577 470.111 76.5239 472.652C79.7288 472.231 82.0504 470.556 84.1938 468.616Z" fill="white"/>
<path id="path8933" d="M157.753 469.725H151.505L157.264 464.275V460.299L164.569 462.028L168.981 460.485L167.879 466.442L171.918 470.385L163.384 469.833L159.488 473.287L157.753 469.725Z" fill="#FF5555"/>
<path id="path8931" d="M220.588 469.273C218.917 467.115 215.252 463.152 212.443 460.467L207.336 455.585C207.984 455.585 207.939 455.672 208.587 455.672L213.382 459.457C215.818 461.379 219.033 465.394 220.924 467.919L224.361 472.51C224.117 472.739 223.872 472.968 223.627 473.197L220.588 469.273Z" fill="#FF5555"/>
<path id="path8929" d="M194.032 470.487L193.248 469.117L186.062 469.913L189.427 465.256L187.825 461.529L195.158 461.574L202.033 457.504L200.95 464.862L204.091 469.2L197.384 469.725L194.816 471.857L194.032 470.487Z" fill="#FF5555"/>
<path id="path8927" d="M239.507 463.659C238.579 460.599 238.708 459.073 238.531 454.113C237.367 454.032 235.312 454.802 233.755 455.328C232.49 455.755 232.068 456.284 230.069 456.895C231.272 451.745 232.895 445.64 235.104 440.298C236.572 436.747 239.107 432.383 240.525 430.126C239.333 430.286 238.034 430.759 236.704 431.469C237.014 428.276 236.789 423.637 237.921 419.945C239.432 415.02 242.77 410.815 245.194 406.31C247.592 407.772 247.964 408.52 249.193 409.501C251.086 405.808 251.81 403.407 253.071 400.34C253.795 398.579 254.314 396.896 255.19 395.033C257.535 397.317 260.915 399.972 263.14 402.99C265.577 406.297 267.434 410.067 268.889 413.891C270.828 418.988 271.456 424.468 271.921 429.881C270.78 430.032 269.638 430.184 268.496 430.335C267.493 438.43 267.236 446.847 263.28 454.25C262.301 456.271 261.299 458.282 260.31 460.299C258.542 458.602 257.209 457.108 256.073 455.906C254.947 457.108 253.063 460.037 251.368 461.943C248.759 464.879 247.309 466.481 242.989 470.224C240.785 467.001 240.227 466.03 239.507 463.659Z" fill="#FF5555"/>
<path id="path8925" d="M248.325 461.914C251.254 458.654 253.344 454.696 255.463 450.872C257.324 451.86 258.68 452.615 260.094 453.692C261.033 452.15 262.082 450.666 262.768 449.001C264.023 445.957 264.843 442.718 265.344 439.462C266.046 434.898 265.729 430.235 265.921 425.621C266.937 425.734 267.954 425.848 268.971 425.961C268.088 421.767 267.631 417.38 265.866 413.471C263.551 408.346 260.337 403.614 256.276 399.594C255.266 402.704 254.768 404.151 253.888 406.382C252.593 409.666 251.574 411.479 249.638 416.081C248.287 414.768 246.983 413.726 245.73 412.462C243.903 414.439 242.641 415.83 241.59 417.831C240.932 419.085 240.562 420.486 240.294 421.876C239.908 423.878 240.067 425.573 239.861 427.978C242.197 427.726 243.786 427.203 245.546 426.87C244.045 430.201 241.724 433.603 240.19 436.914C237.318 440.892 235.187 446.643 234.037 451.332C235.947 451.063 240.309 450.108 241.819 449.283C241.276 452.482 240.729 454.909 241.045 457.712C241.359 460.495 242.424 463.037 243.658 465.696C245.619 464.819 246.987 463.404 248.325 461.914Z" fill="white"/>
<path id="path8923" d="M259.089 447.337C260.108 443.509 261.013 439.639 261.606 435.721C262.061 432.714 262.38 429.661 262.397 426.631C263.173 426.631 262.901 426.631 263.678 426.631C263.733 431.632 263.157 437.161 262.235 442.336C261.911 444.149 261.491 445.964 260.808 447.673C260.642 448.089 260.38 448.459 260.166 448.852C259.646 448.852 259.127 448.852 258.608 448.852C258.769 448.347 258.952 447.849 259.089 447.337Z" fill="#FF5555"/>
<path id="path8921" d="M237.744 447.755L236.957 446.874C239.47 440.785 240.718 438.751 244.893 433.622L245.609 434.507C241.76 439.533 240.675 441.487 237.744 447.755Z" fill="#FF5555"/>
<path id="path8919" d="M248.934 441.613C249.051 437.179 247.456 432.63 248.479 428.315C248.979 426.206 249.901 423.962 251.594 422.613C252.579 421.828 253.971 421.582 255.23 421.587C256.446 421.592 257.779 421.854 258.735 422.607C259.614 423.3 260.122 424.438 260.403 425.523C260.974 427.727 260.814 430.133 260.317 432.355C259.918 434.137 259.095 435.846 258.046 437.339C255.946 440.328 253.002 442.641 250.207 444.989C249.681 445.431 248.682 446.647 248.535 446.194C248.523 444.9 248.893 443.145 248.934 441.613Z" fill="#FF5555"/>
<path id="path8917" d="M255.534 436.448C256.138 435.541 256.884 434.692 257.254 433.666C258.031 431.515 258.969 429.026 258.208 426.869C257.841 425.829 256.818 425.016 255.794 424.611C254.958 424.281 253.902 424.209 253.098 424.611C251.985 425.169 251.224 426.412 250.857 427.604C249.804 431.022 251.219 434.749 251.333 438.324C251.369 439.455 251.253 440.895 251.398 441.717C252.07 441.19 252.946 439.989 253.661 439.077C254.324 438.229 254.939 437.345 255.534 436.448Z" fill="white"/>
<path id="path8915" d="M252.308 431.513C251.965 429.819 251.542 427.44 252.891 426.36C253.843 425.598 255.699 425.862 256.527 426.757C257.35 427.648 256.897 429.209 256.641 430.395C256.408 431.476 255.738 432.418 255.178 433.371C254.499 434.525 253.87 435.717 252.89 436.673C252.881 434.774 252.647 433.187 252.308 431.513Z" fill="#FF5555"/>
<path id="path8913" d="M242.233 423.769C242.256 422.571 244.764 418.195 245.449 417.309L245.905 417.904C244.815 420.193 244.153 422.322 243.383 424.611L242.233 423.769Z" fill="#FF5555"/>
<path id="path8911" d="M264.253 420.234C263.955 419.123 262.364 415.639 260.718 412.491C259.558 410.243 258.359 408.015 257.216 405.758H257.952H258.687L261.318 410.976C262.766 413.846 264.272 416.831 264.667 417.609L265.384 419.023L265.09 420.639L264.795 422.254L264.253 420.234Z" fill="#FF5555"/>
<path id="path8909" d="M135.312 472.385C137.144 470.05 140.718 466.373 143.529 463.469C146.029 460.886 151.217 455.906 151.217 455.906L152.371 456.535C149.331 459.976 144.676 464.742 135.662 473.321L135.312 472.385Z" fill="#FF5555"/>
<path id="path8907" d="M58.6318 468.648C59.5498 466.598 60.7761 464.692 61.9276 462.76C64.2435 458.875 66.5168 454.946 69.1894 451.298C69.7506 450.532 70.3069 449.757 71.0241 449.12L71.7791 449.776C70.1207 453.059 67.2568 456.814 65.1437 460.423C64.3373 461.8 63.6578 463.25 62.8393 464.62C61.9364 466.132 60.9218 467.573 59.9675 469.052L58.6318 468.648Z" fill="#FF5555"/>
<path id="path8905" d="M299.051 464.901C296.31 460.353 293.485 455.844 290.383 451.535C289.689 450.571 288.904 449.677 288.164 448.749C288.447 448.484 288.731 448.219 289.014 447.954C290.684 449.727 292.767 452.397 294.389 454.805C296.743 458.301 298.46 461.608 300.673 465.779C300.425 466.011 300.177 466.242 299.93 466.474C299.637 465.95 299.361 465.416 299.051 464.901Z" fill="#FF5555"/>
<path id="path8903" d="M160.144 458.285C154.488 456.488 151.119 450.596 145.785 448.044C141.013 445.761 134.87 446.575 130.442 443.72C127.967 442.125 125.947 439.676 124.856 437.008C123.689 434.15 124.457 430.877 124.147 427.82C123.833 424.723 124.019 421.5 122.982 418.553C121.607 414.643 118.11 411.691 116.448 407.887C115.638 406.033 114.619 404.064 114.817 402.062C115.05 399.709 116.633 397.623 118.043 395.688C120.471 392.357 124.699 390.416 126.874 386.926C129.16 383.26 128.112 378.003 130.948 374.713C132.854 372.504 136.044 371.638 138.819 370.615C144.364 368.57 150.536 368.649 156.092 366.638C162.256 364.406 167.307 359.43 173.645 357.756C176.467 357.011 179.54 356.73 182.389 357.338C190.176 359.001 195.837 366.133 203.546 368.102C208.561 369.382 214.249 366.821 219.101 368.588C222.022 369.651 224.48 371.907 226.324 374.335C229.982 379.153 229.966 385.892 233.264 390.945C235.343 394.13 239.838 395.742 241.163 399.281C242.319 402.367 241.55 405.94 240.678 409.111C239.553 413.204 235.732 416.319 234.703 420.435C233.229 426.33 237.157 433.06 234.658 438.626C233.289 441.677 230.13 443.829 227.131 445.476C223.401 447.524 218.716 447.313 214.748 448.894C208.427 451.414 203.376 456.679 196.791 458.468C193.364 459.4 189.677 459.048 186.118 458.925C182.206 458.791 178.366 457.473 174.455 457.62C170.96 457.752 167.65 459.778 164.159 459.566C162.752 459.48 161.536 458.501 160.144 458.285C160.144 458.285 160.144 458.285 160.144 458.285Z" fill="#FF5555"/>
<path id="path8901" d="M170.71 456.957C173.096 456.53 175.483 455.886 177.909 455.912C182.466 455.96 186.828 458.41 191.377 458.162C194.007 458.019 196.87 457.568 198.961 456.025C205.62 451.114 208.573 447.689 218.819 446.143C223.34 445.461 228.1 443.475 231.02 440.082C232.391 438.488 232.538 436.177 232.858 434.13C233.606 429.353 231.789 424.324 233.01 419.638C234.244 414.9 239.256 411.475 240.057 406.652C240.45 404.287 239.879 401.722 238.836 399.563C236.655 395.044 231.173 392.764 228.812 388.337C227.003 384.946 227.769 380.553 225.947 377.17C224.876 375.182 223.282 373.432 221.396 372.155C219.598 370.937 217.405 370.284 215.256 369.838C210.687 368.89 205.761 370.336 201.253 369.149C194.184 367.287 188.979 360.645 181.781 359.32C178.983 358.804 176.013 359.377 173.28 360.181C168.123 361.699 163.839 365.369 158.905 367.51C154.473 369.433 148.738 370.156 143.871 371.269C139.003 372.383 135.747 372.99 132.396 376.478C129.72 379.264 130.529 384.949 128.13 388.431C125.927 391.631 121.537 392.882 119.276 395.996C118.063 397.665 116.977 399.644 116.947 401.682C116.903 404.66 118.963 407.316 120.107 410.083C121.647 413.81 123.942 417.263 125.086 421.12C125.799 423.521 126.087 426.038 126.224 428.532C126.356 430.927 125.192 433.426 125.92 435.719C126.775 438.41 128.683 440.958 131.114 442.518C133.811 444.248 137.533 443.615 140.558 444.732C144.142 446.056 147.348 448.181 150.697 449.987C155.588 452.623 159.694 457.298 165.232 458.128C167.08 458.404 168.871 457.287 170.71 456.957Z" fill="white"/>
<path id="path8899" d="M159.474 454.845C154.571 452.006 150.655 447.712 145.636 445.069C140.468 442.347 133.033 443.21 129.147 438.947C127.6 437.249 127.816 434.597 127.488 432.36C126.891 428.299 127.881 424.065 126.936 420.065C125.96 415.931 123.553 412.235 121.742 408.371C120.859 406.488 118.948 404.84 118.977 402.774C119.012 400.271 121.02 398.129 122.515 396.081C124.403 393.494 127.513 391.847 129.261 389.17C131.862 385.188 131.071 379.319 134.538 376.005C137.19 373.47 141.418 373.126 145.028 372.19C150.233 370.841 154.76 370.784 159.239 369.102C163.717 367.42 168.147 364.111 173.755 361.642C176.563 360.406 180.883 360.901 184.222 361.879C188.935 363.26 192.107 367.779 196.688 369.526C199.945 370.768 203.532 371.038 207.015 371.407C209.938 371.716 213.029 370.823 215.832 371.679C218.526 372.503 221.094 374.089 222.914 376.173C224.29 377.748 224.71 379.912 225.471 381.835C226.84 385.291 227.053 389.23 229.078 392.373C231.117 395.538 235.727 396.834 237.337 400.219C238.324 402.295 238.285 404.815 237.81 407.052C236.734 412.115 231.723 415.837 230.514 420.873C229.334 425.788 232.373 431.205 230.764 436.007C230.084 438.035 228.569 439.856 226.797 441.134C221.13 445.22 213.151 445.075 206.881 448.242C203.139 450.132 200.571 454.155 196.501 455.248C191.465 456.6 186.074 454.479 180.852 454.229C178.447 454.114 176.031 453.805 173.632 454.008C169.856 454.326 166.264 456.696 162.501 456.253C161.389 456.122 160.434 455.401 159.474 454.845Z" fill="#FF5555"/>
<path id="path8897" d="M201.541 447.424C204.513 446.578 207.564 445.843 210.323 444.484C212.795 443.266 215.108 441.697 217.144 439.88C219.614 437.676 221.79 435.124 223.553 432.362C225.4 429.469 226.824 426.298 227.821 423.04C229.11 418.827 229.812 414.417 229.973 410.027C230.096 406.654 229.78 403.243 229.054 399.941C228.321 396.609 227.225 393.308 225.615 390.276C224.187 387.586 222.234 385.162 220.184 382.874C218.472 380.962 216.712 378.991 214.495 377.643C210.43 375.17 205.666 373.874 201.018 372.689C193.466 370.764 185.661 369.561 177.856 369.25C173.008 369.058 167.949 368.786 163.338 370.237C152.24 373.726 141.503 379.831 133.679 388.175C132.093 389.866 131.308 392.15 130.535 394.303C128.737 399.311 127.145 404.561 127.144 409.86C127.143 414.119 128.12 418.451 129.863 422.365C132.716 428.773 136.637 435.115 142.193 439.585C147.887 444.166 155.248 446.794 162.473 448.422C169.445 449.994 176.781 449.178 183.942 449.144C188.15 449.124 192.388 449.174 196.553 448.599C198.247 448.365 199.899 447.891 201.541 447.424Z" fill="white"/>
<path id="path8895" d="M203.674 377.951C203.044 377.966 202.384 378.029 201.699 378.138C198.852 378.572 195.85 379.198 193.509 380.819C190.365 382.996 188.417 386.49 186.452 389.703C183.66 394.269 183.208 400.015 179.848 404.292L173.114 401.362C173.062 397.566 173.675 392.365 174.927 389.142C176.927 389.453 179.384 389.599 180.851 389.08C182.836 388.377 183.424 387.82 185.027 386.492C185.986 385.698 186.811 384.467 186.776 383.25C186.735 381.848 185.791 380.354 184.542 379.634C183.428 378.992 181.907 379.142 180.657 379.478C177.519 380.323 175.054 382.741 172.532 384.684C168.191 383.829 163.937 382.429 159.518 382.128C156.408 381.916 153.089 381.654 150.162 382.689C148.148 383.402 146.329 384.765 145.015 386.399C143.826 387.876 143.05 389.718 142.814 391.574C142.598 393.266 142.798 395.13 143.591 396.655C144.473 398.352 146.584 399.368 147.993 400.302C148.456 404.748 149.69 409.12 150.777 413.488C149.518 414.216 148.409 414.769 147.022 415.671C144.878 417.065 143.696 418.799 143.137 419.91C141.923 422.326 142.28 422.575 142.458 426.27C140.699 425.981 138.32 423.881 137.375 422.248C136.571 420.859 136.197 419.191 136.307 417.603C136.412 416.075 137.826 414.306 138.864 413.146C140.15 411.709 141.249 411.156 143.137 410.558C142.18 410.304 141.458 409.983 140.709 409.685C138.092 410.882 135.564 412.981 134.203 415.515C133.267 417.257 132.932 419.434 133.393 421.344C133.83 423.153 135.178 424.701 136.598 425.958C138.422 427.572 141.037 428.725 143.275 429.198C144.142 430.999 145.75 433.043 147.443 434.499C148.455 435.37 149.591 436.193 150.874 436.619C153.649 437.541 156.786 437.996 159.647 437.367C162.169 436.814 164.468 435.307 166.316 433.564C168.05 431.928 169.282 429.786 170.168 427.61C172.063 422.961 172.954 417.911 173.114 412.896C174.532 412.729 175.125 412.138 176.093 411.68C177.259 411.129 178.425 410.592 179.492 409.841C179.445 416.589 178.081 424.859 179.459 431.476C179.965 433.902 181.555 436.014 182.502 438.303C179.093 440.361 174.714 439.504 170.945 439.082L171.204 439.83C172.876 440.352 175.37 440.81 177.485 440.828C179.33 440.843 181.664 441.057 184.97 439.872C186.284 441.217 187.53 441.411 189.786 442.199C190.411 442.423 191.042 442.698 191.696 442.823C193.567 443.178 195.501 443.36 197.394 443.134C199.114 442.929 201.787 442.109 203.318 441.326C204.857 440.54 208.204 439.121 209.834 437.466L209.501 436.183C206.185 439.077 202.47 440.761 197.815 440.89C194.423 440.984 189.674 439.452 187.839 437.487C189.276 435.687 190.247 433.333 190.882 431.065C193.262 422.564 191.672 413.205 194.027 404.698C194.857 401.7 196.27 398.829 198.009 396.218C198.818 395.004 200.651 392.673 201.991 392.322C201.293 394.731 199.7 398.582 199.077 401.393C198.568 406.433 197.613 408.01 197.458 413.083C197.358 416.392 198.153 422.087 198.689 425.023C200.591 419.019 201.271 415.274 203.868 410.059C204.79 408.209 205.649 404.839 207.462 403.513C207.462 405.97 205.686 411.582 206.167 415.608C206.493 418.338 207.607 420.868 208.951 423.37C209.901 425.139 211.23 426.905 213.062 427.828C215.138 428.874 217.768 429.252 220.022 428.639C221.749 428.169 223.388 426.905 224.263 425.397C225.115 423.927 225.068 422.083 224.878 420.409C224.683 418.691 224.394 416.679 223.097 415.484C221.743 414.235 219.576 413.675 217.724 413.956C216.585 414.129 215.865 414.314 214.875 415.826C216.204 415.826 217.647 415.297 218.857 415.826C220.335 416.473 221.57 417.89 222.062 419.38C222.563 420.901 222.473 422.797 221.544 424.119C220.457 425.663 218.319 426.823 216.396 426.737C214.871 426.669 213.557 425.394 212.512 424.306C210.943 422.671 209.795 420.598 209.21 418.445C208.503 415.846 208.856 413.047 209.113 410.371C209.442 406.929 210.181 403.518 211.217 400.209C212.394 396.449 214.39 392.958 215.846 389.298C214.325 390.311 212.633 391.137 211.282 392.353C207.276 395.956 203.655 401.674 201.02 407.223C202.023 401.976 203.404 395.551 206.167 389.547C206.672 388.449 206.792 388.564 207.235 386.399C204.652 387.963 201.541 388.803 199.239 390.732C197.452 392.229 195.932 394.005 194.675 395.938C193.209 398.19 192.15 400.702 191.308 403.232C190.201 406.558 189.492 410.016 189.106 413.488C188.546 418.541 189.747 423.71 188.945 428.732C188.652 430.567 187.274 433.468 186.484 435.061C185.829 433.389 184.829 431.109 184.51 429.013C184.007 425.715 184.803 422.338 184.639 419.006C184.515 416.489 184.322 413.958 183.797 411.493C183.516 410.171 183.432 409.056 182.567 407.628C187.805 400.113 190.233 390.712 196.552 384.092C197.607 382.986 199.004 382.144 200.469 381.629C202.68 380.853 205.133 380.493 207.462 380.819C209.614 381.119 211.711 382.055 213.451 383.313C214.999 384.432 216.901 386.297 217.95 387.864C219.719 390.503 220.282 392.142 220.929 395.221C221.447 397.692 221.04 401.124 221.026 403.638C222.029 401.923 221.893 402.295 222.547 400.707C223.224 397.126 223.043 394.112 221.867 390.669C220.994 388.112 219.443 386.335 217.529 384.372C215.166 381.948 212.186 379.976 208.951 378.855C207.236 378.26 205.563 377.906 203.674 377.951ZM182.243 381.224C182.744 381.191 183.234 381.263 183.635 381.504C184.228 381.861 184.607 382.676 184.509 383.344C184.412 384.008 183.517 384.302 183.15 384.871C183.136 384.89 183.134 384.918 183.117 384.934C183.089 384.96 183.052 384.972 183.02 384.996C182.172 385.64 181.356 386.457 180.301 386.679C178.866 386.981 177.908 386.902 175.931 386.087C176.854 384.583 178.704 382.408 180.787 381.567C181.224 381.39 181.742 381.257 182.243 381.224ZM154.435 384.154C159.841 384.207 165.045 386.269 170.104 388.144C169.088 392.33 167.935 397.328 167.19 401.568C164.856 401.745 163.182 401.696 161.752 403.077C160.712 404.079 159.963 405.557 160.003 406.973C160.044 408.382 160.963 409.732 161.946 410.776C163.301 412.217 165.576 412.774 167.093 413.114C166.914 417.44 167.709 422.642 166.575 426.831C165.996 428.97 165.032 431.165 163.435 432.754C161.642 434.273 160.49 434.775 158.482 435.31C156.477 435.791 154.184 436.112 152.266 435.372C150.254 434.596 148.636 432.844 147.605 431.008C147.284 430.436 146.525 429.73 146.439 429.075C147.341 428.47 149.873 427.322 150.305 426.861C152.197 424.84 153.221 424.393 154.565 421.999C155.49 420.351 155.351 418.534 155.347 415.859C156.262 415.788 157.903 415.852 158.429 416.231C159.601 417.076 161.068 418.208 161.752 420.16C162.419 422.065 162.127 424.449 161.007 426.145C159.689 428.141 157.091 429.06 154.759 429.886C156.014 429.914 155.764 429.868 156.775 430.023C158.244 429.938 161.386 428.463 162.27 427.205C163.381 425.621 164.019 423.592 163.856 421.687C163.7 419.863 162.358 417.14 161.094 415.773C159.637 414.198 157.9 412.979 155.173 413.042C154.914 411.692 154.717 410.999 154.496 409.976C153.838 406.941 153.197 404.385 152.558 400.863C154.087 401.017 156.72 399.645 157.996 398.4C158.94 397.48 159.601 396.07 159.453 394.784C159.312 393.557 158.36 392.414 157.317 391.698C156.324 391.017 155.007 390.815 153.788 390.794C152.492 390.772 151.051 390.906 150 391.636C148.709 392.533 147.234 394.814 147.572 396.561C146.556 396.301 146.449 395.799 146.019 395.564C145.453 395.254 145.153 394.555 145.015 393.943C144.79 392.944 144.959 391.86 145.371 390.919C146.382 388.611 148.121 386.451 150.324 385.121C151.517 384.401 153.028 384.14 154.435 384.154ZM154.694 393.132C155.313 393.137 155.91 393.293 156.378 393.6C156.984 393.997 157.169 394.889 157.187 395.595C157.202 396.165 157.01 396.773 156.637 397.216C156.166 397.774 155.419 398.134 154.694 398.307C153.686 398.548 153.257 398.441 151.587 398.151C151.085 395.971 151.695 394.544 153.011 393.6C153.465 393.274 154.076 393.127 154.694 393.132ZM164.956 404.323C165.484 404.254 166.082 404.437 166.607 404.386V406.693V410.059C166.858 410.884 165.142 410.492 164.536 410.153C163.693 409.682 163.227 408.596 163.176 407.659C163.114 406.53 163.519 405.142 164.471 404.479C164.617 404.377 164.781 404.347 164.956 404.323ZM173.114 404.386C174.581 404.629 175.25 404.863 176.19 405.383C176.992 405.827 177.962 406.239 178.262 407.16C177.439 408.252 176.629 408.71 175.672 409.311C174.916 409.786 174.145 410.433 173.244 410.433C173.244 409.087 173.114 405.733 173.114 404.386ZM151.684 416.512C152.051 418.649 151.946 419.322 151.554 420.658C151.216 421.815 150.482 422.864 149.709 423.807C149.27 424.342 148.728 424.808 148.155 425.21C147.254 425.841 146.068 426.657 145.242 426.768C145.242 425.738 144.715 424.16 144.983 422.903C145.294 421.439 146.005 419.984 147.087 418.913C148.307 417.704 148.971 417.001 151.684 416.512Z" fill="#FF5555"/>
<path id="path8881" d="M60.7917 450.436C60.7917 449.224 75.5442 434.038 76.722 434.038C77.1027 434.53 77.3505 434.76 77.3505 435.516L73.8532 438.456C71.9297 440.074 68.4913 443.529 66.2121 446.134C64.3593 448.253 63.0042 449.652 62.1123 450.36C61.3732 450.579 61.2807 450.411 60.7917 450.436Z" fill="#FF5555"/>
<path id="path8879" d="M290.273 442.672C288.587 441.317 286.924 439.93 285.17 438.666C283.849 437.715 282.453 436.875 281.094 435.979C281.094 435.531 281.094 435.083 281.094 434.635C282.024 435.203 282.978 435.732 283.883 436.339C285.87 437.67 287.804 439.084 289.671 440.579C291.061 441.69 293.694 444.089 293.694 444.089L292.532 444.532C292.213 444.173 291.033 443.283 290.273 442.672Z" fill="#FF5555"/>
<path id="path8877" d="M72.4998 428.675C74.5846 426.199 76.9332 423.945 79.2197 421.645C80.0297 420.838 80.8402 420.032 81.6496 419.224C82.179 419.224 82.7085 419.224 83.2379 419.224C80.7876 422.014 78.2928 424.773 75.5747 427.326C74.616 428.235 73.6359 429.135 72.5366 429.885C72.2278 430.058 71.1749 430.148 71.7748 429.643C72.0165 429.321 72.2582 428.998 72.4998 428.675Z" fill="#FF5555"/>
<path id="path8875" d="M282.399 426.771C281.01 425.366 278.285 422.944 276.344 421.388L272.815 418.56C273.606 418.557 274.398 418.555 275.189 418.552L280.662 423.332C283.672 425.961 284.822 427.14 286.134 428.718L285.354 429.61L282.399 426.771Z" fill="#FF5555"/>
<path id="path8873" d="M53.676 425.803C54.5008 418.039 56.9828 410.431 60.9189 403.782C64.1135 398.385 68.7795 393.842 73.7599 390.03C77.8249 386.919 82.483 384.485 87.3324 382.845C91.1792 381.545 95.2868 381.075 99.3486 380.844L98.5015 382.202C93.5135 382.927 88.3946 383.925 83.8162 386.088C78.0975 388.79 72.7231 392.541 68.4174 397.174C64.1511 401.765 61.0018 407.415 58.5775 413.194C56.5798 417.956 55.8858 423.102 54.841 428.228L53.676 425.803Z" fill="#FF5555"/>
<path id="path8871" d="M301.007 420.486C300.288 417.007 299.919 413.38 298.471 410.137C296.05 404.713 292.854 399.374 288.417 395.427C283.105 390.702 276.311 387.654 269.528 385.529C265.708 384.333 261.618 384.249 257.614 384.039L258.799 382.657C266.198 382.484 275.077 384.753 281.965 388.803C288.645 392.73 294.277 398.8 298.106 405.541C301.445 411.419 302.653 418.393 303.436 425.111L302.057 426.705C301.708 424.632 301.432 422.544 301.007 420.486Z" fill="#FF5555"/>
<path id="path8869" d="M302.791 411.777C298.746 401.224 294.167 396.074 287.444 390.475C282.431 386.301 275.885 384.246 269.76 382.1L270.826 381.271C274.58 382.047 279.822 383.688 283.79 386.02C288.956 389.057 293.691 393.059 297.405 397.764C300.522 401.714 302.644 406.432 304.341 411.174L302.791 411.777Z" fill="#FF5555"/>
<path id="path8867" d="M86.4379 408.956C88.2643 406.072 95.0413 398.133 98.2916 395.07L102.13 391.452L102.405 392.225L102.68 392.997L99.7669 395.842C95.9146 399.604 91.8109 404.223 89.5895 407.297L87.7896 409.788L86.8472 409.793L85.9048 409.798L86.4379 408.956Z" fill="#FF5555"/>
<path id="path8865" d="M253.938 390.907C254.268 390.716 254.599 390.525 254.929 390.334C261.326 395.279 266.848 401.148 271.877 408.348C271.354 408.382 270.831 408.417 270.308 408.451C265.148 401.406 259.959 396.567 253.938 390.907Z" fill="#FF5555"/>
<path id="path8863" d="M53.9839 407.055C57.4531 401.393 60.0151 396.341 64.4217 392.189C69.1062 387.774 75.8715 384.361 80.856 382.049L82.5266 382.57C73.9547 386.946 69.1178 390.213 63.7425 395.62C60.6825 398.698 59.0572 402.184 56.3761 406.357L53.9839 407.055Z" fill="#FF5555"/>
<path id="path8861" d="M109.028 405.651C109.028 405.651 109.646 401.336 110.402 397.29C111.157 393.244 111.998 388.419 112.272 386.567C112.545 384.715 112.939 382.941 113.148 382.623L114.62 383.699L113.586 387.826C113.017 390.096 110.562 405.792 110.562 405.792L109.028 405.651Z" fill="#FF5555"/>
<path id="path8859" d="M245.025 392.231C243.606 387.804 242.663 383.252 241.999 378.617C242.552 378.937 243.105 379.257 243.658 379.576C244.269 383.037 244.704 385.991 245.679 389.079C246.476 391.602 248.787 396.383 248.787 396.383C248.637 397.6 248.487 398.817 248.337 400.034C248.337 400.034 245.887 394.922 245.025 392.231Z" fill="#FF5555"/>
<path id="path8857" d="M120.57 388.19C120.027 388.19 122.235 383.758 122.74 381.454C123.404 378.416 123.745 375.3 123.848 372.192C123.942 369.371 123.945 367.937 123.404 363.737L124.724 364.399C125.401 368.749 125.648 374.165 124.867 378.953C124.322 382.289 122.945 385.169 121.549 388.537L120.57 388.19Z" fill="#FF5555"/>
<path id="path8855" d="M232.887 379.993C231.932 376.791 231.364 373.483 230.741 370.2C230.432 368.568 229.953 365.28 229.953 365.28C230.376 364.573 230.799 363.865 231.222 363.158C231.774 365.918 232.042 368.675 232.549 371.417C232.998 373.842 233.46 376.268 234.066 378.658C234.369 379.852 235.122 382.197 235.122 382.197C234.956 382.98 234.79 383.764 234.624 384.547C234.624 384.547 233.352 381.55 232.887 379.993Z" fill="#FF5555"/>
<path id="path8853" d="M92.3102 377.207C92.0865 376.995 92.1896 376.312 92.1094 376.025C94.0456 376.394 95.9544 376.958 97.917 377.14C103.767 377.681 109.665 377.08 115.54 377.05C115.368 377.529 115.197 378.008 115.025 378.487C109.546 378.527 104.037 379.187 98.5889 378.607C96.4566 378.38 94.0575 378.123 92.3102 377.207Z" fill="#FF5555"/>
<path id="path8851" d="M242.853 374.783C242.853 374.783 249.542 374.879 252.884 374.783C257.854 374.641 262.423 374.318 267.776 373.932C267.152 374.552 266.529 375.173 265.906 375.793C265.906 375.793 258.544 375.945 254.863 376.021C251.182 376.097 243.82 376.248 243.82 376.248C243.498 375.76 243.175 375.272 242.853 374.783Z" fill="#FF5555"/>
<path id="path8849" d="M103.628 369.927C99.2345 367.235 94.7371 364.58 89.8796 362.86C85.049 361.151 79.8935 360.466 74.8306 359.722L77.1258 358.641C82.5483 359.29 87.6721 360.125 92.6148 361.988C96.6709 363.517 100.332 365.967 103.976 368.315C105.31 369.175 107.316 370.751 107.804 371.146L107.228 372.521C106.028 371.656 104.89 370.7 103.628 369.927Z" fill="#FF5555"/>
<path id="path8847" d="M106.894 363.595C104.284 360.239 101.202 357.167 97.7053 354.748C93.7126 351.985 89.131 350.105 84.5526 348.488C80.7163 347.133 76.7034 346.265 72.6818 345.649C69.9758 345.234 65.779 345.15 64.4886 345.08L62.7729 343.544C65.2466 343.553 68.0962 343.581 70.7376 343.869C74.7727 344.309 78.8341 344.851 82.7253 346.008C87.8188 347.522 92.9551 349.328 97.4029 352.238C101.639 355.009 105.317 358.684 108.439 362.669C110.036 364.709 111.208 366.667 112.269 369.431L111.404 371.515C110.232 368.558 108.759 365.993 106.894 363.595Z" fill="#FF5555"/>
<path id="path8845" d="M112.257 363.976C110.274 360.068 107.465 356.719 104.767 353.172L105.711 352.334C108.353 355.188 110.969 358.454 112.841 361.99C114.51 365.144 115.648 368.401 116.388 372.09C115.945 372.09 115.503 372.09 115.06 372.09C114.423 368.805 113.551 366.528 112.257 363.976Z" fill="#FF5555"/>
<path id="path8843" d="M251.142 367.65C254.066 364.937 257.279 362.366 260.904 360.677C266.113 358.249 272.37 356.41 277.602 356.38L277.377 357.644C273.269 358.134 267.739 359.279 263.328 361.26C259.175 363.126 255.944 365.511 251.996 368.888L251.142 367.65Z" fill="#FF5555"/>
<path id="path8841" d="M243.657 367.818C244.307 365.578 247.011 360.73 249.683 357.954C254.801 352.636 261.306 348.525 268.124 345.698C274.531 343.042 279.599 342.21 288.52 341.576C288.125 342.068 287.86 342.789 287.382 343.136C281.579 343.381 276.82 344.233 271.903 346.079C265.276 348.567 258.828 352.066 253.585 356.822C250.155 359.934 247.482 363.906 245.427 368.066L243.657 367.818Z" fill="#FF5555"/>
<path id="path8839" d="M241.267 360.226C243.138 355.371 246.044 350.838 249.56 347.002C252.559 343.73 256.425 341.171 260.185 338.974C260.759 339.153 261.333 339.332 261.907 339.511C258.353 341.839 255.619 343.52 253.016 346.147C249.268 349.929 245.873 354.229 243.579 359.034C242.34 361.628 241.845 364.595 241.372 367.37C240.864 367.664 240.355 367.958 239.846 368.252C240.143 365.525 240.291 362.761 241.267 360.226Z" fill="#FF5555"/>
<path id="path8837" d="M184.796 353.236C184.768 352.82 185.198 352.292 185.534 352.226C187.805 351.781 192.554 352.457 192.554 352.457C199.684 352.675 201.106 352.866 200.401 353.51C200.236 353.661 196.611 353.969 192.343 354.015C192.343 354.015 187.683 354.134 185.614 354.087C185.221 354.078 184.822 353.63 184.796 353.236Z" fill="#FF5555"/>
<path id="path8835" d="M160.014 353.237C160.014 353.237 163.491 352.8 165.236 352.662C166.875 352.532 168.519 352.493 170.161 352.423C171.981 352.346 173.729 352.122 175.623 352.226C175.935 352.243 176.296 352.413 176.438 352.692C176.572 352.955 176.635 353.535 176.343 353.573C173.812 353.905 171.063 353.648 168.423 353.696C165.569 353.749 159.86 353.878 159.86 353.878L160.014 353.237Z" fill="#FF5555"/>
<path id="path8833" d="M179.388 353.134C179.485 350.447 179.728 349.401 179.833 347.523C180.014 345.843 180.018 344.398 180.437 342.755L180.839 342.814C181.049 344.444 181.408 347.073 181.425 347.512C181.677 350.069 181.829 351.401 181.871 353.098C181.884 353.651 181.18 353.798 180.731 353.819C180.229 353.842 179.374 353.528 179.388 353.134Z" fill="#FF5555"/>
<path id="path8831" d="M303.985 386.179C301.857 384.984 300.63 382.629 298.834 380.977C296.89 379.188 294.987 377.304 292.756 375.888C289.945 374.105 286.434 371.968 283.693 371.692C284.665 370.97 285.621 370.345 286.694 369.885C289.318 368.762 292.113 367.907 294.953 367.625C297.152 367.407 299.418 367.563 301.564 368.084C304.184 368.721 306.734 369.813 308.99 371.291C310.909 372.548 312.838 374.025 314.02 375.995C314.665 377.071 315.045 378.378 314.996 379.632C314.913 381.723 314.361 384.054 312.897 385.549C311.787 386.684 310.027 387.134 308.442 387.236C306.918 387.335 305.316 386.927 303.985 386.179Z" fill="#FF5555"/>
<path id="path8829" d="M310.985 383.648C311.62 383.06 311.945 382.141 312.052 381.282C312.218 379.946 311.984 378.489 311.345 377.305C310.262 375.296 308.329 373.777 306.373 372.608C304.678 371.595 302.698 371.084 300.754 370.743C298.258 370.306 295.649 370.1 293.153 370.539C292.213 370.705 290.786 371.14 290.49 371.589C290.983 371.556 294.388 373.812 296.127 375.216C298.411 377.061 299.166 377.266 302.344 381.456C303.309 382.728 304.764 383.651 306.258 384.21C307.03 384.5 307.901 384.566 308.72 384.466C309.516 384.368 310.396 384.193 310.985 383.648Z" fill="white"/>
<path id="path8827" d="M299.806 375.608C298.6 374.449 297.984 373.756 295.95 372.396C297.777 372.396 300.002 372.2 301.907 372.778C304.399 373.534 307.002 374.691 308.674 376.697C309.398 377.566 309.958 378.77 309.825 379.895C309.763 380.425 309.417 380.982 308.949 381.229C308.081 381.688 306.942 381.475 306.01 381.169C304.754 380.756 303.754 379.758 302.763 378.88C301.662 377.905 300.866 376.626 299.806 375.608Z" fill="#FF5555"/>
<path id="path8825" d="M48.5402 384.745C47.2481 384.013 46.181 382.732 45.673 381.335C45.1185 379.811 45.2155 378.022 45.6784 376.467C46.1635 374.837 47.217 373.351 48.4625 372.196C50.2814 370.511 52.6048 369.32 54.9818 368.623C58.4164 367.616 62.1163 367.737 65.6917 367.884C68.1542 367.986 70.5543 368.451 73.0006 369C72.0006 370 72.0006 370 71.0006 371C69.7943 372.206 67.5499 373.532 66.0005 375C63.7388 377.143 61.8691 379.729 59.7766 381.974C58.0885 383.785 55.7499 385.094 53.3364 385.513C51.7411 385.79 49.9492 385.542 48.5402 384.745Z" fill="#FF5555"/>
<path id="path8823" d="M62.3565 375.707C64.1486 374.037 65.939 372.894 68.0005 371C67.0005 371 65.3416 370.583 64.0004 370.5C62.3341 370.396 60.6471 370.282 58.9919 370.5C56.8204 370.786 54.5598 371.136 52.6449 372.199C51.0119 373.106 49.2964 374.311 48.5527 376.027C47.9271 377.47 47.9271 379.304 48.5527 380.747C48.9639 381.696 49.8559 382.485 50.8154 382.864C51.962 383.317 53.348 383.267 54.5126 382.864C56.1017 382.313 57.2309 380.873 58.4773 379.744C59.8605 378.491 60.9913 376.979 62.3565 375.707Z" fill="white"/>
<path id="path8821" d="M50.3745 377.272C50.6269 375.77 52.1727 374.711 53.4663 373.906C55.0876 372.898 57.0843 372.635 58.9632 372.295C60.291 372.055 62.0004 372 63.0005 372C60.3256 374.497 58.36 378.779 54.787 380.357C53.8651 380.764 52.6188 381.008 51.7657 380.471C50.7813 379.852 50.1819 378.419 50.3745 377.272Z" fill="#FF5555"/>
</g>
<g id="g9679">
<path id="path8819" d="M97.6433 180.456C95.9463 180.747 94.0408 180.923 92.7199 182.183C91.2587 183.577 90.3423 185.824 90.078 187.986C89.6538 191.457 91.0575 194.924 91.9214 198.285C92.954 202.302 94.5964 206.267 95.8918 209.994C97.1157 210.085 98.6325 209.189 99.6278 208.446C99.9213 208.18 98.6662 205.998 98.2131 204.761C97.7541 203.507 97.5336 202.951 96.8927 200.974C97.4521 200.159 98.2087 199.578 98.9834 199.081C100.699 197.982 102.666 197.509 104.518 196.76C105.485 198.141 106.13 199.79 106.939 201.303C107.601 202.541 108.205 203.825 108.931 205.015C109.798 204.511 111.253 203.602 112.107 203.07C112.087 202.002 109.986 198.393 108.936 196.048C107.114 191.978 105.803 187.556 103.505 183.818C103.169 183.271 102.791 182.725 102.303 182.36C100.921 181.326 99.2675 180.778 97.6433 180.456C97.6433 180.456 97.6432 180.456 97.6433 180.456ZM96.3824 185.603C97.4415 185.084 98.8516 184.983 99.8348 185.672C101.617 186.92 102.336 189.628 102.805 192.011C102.355 192.863 100.99 192.959 100.065 193.385C98.5843 194.067 97.0695 194.645 95.5718 195.274C94.7617 193.857 94.0607 192.389 93.8294 190.766C93.7245 190.03 93.7458 189.219 94.0107 188.539C94.4854 187.319 95.3139 186.126 96.3824 185.603Z" fill="#FF5555"/>
<path id="path8815" d="M260.686 183.392C258.477 184.202 256.498 185.973 255.012 188.021C253.796 189.695 253.171 191.869 252.6 193.95C252.198 195.415 251.981 196.956 251.906 198.49C251.828 200.078 251.681 201.761 252.16 203.253C252.655 204.796 253.568 206.254 254.742 207.191C256.428 208.537 258.597 209.391 260.643 209.208C261.651 209.117 262.543 208.356 263.383 207.707C264.31 206.989 265.18 206.12 265.857 205.108C265.364 204.342 264.893 203.441 264.256 202.774C263.887 202.387 263.409 202.166 262.997 201.837C261.777 203.15 260.931 205.205 259.335 205.775C258.495 206.074 257.422 205.942 256.728 205.322C256.095 204.756 255.897 203.688 255.79 202.774C255.582 200.995 256.041 199.184 256.408 197.436C256.531 196.91 256.479 196.078 257.187 196.571C259.704 197.045 261.99 198.44 264.4 199.344C265.323 199.69 266.3 200.478 267.175 200.358C267.783 199.004 268.739 197.827 269.171 196.379C269.745 194.455 270.209 192.338 269.902 190.335C269.639 188.615 268.799 186.99 267.771 185.706C266.928 184.654 265.82 183.794 264.626 183.392C263.365 182.968 261.937 182.934 260.686 183.392ZM262.877 186.846C263.601 186.747 264.459 187.094 264.919 187.744C265.807 189 265.82 190.942 265.592 192.54C265.413 193.792 264.621 194.821 264.046 195.905C263.173 196.216 262.279 195.334 261.424 194.953C260.289 194.446 259.165 193.88 258.111 193.184C258.149 192.196 258.885 191.222 259.423 190.348C259.9 189.574 260.475 188.874 261.097 188.253C261.641 187.71 262.163 186.944 262.877 186.846Z" fill="#FF5555"/>
<path id="path8811" d="M242.542 202.343C241.924 202.176 241.322 201.939 240.712 201.737C241.805 198.921 242.971 196.14 244.006 193.294C244.568 191.749 245.192 190.221 245.589 188.61C246.101 186.53 246.327 184.368 246.606 182.23C246.832 180.493 246.96 178.74 247.136 176.995C247.998 177.217 248.822 177.578 249.672 177.839C250.397 178.062 251.132 178.244 251.859 178.457C252.261 178.574 252.66 178.699 253.06 178.82C250.896 185.336 248.885 191.962 247.618 198.781C247.308 200.454 247.271 202.179 247.097 203.878C246.751 203.901 246.236 203.557 245.811 203.379C245.33 203.176 244.874 202.892 244.381 202.73C243.782 202.533 243.149 202.506 242.542 202.343Z" fill="#FF5555"/>
<path id="path8809" d="M226.252 171.821C225.972 177.626 225.927 183.555 224.573 189.156C223.991 191.564 222.824 193.733 221.847 195.965C221.357 197.19 222.768 196.659 223.278 196.886C225.12 197.707 227.087 198.184 229.051 198.432C231.933 198.795 235.115 199.724 237.748 198.328C238.647 197.851 239.2 196.736 239.7 195.753C240.433 194.31 241.159 192.699 241.158 191.028C241.157 189.592 240.635 188.132 239.901 186.971C239.247 185.936 238.249 185.207 237.256 184.629C236.102 183.958 234.821 183.446 233.528 183.393C232.277 183.342 231.086 184.024 229.855 184.29C230.605 180.769 231.677 177.304 233.277 174.17C231.654 172.518 229.352 172.377 227.292 171.908C226.951 171.831 226.599 171.852 226.252 171.821ZM232.797 187.295C233.726 187.604 234.795 188.094 235.254 189.074C235.682 189.986 235.489 191.201 235.2 192.183C234.877 193.281 234.326 194.495 233.415 194.988C231.912 195.8 229.79 195.046 228.442 194.644C228.56 193.26 229.152 191.97 229.239 190.399C229.324 189.285 229.878 188.022 230.986 187.999C231.63 187.898 232.168 187.414 232.797 187.295C232.797 187.295 232.797 187.295 232.797 187.295Z" fill="#FF5555"/>
<path id="path8801" d="M211.557 194.617C211.857 193.094 212.399 192.405 212.447 191.335C213.031 188.599 213.678 185.85 213.772 183.02C212.91 182.082 211.645 182.019 210.526 181.747C209.769 181.562 209.79 181.682 208.214 181.51C207.749 183.507 207.275 186.182 207.084 188.562C206.94 190.372 207.08 192.197 207.078 194.014C204.952 193.56 202.741 193.458 200.719 192.499C201.321 190.859 201.645 189.713 202.11 188.321C202.706 186.537 203.463 184.814 203.903 182.971C204.619 179.97 205.256 176.879 205.258 173.768C205.259 171.504 204.766 169.21 204.28 167.07C205.195 167.064 205.957 167.118 206.784 167.259C208.254 167.509 210.241 167.949 211.125 168.418C210.39 169.809 210.154 171.047 209.834 172.422C209.47 173.988 208.924 175.577 209.128 177.216C210.83 177.864 212.627 178.229 214.423 178.155C214.477 175.432 215.546 172.267 215.535 169.317C217.055 169.188 219.243 170.323 220.767 170.294C219.985 172.225 219.187 174.565 218.63 176.79C217.851 179.897 217.211 183.078 216.961 186.298C216.738 189.169 217.287 190.564 217.12 194.942C215.887 195.072 215.214 195.043 214.262 194.986C213.355 194.931 212.252 194.899 211.557 194.617Z" fill="#FF5555"/>
<g id="g9547">
<path id="path8803" d="M129.863 193.322C129.645 192.382 129.3 191.383 129.491 190.436C129.577 190.006 129.803 189.552 130.142 189.347C131.424 188.572 133.179 190.066 134.484 189.347C135.523 188.776 136.21 187.476 136.652 186.253C138.062 182.356 136.839 177.72 137.861 173.666C138.312 171.878 138.822 169.933 139.992 168.647C141.358 167.147 143.348 166.529 145.192 166.06C147.497 165.475 149.912 165.917 152.272 165.845C152.41 167.434 152.548 169.022 152.685 170.611C149.808 171.164 146.63 170.751 144.046 172.322C142.797 173.082 141.696 174.355 141.098 175.828C139.51 179.748 140.964 184.575 139.928 188.732C139.494 190.474 139.004 192.379 137.854 193.617C136.903 194.64 135.516 195.027 134.239 195.316C133.029 195.589 131.559 196.115 130.541 195.316C130.029 194.913 130.022 194.012 129.863 193.322Z" fill="#FF5555"/>
<path id="path8799" d="M146.866 191.113C146.039 190.253 145.189 189.329 144.708 188.171C144.003 186.475 143.812 184.512 143.778 182.632C143.731 179.95 144.533 176.415 144.825 174.674C145.214 174.674 145.603 174.674 145.992 174.674C146.737 177.18 146.296 182.063 148.057 184.927C148.748 186.05 149.894 186.998 151.083 187.143C151.81 187.231 152.445 185.993 153.139 186.261C153.689 186.473 153.987 187.291 154.074 187.952C154.269 189.436 154.004 191.28 153.044 192.296C152.125 193.267 150.584 193.375 149.363 193.077C148.377 192.837 147.614 191.891 146.866 191.113Z" fill="#FF5555"/>
</g>
<path id="path8797" d="M185.423 192.296C184.567 192.055 183.682 191.221 183.018 190.407C181.913 189.053 180.981 187.404 180.543 185.616C179.753 182.384 179.661 178.782 180.433 175.545C181.021 173.078 182.248 170.695 183.909 168.995C185.627 167.237 187.887 165.927 190.176 165.677C191.954 165.483 193.854 166.08 195.378 167.152C196.817 168.166 198.103 169.736 198.693 171.556C199.134 172.918 198.693 174.464 198.693 175.918C197.375 175.918 196.057 175.918 194.739 175.918C194.253 173.902 194.518 171.405 193.282 169.872C192.579 169 191.383 168.47 190.364 168.666C189.405 168.849 188.735 169.928 188.088 170.762C186.838 172.373 185.61 174.171 185.09 176.245C184.351 179.194 184.31 182.517 185.09 185.452C185.488 186.949 186.172 188.612 187.374 189.347C188.325 189.929 189.67 189.962 190.605 189.347C191.908 188.49 192.269 186.455 192.89 184.884C193.301 183.846 193.448 183.138 193.831 181.637C195.283 181.484 197.141 181.914 198.385 182.63C198.366 183.898 198.338 184.776 197.997 185.752C197.234 187.933 195.911 189.871 194.422 191.48C194.063 191.868 193.634 192.193 193.17 192.383C191.432 193.092 189.494 193.524 187.677 193.158C186.764 192.856 186.101 192.661 185.423 192.296Z" fill="#FF5555"/>
<path id="path8795" d="M165.106 165.465C163.684 166.023 162.51 167.316 161.537 168.633C160.54 169.982 159.746 171.598 159.342 173.306C157.886 179.465 158.942 186.063 158.742 192.442C160.023 192.281 161.304 192.119 162.585 191.958C162.73 188.92 162.861 185.88 162.975 182.84C165.485 182.486 166.127 182.359 167.708 182.424C168.997 182.477 171.27 182.625 171.534 183.079C171.674 186.039 171.813 188.999 171.951 191.958C173.282 191.958 174.613 191.958 175.944 191.958C175.807 187.535 175.619 183.109 175.208 178.708C174.947 175.913 175.229 172.87 174.113 170.37C173.181 168.285 171.618 166.348 169.73 165.465C168.302 164.798 166.565 164.893 165.106 165.465ZM164.866 170.681C165.986 169.832 167.79 169.797 168.889 170.681C170.329 171.839 170.201 174.438 170.7 176.376C170.849 176.955 170.934 177.553 171.051 178.142C168.609 178.142 165.403 178.533 162.961 178.533C162.696 177.764 162.79 176.712 162.945 175.828C163.266 173.998 163.511 171.708 164.866 170.681Z" fill="#FF5555"/>
<g id="g9543">
<path id="path8805" d="M118.256 197.524C117.003 196.232 116.207 194.352 115.733 192.495C115.311 190.847 115.281 189.045 115.515 187.349C115.836 185.035 116.603 182.933 117.692 180.78C118.445 180.618 119.198 180.456 119.951 180.294C119.707 183.311 118.245 186.408 118.974 189.322C119.301 190.624 120.151 191.878 121.211 192.471C122.179 193.013 123.491 191.959 124.441 192.544C124.993 192.883 125.527 193.597 125.514 194.318C125.488 195.702 124.273 196.768 123.327 197.623C122.628 198.255 121.771 198.851 120.882 198.85C119.926 198.849 118.968 198.258 118.256 197.524Z" fill="#FF5555"/>
<path id="path8791" d="M108.381 181.541C107.829 181.279 107.223 180.716 107.159 180.033C107.007 178.412 108.269 176.909 109.328 175.826C111.366 173.741 114.12 172.557 116.804 172.001C119.974 171.345 123.331 171.767 126.45 172.693C128.317 173.248 129.935 174.594 131.677 175.544C131.497 176.042 131.318 176.539 131.138 177.037C129.831 176.64 128.482 176.494 127.139 176.386C125.096 176.223 123.004 175.941 120.994 176.398C119.105 176.828 117.375 177.94 115.647 178.919C114.366 179.644 113.313 180.935 111.941 181.391C110.8 181.77 109.478 182.063 108.381 181.541Z" fill="#FF5555"/>
</g>
</g>
<g id="g9594">
<path id="path8789" d="M175.083 134.825C171.445 134.408 168.002 132.9 164.476 131.881C164.219 131.463 163.962 131.045 163.706 130.627C166.499 130.88 169.368 132.101 172.085 131.385C173.889 130.91 175.703 129.79 176.74 128.189C177.197 127.483 177.059 126.522 177.218 125.689C175.144 125.975 173.058 126.906 170.994 126.547C169.662 126.315 168.298 125.684 167.374 124.664C166.073 123.228 165.199 121.194 165.145 119.226C165.108 117.883 165.627 116.463 166.459 115.433C167.405 114.264 168.869 113.549 170.292 113.156C171.56 112.806 172.973 112.766 174.231 113.156C176.107 113.739 177.502 115.389 179.138 116.505C180.878 115.612 182.467 114.285 184.358 113.826C185.831 113.469 187.463 113.324 188.896 113.826C190.217 114.289 191.433 115.264 192.22 116.456C193.327 118.134 193.841 120.283 193.851 122.316C193.86 124.132 193.308 125.985 192.444 127.565C191.468 129.349 189.981 130.857 188.353 132.022C186.663 133.232 184.678 134.035 182.673 134.5C180.202 135.072 177.6 135.113 175.083 134.825Z" fill="#FF5555"/>
<path id="path8787" d="M179.747 113.356C180.642 110.661 182.296 108.17 182.223 105.391C182.191 104.148 181.8 102.781 180.932 101.89C179.879 100.811 178.236 100.259 176.728 100.22C174.411 100.159 172.281 101.554 170.141 102.444C169.272 102.805 168.484 103.341 167.616 103.702C167.033 103.094 167.101 102.598 167.167 102.287C170.493 100.562 173.959 98.5378 177.695 98.4254C178.764 98.3932 179.874 98.7595 180.767 99.3468C182.037 100.182 183.229 101.392 183.701 102.837C184.319 104.725 183.752 106.848 183.302 108.783C182.927 110.397 182.004 111.831 181.413 113.381C180.769 113.698 180.253 113.497 179.747 113.356Z" fill="#FF5555"/>
<path id="path8785" d="M145.319 99.8446C144.287 98.5476 141.647 96.0746 142.316 94.9239C145.292 94.6207 148.324 94.8664 151.279 94.3743C158.869 93.11 165.946 89.2748 173.569 88.2384C177.09 87.7597 180.718 87.6244 184.222 88.2243C189.782 89.1762 194.68 92.821 200.221 93.8808C205.625 94.9143 211.228 93.9815 216.697 94.4994C215.934 96.0839 214.98 97.5603 214.108 99.082C208.873 99.169 203.581 98.8149 198.492 97.5773C192.087 96.0198 186.598 91.1455 180.081 90.2148C177.454 89.8396 174.716 90.2589 172.16 90.9915C166.862 92.5105 162.524 96.6516 157.278 98.3546C153.623 99.5412 149.76 99.9382 145.936 100.272C145.73 100.13 145.525 99.9868 145.319 99.8446Z" fill="#FF5555"/>
<path id="path8783" d="M136.604 88.6273C135.823 85.7905 133.325 83.7038 132.096 81.1095C135.758 80.99 139.316 82.3622 142.964 82.4801C146.959 82.6093 151.042 82.6895 154.935 81.7507C161.681 80.1241 167.29 74.7892 174.084 73.3954C176.973 72.8027 180.028 72.8858 182.92 73.4655C188.313 74.5467 192.94 78.2795 198.256 79.7131C202.751 80.9252 207.421 81.7303 212.065 81.651C216.231 81.5798 220.387 80.7428 224.39 79.4903C224.372 81.9527 222.145 83.6128 220.848 85.4983C220.249 86.8837 218.678 86.2398 217.55 86.3483C214.427 86.6486 211.271 86.1674 208.157 85.7765C204.424 85.3079 200.656 84.8054 197.063 83.6555C191.925 82.0112 187.509 78.3188 182.311 76.8903C180.144 76.2947 177.838 75.8491 175.619 76.1815C166.01 77.6211 158.052 85.0399 148.67 87.6289C145.845 88.4085 142.897 88.7053 139.975 88.8207C138.851 88.8651 137.615 89.3192 136.604 88.6273Z" fill="#FF5555"/>
<path id="path8781" d="M74 71.9999C71.8787 71.2928 69.7112 70.3186 68 69C70.4729 69.1695 73 69 75 68C77 67 78 66 78 66C74 65 74 65 72 64C69.8501 62.925 68 61 68 59C68 57 69 54.9999 70 54C72 52 74 52 76 52C79.3653 52.1031 81.41 53.41 83 55C84.8368 54.7468 87.1431 54.2821 89.1663 54.6618C90.9886 55.0038 92.9183 55.651 94.2319 56.9595C95.8011 58.5226 97 60 97 63C97 66 95.4813 68.0699 93.5658 69.6838C90.7428 72.0622 87 73 83 73C79.7234 73 77 73 74 71.9999Z" fill="#FF5555"/>
<path id="path8779" d="M265 71C263.271 70.5457 261.688 70.0094 260.037 68.9639C261.444 68.999 263.37 68.428 265 68C266.02 67.7323 266.724 67.5175 268 67C266.207 66.1927 264.051 65.819 262.646 64.4222C261.221 63.0039 260 62 260 59C260 56 260.566 55.4262 261.742 54.1927C263.053 52.8186 265 52 267 52C270 52 273 54 274.115 55.8808C276 55 277.148 54.5194 278.761 54.2368C280.204 53.9841 281.744 53.8095 283.151 54.2103C284.23 54.5175 285 54.9995 286 56C287 57 288 58 288 60C288 62 288 63 287 65C286 67 285 68 284 69C282 71 277 72 273 72C270.438 72 267.599 71.6826 265 71Z" fill="#FF5555"/>
<path id="path8777" d="M173.039 71.1149C171.97 70.9653 170.544 70.632 169.878 70.4172L169.648 70.1471C171.583 70.1451 172.972 70.0633 174.535 69.5667C176.022 69.0944 177.645 68.5288 178.65 67.3354C179.18 66.7057 179.478 65.7647 179.441 64.9955C177.592 65.304 174.338 65.6231 172.211 64.4776C170.324 63.4619 168.577 61.5025 168.298 59.3783C168.053 57.5048 169.113 55.4552 170.473 54.1435C172.196 52.4815 174.808 51.5612 177.201 51.6298C179.161 51.6859 181.072 52.8113 182.583 54C183.731 53.2878 185.288 52.8273 186.654 53.0871C188.535 53.4448 190.654 54.5529 191.406 56.3136C192.649 59.2215 191.59 63.0408 189.83 65.6681C188.214 68.0822 185.139 69.219 182.433 70.2793C180.673 70.9691 178.75 71.2269 176.863 71.3484C175.589 71.4305 174.304 71.292 173.039 71.1149Z" fill="#FF5555"/>
<path id="path8775" d="M220.725 64.0132C209.179 60.9234 200.402 50.2032 188.826 47.2358C182.016 45.4902 174.653 45.4352 167.782 46.901C160.686 48.4148 154.633 53.2146 147.951 56.1132C141.251 59.0193 134.916 63.6525 127.648 64.3083C123.46 64.6861 119.285 63.0845 115.296 61.757C105.56 58.5173 97.3559 51.282 87.4312 48.6792C80.8967 46.9656 73.9921 47.2958 67.2206 47.1782L64.9609 41.2474C75.1699 40.737 86.2236 44.7733 96.2865 48.4527C103.809 51.2031 110.034 57.0895 117.655 59.4417C120.716 60.3864 123.999 61.0091 127.171 60.6133C135.393 59.5871 142.771 54.8327 150.439 51.592C159.001 47.9733 166.623 41.0766 175.808 39.9628C180.615 39.3799 185.531 41.0076 190.084 42.7082C196.337 45.0437 201.672 49.4555 207.5 52.7662C212.488 55.5995 216.925 60.0909 222.52 61.1581C226.608 61.9379 230.952 60.8728 234.885 59.4781C242.279 56.856 247.912 50.3381 255.122 47.216C261.147 44.6072 267.523 42.3539 274.042 41.948C280.69 41.5341 287.583 42.0191 293.82 44.8879L289.278 48.5925C282.532 45.8021 274.962 45.7673 267.856 46.7112C262.706 47.3952 258.015 50.054 253.224 52.0806C244.602 55.7286 237.014 62.3657 227.885 64.2788C225.544 64.7693 223.037 64.6319 220.725 64.0132Z" fill="#FF5555"/>
<path id="path8773" d="M223.05 55.9672C216.138 54.169 210.351 49.2608 203.94 46.0352C196.731 42.4077 190.113 36.6169 182.179 35.4417C176.901 34.66 171.463 36.3486 166.377 38.0039C154.975 41.7146 145.637 50.8668 134.148 54.2771C129.977 55.5153 125.5 56.2987 121.201 55.685C116.219 54.9738 111.808 51.9532 107.182 49.91C97.7122 45.7274 89.0932 39.1157 79.0787 36.644C73.5007 35.2673 67.6145 36.1949 61.8899 35.9274L60.0203 29.6536C65.296 29.4452 71.9386 30.0271 77.5877 31.7153C92.2405 36.0944 103.853 48.5498 118.617 52.2473C122.149 53.132 125.969 53.3388 129.517 52.5229C141.255 49.8237 150.472 40.0185 161.815 35.8914C167.528 33.8129 173.512 32.0534 179.565 31.8914C183.465 31.787 187.45 32.4679 191.115 33.8534C197.391 36.2264 202.552 41.0119 208.333 44.4817C213.112 47.3506 217.336 51.8881 222.772 52.9061C226.331 53.5725 230.082 52.4189 233.49 51.1689C242.586 47.8335 249.548 39.7734 258.534 36.1336C265.046 33.4961 272.018 31.6924 279.004 31.3874C285.894 31.0867 293.042 32.1677 299.501 34.2925L296.012 38.5668C290.177 36.0412 281.053 35.8219 273.581 36.5472C267.402 37.1469 261.482 39.4592 255.701 41.7528C245.944 45.6236 237.788 53.7831 227.581 56.0944C226.105 56.4286 224.516 56.3484 223.05 55.9672Z" fill="#FF5555"/>
<path id="path8771" d="M210 38C210 36 210.556 34.6108 211.677 33.444C213.758 31.2793 217 30 220 30C223 30 225 31 228 32C231 33 234 34 238 34C242 34 246.007 31.7229 249 30L250 31C246.22 33.9649 242 37.8269 237.312 40.0779C231.851 42.6999 226 45 219.818 45C216 45 210 41.8355 210 38Z" fill="#FF5555"/>
<path id="path8762-1" d="M110.894 43.6545C108.681 42.5825 106.228 41.058 105.392 38.7544C104.66 36.7398 104.94 34.0243 106.341 32.3982C108.105 30.3507 110.713 29.9774 114.107 30.001C117.786 30.0266 122.419 33.3178 126.816 33.6913C130.792 34.0291 134.876 33.4385 138.712 32.3405C140.455 31.8413 141.965 30.743 143.621 30.001C144.081 30.2854 144.54 30.5525 145 30.8368C142.021 33.498 139.307 36.5635 135.847 38.5626C130.433 41.6906 124.433 44.4104 118.196 44.9473C115.733 45.1594 113.117 44.7313 110.894 43.6545Z" fill="#FF5555"/>
</g>
<path id="rect4130-4-45" d="M20 29.9998V34.9998H27.6V79.9998H32.6V34.9998H40V29.9998H32.6H27.6H20Z" fill="#FF5555"/>
<path id="path3204-7" d="M180 230C180 230 188 243.333 197.333 252.667C206.667 262 220 270 220 270C220 270 206.667 278 197.333 287.333C188 296.667 180 310 180 310C180 310 172 296.667 162.667 287.333C153.333 278 140 270 140 270C140 270 153.333 262 162.667 252.667C172 243.333 180 230 180 230Z" fill="#FF5555"/>
<path id="path3204-5" d="M330 420C330 420 333 425 336.5 428.5C340 432 345 435 345 435C345 435 340 438 336.5 441.5C333 445 330 450 330 450C330 450 327 445 323.5 441.5C320 438 315 435 315 435C315 435 320 432 323.5 428.5C327 425 330 420 330 420Z" fill="#FF5555"/>
<path id="path3204-5-1" d="M30 89.9998C30 89.9998 33 94.9998 36.5 98.4998C40 102 45 105 45 105C45 105 40 108 36.5 111.5C33 115 30 120 30 120C30 120 27 115 23.5 111.5C20 108 15 105 15 105C15 105 20 102 23.5 98.4998C27 94.9998 30 89.9998 30 89.9998Z" fill="#FF5555"/>
<path id="rect4130-4-1-5" d="M320 510V505H327.6V460H332.6V505H340V510H332.6H327.6H320Z" fill="#FF5555"/>
</g>
</svg>
