<svg width="360" height="540" viewBox="0 0 360 540" fill="none" xmlns="http://www.w3.org/2000/svg">
<g id="AH">
<path id="rect26" d="M329.556 0.5H30.444C13.9064 0.5 0.5 13.9064 0.5 30.444V509.556C0.5 526.094 13.9064 539.5 30.444 539.5H329.556C346.094 539.5 359.5 526.094 359.5 509.556V30.444C359.5 13.9064 346.094 0.5 329.556 0.5Z" fill="white" stroke="black"/>
<g id="g28">
<path id="path30" d="M20 30V35H27.6V80H32.6V35H40V30H32.6H27.6H20Z" fill="#FF5555"/>
<path id="path32" d="M320 510V505H327.6V460H332.6V505H340V510H332.6H327.6H320Z" fill="#FF5555"/>
<path id="path34" d="M180 250C180 250 181.82 238.847 185.333 235.333C188.847 231.819 195.031 230 200 230C204.969 230 211.153 231.82 214.667 235.333C218.181 238.847 220 245.031 220 250C220 254.969 217.333 262 214.667 264.667C212 267.334 209.334 268.667 206.667 271.334C204 274.001 202.667 274.001 200 276.667C197.333 279.334 196 280.667 193.333 283.334C190.666 286.001 186.666 291.334 184 296.667C181.333 302 180 310 180 310C180 310 178.667 302 176 296.667C173.333 291.334 169.333 286 166.667 283.334C164 280.667 162.667 279.334 160 276.667C157.333 274 156 274 153.333 271.334C150.666 268.667 148 267.334 145.333 264.667C142.666 262 140 254.969 140 250C140 245.031 141.82 238.847 145.333 235.333C148.847 231.819 155.031 230 160 230C164.969 230 171.153 231.82 174.667 235.333C178.181 238.847 180 250 180 250Z" fill="#FF5555"/>
<path id="path36" d="M30 97.5C30 97.5 30.682 93.318 32 92C33.318 90.682 35.637 90 37.5 90C39.363 90 41.682 90.682 43 92C44.318 93.318 45 95.637 45 97.5C45 99.363 44 102 43 103C42 104 41 104.5 40 105.5C39 106.5 38.5 106.5 37.5 107.5C36.5 108.5 36 109 35 110C34 111 32.5 113 31.5 115C30.5 117 30 120 30 120C30 120 29.5 117 28.5 115C27.5 113 26 111 25 110C24 109 23.5 108.5 22.5 107.5C21.5 106.5 21 106.5 20 105.5C19 104.5 18 104 17 103C16 102 15 99.363 15 97.5C15 95.637 15.682 93.318 17 92C18.318 90.682 20.637 90 22.5 90C24.363 90 26.682 90.682 28 92C29.318 93.318 30 97.5 30 97.5Z" fill="#FF5555"/>
<path id="path38" d="M330 442.5C330 442.5 330.682 446.682 332 448C333.318 449.318 335.637 450 337.5 450C339.363 450 341.682 449.318 343 448C344.318 446.682 345 444.363 345 442.5C345 440.637 344 438 343 437C342 436 341 435.5 340 434.5C339 433.5 338.5 433.5 337.5 432.5C336.5 431.5 336 431 335 430C334 429 332.5 427 331.5 425C330.5 423 330 420 330 420C330 420 329.5 423 328.5 425C327.5 427 326 429 325 430C324 431 323.5 431.5 322.5 432.5C321.5 433.5 321 433.5 320 434.5C319 435.5 318 436 317 437C316 438 315 440.637 315 442.5C315 444.363 315.682 446.682 317 448C318.318 449.318 320.637 450 322.5 450C324.363 450 326.682 449.318 328 448C329.318 446.682 330 442.5 330 442.5Z" fill="#FF5555"/>
</g>
</g>
</svg>
