<svg width="360" height="540" viewBox="0 0 360 540" fill="none" xmlns="http://www.w3.org/2000/svg">
<g id="AS">
<path id="rect14512" d="M329.556 0.5H30.444C13.9064 0.5 0.5 13.9064 0.5 30.444V509.556C0.5 526.094 13.9064 539.5 30.444 539.5H329.556C346.094 539.5 359.5 526.094 359.5 509.556V30.444C359.5 13.9064 346.094 0.5 329.556 0.5Z" fill="white" stroke="black"/>
<path id="path14514" d="M20 30V35H27.6V80H32.6V35H40V30H32.6H27.6H20Z" fill="black"/>
<path id="path14516" d="M320 510V505H327.6V460H332.6V505H340V510H332.6H327.6H320Z" fill="black"/>
<path id="path14518" d="M180 230C178.667 236.667 177.145 238.392 174.667 242C172.532 245.109 169.545 247.562 166.667 250C163.75 252.471 160.419 254.408 157.334 256.667C153.748 259.292 149.515 261.255 146.667 264.667C143.483 268.482 140 273.031 140 278C140 281.975 142.408 285.975 145.333 288.667C148.856 291.908 153.881 294.111 158.666 294C164.035 293.876 169.466 291.06 173.333 287.333C176.195 284.575 178.666 276.666 178.666 276.666V279.333C178.666 280.666 178.533 286.623 177.333 290C175.929 293.951 173.503 297.579 170.666 300.667C167.656 303.94 159.999 308.667 159.999 308.667V310C159.999 310 170.611 307.779 175.999 307.333C178.657 307.113 181.341 307.113 183.999 307.333C189.387 307.779 199.999 310 199.999 310V308.667C199.999 308.667 192.339 303.94 189.332 300.667C186.496 297.579 184.069 293.951 182.665 290C181.465 286.624 181.332 279.333 181.332 279.333V276.666C181.332 276.666 183.803 284.574 186.665 287.333C190.532 291.059 195.963 293.876 201.332 294C206.118 294.11 211.143 291.908 214.665 288.667C217.59 285.975 219.998 281.976 219.998 278C219.998 273.031 216.515 268.482 213.331 264.667C210.483 261.255 206.251 259.292 202.664 256.667C199.579 254.409 196.248 252.472 193.331 250C190.453 247.562 187.466 245.109 185.331 242C182.853 238.392 181.331 236.667 179.998 230" fill="black"/>
<path id="path14520" d="M30 90C29.5 92.5 28.929 93.147 28 94.5C27.199 95.666 26.079 96.586 25 97.5C23.906 98.427 22.657 99.153 21.5 100C20.155 100.984 18.568 101.72 17.5 103C16.306 104.431 15 106.137 15 108C15 109.491 15.903 110.991 17 112C18.321 113.216 20.205 114.041 22 114C24.01 113.95 26.05 112.897 27.5 111.5C28.573 110.466 29.5 107.5 29.5 107.5V108.5C29.5 109 29.45 111.234 29 112.5C28.473 113.981 27.564 115.342 26.5 116.5C25.373 117.727 22.5 119.5 22.5 119.5V120C22.5 120 26.479 119.167 28.5 119C29.497 118.92 30.5 118.92 31.5 119C33.52 119.167 37.5 120 37.5 120V119.5C37.5 119.5 34.627 117.727 33.5 116.5C32.436 115.342 31.527 113.981 31 112.5C30.55 111.234 30.5 108.5 30.5 108.5V107.5C30.5 107.5 31.427 110.466 32.5 111.5C33.95 112.897 35.987 113.954 38 114C39.795 114.04 41.679 113.216 43 112C44.097 110.99 45 109.491 45 108C45 106.137 43.694 104.431 42.5 103C41.432 101.72 39.845 100.98 38.5 100C37.343 99.153 36.094 98.427 35 97.5C33.921 96.586 32.801 95.666 32 94.5C31.071 93.147 30.5 92.5 30 90Z" fill="black"/>
<path id="path14522" d="M330 450C329.5 447.5 328.929 446.853 328 445.5C327.199 444.334 326.079 443.414 325 442.5C323.906 441.573 322.657 440.847 321.5 440C320.155 439.016 318.568 438.28 317.5 437C316.306 435.569 315 433.863 315 432C315 430.509 315.903 429.009 317 428C318.321 426.784 320.205 425.959 322 426C324.01 426.05 326.05 427.103 327.5 428.5C328.573 429.534 329.5 432.5 329.5 432.5V431.5C329.5 431 329.45 428.766 329 427.5C328.473 426.019 327.564 424.658 326.5 423.5C325.373 422.273 322.5 420.5 322.5 420.5V420C322.5 420 326.479 420.833 328.5 421C329.497 421.08 330.5 421.08 331.5 421C333.52 420.833 337.5 420 337.5 420V420.5C337.5 420.5 334.627 422.273 333.5 423.5C332.436 424.658 331.527 426.019 331 427.5C330.55 428.766 330.5 431.5 330.5 431.5V432.5C330.5 432.5 331.427 429.534 332.5 428.5C333.95 427.103 335.987 426.046 338 426C339.795 425.96 341.679 426.784 343 428C344.097 429.01 345 430.509 345 432C345 433.863 343.694 435.569 342.5 437C341.432 438.28 339.845 439.02 338.5 440C337.343 440.847 336.094 441.573 335 442.5C333.921 443.414 332.801 444.334 332 445.5C331.071 446.853 330.5 447.5 330 450Z" fill="black"/>
</g>
</svg>
