<svg width="360" height="540" viewBox="0 0 360 540" fill="none" xmlns="http://www.w3.org/2000/svg">
<g id="B1">
<path id="rect6472-8" d="M329.556 0.5H30.4444C13.9066 0.5 0.5 13.9066 0.5 30.4445V509.556C0.5 526.093 13.9066 539.5 30.4444 539.5H329.556C346.093 539.5 359.5 526.093 359.5 509.556V30.4445C359.5 13.9066 346.093 0.5 329.556 0.5Z" fill="white" stroke="black"/>
<path id="rect6472-7" d="M33.75 0.5L0.5 67V69L34.75 0.5H33.75ZM53.75 0.5L0.5 107V109L54.75 0.5H53.75ZM63.75 0.5L0.5 127V131L65.75 0.5H63.75ZM73.75 0.5L0.5 147V153L76.75 0.5H73.75ZM83.75 0.5L0.5 167V175L87.75 0.5H83.75ZM93.75 0.5L0.5 187V197L98.75 0.5H93.75ZM123.75 0.5L0.5 247V249L124.75 0.5H123.75ZM133.75 0.5L0.5 267V271L135.75 0.5H133.75ZM143.75 0.5L0.5 287V289L144.75 0.5H143.75ZM173.75 0.5L0.5 347V357L178.75 0.5H173.75ZM183.75 0.5L0.5 367V375L187.75 0.5H183.75ZM193.75 0.5L0.5 387V393L196.75 0.5H193.75ZM203.75 0.5L0.5 407V411L205.75 0.5H203.75ZM213.75 0.5L0.5 427V429L214.75 0.5H213.75ZM233.75 0.5L0.5 467V469L234.75 0.5H233.75ZM243.75 0.5L0.5 487V491L245.75 0.5H243.75ZM253.75 0.5L0.5 507V509.562C0.5 510.621 0.550214 511.658 0.65625 512.688L256.75 0.5H253.75ZM263.75 0.5L3.09375 521.812C3.69374 523.154 4.40466 524.429 5.1875 525.656L267.75 0.5H263.75ZM273.75 0.5L8.84375 530.312C9.91924 531.432 11.0743 532.465 12.3125 533.406L278.75 0.5H273.75ZM303.75 0.5L34.25 539.5H35.25L304.75 0.5H303.75ZM313.75 0.5L44.25 539.5H46.25L315.75 0.5H313.75ZM323.75 0.5L54.25 539.5H55.25L324.75 0.5H323.75ZM25.5625 0.90625C24.8053 1.02963 24.0492 1.16507 23.3125 1.34375L0.5 47V51L25.5625 0.90625ZM14.4375 5.09375C12.6582 6.21759 10.9978 7.53707 9.5 9L0.78125 26.4688C0.609684 27.771 0.5 29.087 0.5 30.4375V33L14.4375 5.09375ZM349.812 8.34375L84.25 539.5H89.25L353.062 11.875C352.069 10.617 350.993 9.42563 349.812 8.34375ZM356.406 17.1562L95.25 539.5H99.25L358.188 21.625C357.714 20.0781 357.112 18.5841 356.406 17.1562ZM359.5 33L106.25 539.5H109.25L359.5 39V33ZM359.5 55L117.25 539.5H119.25L359.5 59V55ZM359.5 77L128.25 539.5H129.25L359.5 79V77ZM359.5 117L148.25 539.5H149.25L359.5 119V117ZM359.5 135L157.25 539.5H159.25L359.5 139V135ZM359.5 153L166.25 539.5H169.25L359.5 159V153ZM359.5 171L175.25 539.5H179.25L359.5 179V171ZM359.5 189L184.25 539.5H189.25L359.5 199V189ZM359.5 249L214.25 539.5H215.25L359.5 251V249ZM359.5 267L223.25 539.5H225.25L359.5 271V267ZM359.5 289L234.25 539.5H235.25L359.5 291V289ZM359.5 349L264.25 539.5H269.25L359.5 359V349ZM359.5 371L275.25 539.5H279.25L359.5 379V371ZM359.5 393L286.25 539.5H289.25L359.5 399V393ZM359.5 415L297.25 539.5H299.25L359.5 419V415ZM359.5 437L308.25 539.5H309.25L359.5 439V437ZM359.5 477L328.25 539.5H329.25L359.5 479V477ZM359.5 495L337.844 538.344C338.649 538.114 339.443 537.856 340.219 537.562L359.5 499V495ZM359.219 513.531L350.5 531C355.169 526.44 358.32 520.35 359.219 513.531Z" fill="#AA5500"/>
<path id="rect6472-2" d="M35.25 0.5L304.75 539.5H305.75L36.25 0.5H35.25ZM44.25 0.5L313.75 539.5H315.75L46.25 0.5H44.25ZM55.25 0.5L324.75 539.5H325.75L56.25 0.5H55.25ZM81.25 0.5L347.688 533.406C348.926 532.465 350.081 531.432 351.156 530.312L86.25 0.5H81.25ZM92.25 0.5L354.812 525.656C355.595 524.429 356.306 523.154 356.906 521.812L96.25 0.5H92.25ZM103.25 0.5L359.344 512.688C359.45 511.658 359.5 510.621 359.5 509.562V507L106.25 0.5H103.25ZM114.25 0.5L359.5 491V487L116.25 0.5H114.25ZM125.25 0.5L359.5 469V467L126.25 0.5H125.25ZM145.25 0.5L359.5 429V427L146.25 0.5H145.25ZM154.25 0.5L359.5 411V407L156.25 0.5H154.25ZM163.25 0.5L359.5 393V387L166.25 0.5H163.25ZM172.25 0.5L359.5 375V367L176.25 0.5H172.25ZM181.25 0.5L359.5 357V347L186.25 0.5H181.25ZM215.25 0.5L359.5 289V287L216.25 0.5H215.25ZM224.25 0.5L359.5 271V267L226.25 0.5H224.25ZM235.25 0.5L359.5 249V247L236.25 0.5H235.25ZM261.25 0.5L359.5 197V187L266.25 0.5H261.25ZM272.25 0.5L359.5 175V167L276.25 0.5H272.25ZM283.25 0.5L359.5 153V147L286.25 0.5H283.25ZM294.25 0.5L359.5 131V127L296.25 0.5H294.25ZM305.25 0.5L359.5 109V107L306.25 0.5H305.25ZM325.25 0.5L359.5 69V67L326.25 0.5H325.25ZM334.438 0.90625L359.5 51V47L336.688 1.34375C335.951 1.16507 335.195 1.02963 334.438 0.90625ZM345.562 5.09375L359.5 33V30.4375C359.5 29.087 359.39 27.771 359.219 26.4688L350.5 9C349.002 7.53707 347.342 6.21759 345.562 5.09375ZM10.1875 8.34375C9.00721 9.42563 7.93111 10.617 6.9375 11.875L270.75 539.5H275.75L10.1875 8.34375ZM3.59375 17.1562C2.88849 18.5841 2.28597 20.0781 1.8125 21.625L260.75 539.5H264.75L3.59375 17.1562ZM0.5 33V39L250.75 539.5H253.75L0.5 33ZM0.5 55V59L240.75 539.5H242.75L0.5 55ZM0.5 77V79L230.75 539.5H231.75L0.5 77ZM0.5 117V119L210.75 539.5H211.75L0.5 117ZM0.5 135V139L200.75 539.5H202.75L0.5 135ZM0.5 153V159L190.75 539.5H193.75L0.5 153ZM0.5 171V179L180.75 539.5H184.75L0.5 171ZM0.5 189V199L170.75 539.5H175.75L0.5 189ZM0.5 249V251L144.75 539.5H145.75L0.5 249ZM0.5 267V271L134.75 539.5H136.75L0.5 267ZM0.5 289V291L124.75 539.5H125.75L0.5 289ZM0.5 349V359L90.75 539.5H95.75L0.5 349ZM0.5 371V379L80.75 539.5H84.75L0.5 371ZM0.5 393V399L70.75 539.5H73.75L0.5 393ZM0.5 415V419L60.75 539.5H62.75L0.5 415ZM0.5 437V439L50.75 539.5H51.75L0.5 437ZM0.5 477V479L30.75 539.5H31.75L0.5 477ZM0.5 495V499L19.7812 537.562C20.5565 537.856 21.3514 538.114 22.1562 538.344L0.5 495ZM0.78125 513.531C1.6796 520.35 4.83142 526.44 9.5 531L0.78125 513.531Z" fill="#5555AA"/>
</g>
</svg>
