<svg width="360" height="540" viewBox="0 0 360 540" fill="none" xmlns="http://www.w3.org/2000/svg">
<g id="JR">
<path id="rect6472-4" d="M329.556 0.5H30.4444C13.9066 0.5 0.5 13.9066 0.5 30.4445V509.556C0.5 526.093 13.9066 539.5 30.4444 539.5H329.556C346.093 539.5 359.5 526.093 359.5 509.556V30.4445C359.5 13.9066 346.093 0.5 329.556 0.5Z" fill="white" stroke="black"/>
<g id="g4207">
<path id="path32582" d="M139.75 230.5C139.75 230.5 136.692 236.89 135 240C133.197 243.314 131.033 246.425 129.25 249.75C127.806 252.443 126.985 255.484 125.25 258C122.974 261.3 119.859 263.94 117 266.75C113.382 270.306 105.75 277 105.75 277C105.75 277 114.419 280.453 119 281C123.475 281.534 128.065 279.445 132.5 280.25C134.74 280.656 136.51 282.595 138.75 283C141.625 283.519 144.766 283.528 147.5 282.5C152.446 280.64 155.343 275.247 160 272.75C162.555 271.38 165.649 271.279 168.25 270C170.999 268.648 173.144 266.259 175.874 264.871C178.045 263.766 180.434 263.154 182.741 262.373C184.852 261.658 187.008 261.08 189.122 260.371C191.346 259.624 195.75 258 195.75 258C195.75 258 198.433 255.349 199.75 254C201.438 252.27 203.099 250.515 204.75 248.75C207.611 245.692 213.25 239.5 213.25 239.5L212 237.75C212 237.75 208.062 241.07 205.836 242.336C203.759 243.516 201.365 244.037 199.22 245.086C196.993 246.174 194.888 247.496 192.75 248.75C190.395 250.131 185.75 253 185.75 253L184.5 251.25C184.5 251.25 187.594 248.282 188.75 246.5C190.442 243.892 191.752 240.989 192.561 237.987C193.497 234.512 193.915 230.842 193.695 227.25C193.476 223.693 191.28 216.836 191.28 216.836C191.28 216.836 186.703 222.228 183.689 223.939C180.088 225.984 175.722 226.205 171.75 227.379C169.412 228.07 167.057 228.712 164.75 229.5C162.978 230.105 161.356 231.253 159.5 231.5C156.179 231.941 152.846 230.667 149.5 230.5C146.254 230.338 139.75 230.5 139.75 230.5Z" fill="#AA0000" stroke="black" stroke-linecap="round" stroke-linejoin="round"/>
<path id="path32475" d="M236.369 215.846C236.369 215.846 244.066 223.286 247.816 227.105C249.544 228.865 250.566 231.698 252.907 232.475C254.345 232.953 256.171 232.605 257.387 231.701C260.348 229.501 262.337 221.802 262.337 221.802C262.337 221.802 265.749 225.824 267.994 227.105C270.553 228.565 273.562 229.163 276.479 229.58C278.579 229.88 280.729 229.755 282.843 229.58C283.557 229.521 284.964 229.227 284.964 229.227C284.964 229.227 278.935 238.58 276.321 243.485C274.141 247.575 273.26 252.397 270.468 256.097C268.405 258.831 265.95 261.76 262.69 262.814C260.101 263.651 257.159 262.906 254.559 262.107C250.171 260.759 246.524 257.666 242.538 255.39C236.851 252.142 231.352 248.559 225.567 245.49C222.68 243.958 219.52 242.947 216.728 241.247C214.921 240.147 211.662 237.425 211.662 237.425C211.662 237.425 215.81 230.777 217.082 227.105C218.141 224.047 218.85 217.559 218.85 217.559C218.85 217.559 225.307 218.404 228.512 218.046C231.215 217.744 236.369 215.846 236.369 215.846Z" fill="#AA0000" stroke="black" stroke-linecap="round" stroke-linejoin="round"/>
<g id="path32461">
<path d="M186.75 175.5C185.167 175.333 183.572 174.745 182 175C181.006 175.161 180.078 175.676 179.25 176.25C178.766 176.586 178.417 177.083 178 177.5C175.917 176.917 173.637 176.807 171.75 175.75C168.972 174.194 166.745 171.732 164.75 169.25C163.72 167.969 163.365 166.207 162.25 165C160.869 163.506 159.059 162.43 157.25 161.5C155.914 160.813 154.417 160.5 153 160C154.5 162.75 156.392 165.32 157.5 168.25C158.165 170.009 158.017 172.019 158.75 173.75C159.643 175.857 161.25 177.583 162.5 179.5C159.25 180.333 155.984 181.105 152.75 182C149.65 182.858 146.448 183.462 143.5 184.75C141.103 185.797 138.938 187.318 136.75 188.75C134.602 190.156 132.583 191.75 130.5 193.25C130.667 193.917 130.833 194.583 131 195.25C133.833 195.083 136.662 194.747 139.5 194.75C142.255 194.752 145.111 194.458 147.75 195.25C150.789 196.162 153.052 198.826 156 200C157.99 200.793 160.172 200.977 162.25 201.5C163.838 201.899 165.417 202.333 167 202.75C164.583 205.583 162.084 208.348 159.75 211.25C157.588 213.939 155.848 216.973 153.5 219.5C151.611 221.533 149.596 223.518 147.25 225C145.104 226.355 142.691 227.301 140.25 228C139.196 228.302 138.083 228.333 137 228.5C137.167 229 137.333 229.5 137.5 230C140 230 142.503 229.879 145 230C147.592 230.125 150.168 230.487 152.75 230.75C155.085 230.988 157.41 231.683 159.75 231.5C161.987 231.325 164.064 230.255 166.25 229.75C168.814 229.158 171.436 228.842 174 228.25C176.186 227.745 178.427 227.36 180.5 226.5C182.811 225.542 185.085 224.359 187 222.75C188.58 221.422 189.47 219.583 190.97 218C191.303 221.583 192.444 225.131 192.5 228.75C192.546 231.768 191.952 234.766 191.5 237.75C191.17 239.931 191.154 242.237 190.25 244.25C188.96 247.124 186.417 249.25 184.5 251.75C184.917 252.167 185.333 252.583 185.75 253C188.583 251.25 191.21 249.11 194.25 247.75C196.392 246.792 198.823 246.626 201 245.75C203.524 244.734 206.168 243.751 208.25 242C210.253 240.316 211.675 238.006 213 235.75C214.474 233.24 215.569 230.508 216.5 227.75C217.515 224.743 218 221.583 218.75 218.5C221.583 218.667 224.438 219.387 227.25 219C229.782 218.652 232.012 217.089 234.5 216.5C235.727 216.21 237 216.167 238.25 216C236.667 214.417 234.993 212.918 233.5 211.25C232.077 209.66 230.903 207.859 229.5 206.25C227.989 204.518 226.328 202.922 224.75 201.25C223.496 199.921 222.25 198.583 221 197.25" fill="#FFFF55"/>
<path d="M186.75 175.5C185.167 175.333 183.572 174.745 182 175C181.006 175.161 180.078 175.676 179.25 176.25C178.766 176.586 178.417 177.083 178 177.5C175.917 176.917 173.637 176.807 171.75 175.75C168.972 174.194 166.745 171.732 164.75 169.25C163.72 167.969 163.365 166.207 162.25 165C160.869 163.506 159.059 162.43 157.25 161.5C155.914 160.813 154.417 160.5 153 160C154.5 162.75 156.392 165.32 157.5 168.25C158.165 170.009 158.017 172.019 158.75 173.75C159.643 175.857 161.25 177.583 162.5 179.5C159.25 180.333 155.984 181.105 152.75 182C149.65 182.858 146.448 183.462 143.5 184.75C141.103 185.797 138.938 187.318 136.75 188.75C134.602 190.156 132.583 191.75 130.5 193.25C130.667 193.917 130.833 194.583 131 195.25C133.833 195.083 136.662 194.747 139.5 194.75C142.255 194.752 145.111 194.458 147.75 195.25C150.789 196.162 153.052 198.826 156 200C157.99 200.793 160.172 200.977 162.25 201.5C163.838 201.899 165.417 202.333 167 202.75C164.583 205.583 162.084 208.348 159.75 211.25C157.588 213.939 155.848 216.973 153.5 219.5C151.611 221.533 149.596 223.518 147.25 225C145.104 226.355 142.691 227.301 140.25 228C139.196 228.302 138.083 228.333 137 228.5C137.167 229 137.333 229.5 137.5 230C140 230 142.503 229.879 145 230C147.592 230.125 150.168 230.487 152.75 230.75C155.085 230.988 157.41 231.683 159.75 231.5C161.987 231.325 164.064 230.255 166.25 229.75C168.814 229.158 171.436 228.842 174 228.25C176.186 227.745 178.427 227.36 180.5 226.5C182.811 225.542 185.085 224.359 187 222.75C188.58 221.422 189.47 219.583 190.97 218C191.303 221.583 192.444 225.131 192.5 228.75C192.546 231.768 191.952 234.766 191.5 237.75C191.17 239.931 191.154 242.237 190.25 244.25C188.96 247.124 186.417 249.25 184.5 251.75C184.917 252.167 185.333 252.583 185.75 253C188.583 251.25 191.21 249.11 194.25 247.75C196.392 246.792 198.823 246.626 201 245.75C203.524 244.734 206.168 243.751 208.25 242C210.253 240.316 211.675 238.006 213 235.75C214.474 233.24 215.569 230.508 216.5 227.75C217.515 224.743 218 221.583 218.75 218.5C221.583 218.667 224.438 219.387 227.25 219C229.782 218.652 232.012 217.089 234.5 216.5C235.727 216.21 237 216.167 238.25 216C236.667 214.417 234.993 212.918 233.5 211.25C232.077 209.66 230.903 207.859 229.5 206.25C227.989 204.518 226.328 202.922 224.75 201.25C223.496 199.921 222.25 198.583 221 197.25" stroke="black" stroke-linecap="round" stroke-linejoin="round"/>
</g>
<path id="path32413" d="M206.652 137.303C206.652 137.303 209.056 134.512 210.188 133.06C211.173 131.795 212.555 130.706 213.016 129.171C213.762 126.685 212.846 123.982 212.662 121.393C212.445 118.322 212.998 115.027 211.779 112.2C211.034 110.475 209.438 109.242 208.066 107.958C207.146 107.096 205.061 105.66 205.061 105.66L208.066 103.538C208.066 103.538 209.627 104.967 210.541 105.483C213.01 106.876 216.103 106.97 218.496 108.488C220.713 109.895 222.165 112.253 224.153 113.968C226.571 116.055 229.482 117.558 231.754 119.802C233.516 121.541 234.961 123.587 236.35 125.635C237.803 127.777 239.203 129.982 240.24 132.353C241.599 135.461 242.738 138.721 243.245 142.076C243.72 145.222 243.686 148.47 243.245 151.622C243.007 153.321 242.17 154.889 241.831 156.571C241.537 158.026 241.3 160.991 241.3 160.991L235.643 162.228C235.643 162.228 235.105 157.036 234.76 154.45C234.451 152.145 234.354 149.787 233.699 147.556C233.209 145.885 231.578 142.783 231.578 142.783C231.578 142.783 230.511 146.612 229.456 148.263C228.177 150.264 226.563 152.201 224.506 153.389C223.455 153.997 220.971 154.273 220.971 154.273C220.971 154.273 217.611 151.519 216.552 149.677C215.482 147.818 215.017 145.622 214.784 143.49C214.572 141.553 215.137 137.656 215.137 137.656C215.137 137.656 213.046 138.834 212.132 139.601C210.343 141.101 207.359 144.727 207.359 144.727C207.359 144.727 206.77 141.795 206.652 140.308C206.573 139.309 206.652 137.303 206.652 137.303Z" fill="#AA0000" stroke="black" stroke-linecap="round" stroke-linejoin="round"/>
<path id="path3764-0" d="M290.5 156.75C294.532 157.252 298.54 159.217 301.5 162C304.626 164.938 306.575 169.124 307.75 173.25C309.262 178.559 309.007 184.291 308.541 189.791C307.979 196.409 307.038 203.221 304.25 209.25C301.878 214.378 298.324 219.113 294 222.75C289.836 226.253 284.931 229.909 279.5 230.25C275.158 230.522 270.861 228.176 267.25 225.75C264.347 223.8 261.819 221.088 260.176 218C258.565 214.972 258.122 211.41 257.75 208C257.317 204.023 257.564 199.977 258 196C258.463 191.776 259.178 187.538 260.5 183.5C261.73 179.744 263.535 176.179 265.5 172.75C267.113 169.936 268.753 167.05 271.041 164.75C273.397 162.381 276.178 160.314 279.25 159C282.766 157.496 286.705 156.277 290.5 156.75Z" fill="#FFAA55" stroke="black" stroke-linecap="round" stroke-linejoin="round"/>
<path id="path3766-9" d="M286.25 178.25C288.782 178.818 291.066 181.078 292 183.5C293.265 186.781 291.875 190.595 291 194C290.164 197.254 289.08 200.612 287 203.25C285.452 205.213 283.47 207.364 281 207.75C278.735 208.104 275.988 207.245 274.5 205.5C272.633 203.311 272.911 199.876 273 197C273.109 193.473 274.072 189.945 275.48 186.709C276.509 184.342 277.684 181.797 279.75 180.25C281.565 178.892 284.038 177.754 286.25 178.25Z" fill="#AA5500" stroke="black" stroke-linecap="round" stroke-linejoin="round"/>
<path id="path3768-4" d="M286.872 182.141C286.872 182.141 283.896 182.244 281.48 188.357C280.279 191.395 279.621 195.114 279.554 198.581C279.472 202.844 281.074 203.541 281.074 203.541" stroke="black" stroke-linecap="round" stroke-linejoin="round"/>
<path id="path3768-1" d="M286.684 180.123C286.684 180.123 283.223 179.802 279.669 187.286C278.617 189.501 277.656 194.757 277.473 198.592C277.186 204.584 280.751 205.308 280.751 205.308" stroke="black" stroke-linecap="round" stroke-linejoin="round"/>
<path id="path3768-7" d="M283.312 179.434C283.312 179.434 279.887 181.754 277.378 187.507C275.217 192.464 275.318 194.838 275.182 198.449C274.91 205.705 278.46 206.153 278.46 206.153" stroke="black" stroke-linecap="round" stroke-linejoin="round"/>
<path id="path3802-8" d="M277.397 163.378C277.397 163.378 274.574 165.12 273.341 166.217C272.531 166.939 271.178 168.65 271.178 168.65" stroke="black" stroke-linecap="round" stroke-linejoin="round"/>
<path id="path3804-8" d="M277.262 166.623C277.262 166.623 275.105 168.148 274.152 169.056C273.204 169.959 271.584 172.03 271.584 172.03" stroke="black" stroke-linecap="round" stroke-linejoin="round"/>
<path id="path3806-2" d="M279.154 168.515C279.154 168.515 275.976 170.817 274.558 172.165C273.47 173.199 271.584 175.545 271.584 175.545" stroke="black" stroke-linecap="round" stroke-linejoin="round"/>
<path id="path3808-4" d="M279.695 171.354C279.695 171.354 277.216 173.003 276.18 174.058C274.961 175.298 273.071 178.248 273.071 178.248" stroke="black" stroke-linecap="round" stroke-linejoin="round"/>
<path id="path3810" d="M279.83 174.463C279.83 174.463 277.548 176.044 276.586 177.032C275.957 177.677 274.964 179.195 274.964 179.195" stroke="black" stroke-linecap="round" stroke-linejoin="round"/>
<path id="path3812-5" d="M280.506 177.302C280.506 177.302 278.947 178.716 278.208 179.465C277.693 179.987 276.721 181.087 276.721 181.087" stroke="black" stroke-linecap="round" stroke-linejoin="round"/>
<path id="path3814" d="M259.823 206.231C260.003 208.575 259.824 211.006 260.499 213.261C261.025 215.018 262.166 216.505 263.067 218.128" stroke="black" stroke-linecap="round" stroke-linejoin="round"/>
<path id="path3816-5" d="M261.986 204.474C262.121 206.637 262.093 209.253 262.797 211.504C263.225 212.87 264.014 214.027 264.825 215.289" stroke="black" stroke-linecap="round" stroke-linejoin="round"/>
<path id="path3818" d="M264.149 202.311C264.284 204.294 264.085 206.328 264.554 208.259C264.903 209.691 265.726 210.963 266.312 212.315" stroke="black" stroke-linecap="round" stroke-linejoin="round"/>
<path id="path3820-1" d="M266.177 200.689C266.267 202.266 266.085 203.883 266.447 205.42C266.761 206.757 267.529 207.944 268.069 209.205" stroke="black" stroke-linecap="round" stroke-linejoin="round"/>
<path id="path3822-7" d="M268.205 199.337C268.295 200.869 268.047 202.46 268.475 203.933C268.734 204.824 269.376 205.555 269.827 206.367" stroke="black" stroke-linecap="round" stroke-linejoin="round"/>
<path id="path3824-1" d="M270.908 197.309C270.908 198.796 270.584 200.319 270.908 201.77C271.093 202.597 271.629 203.302 271.99 204.068" stroke="black" stroke-linecap="round" stroke-linejoin="round"/>
<path id="path3826-1" d="M299.837 212.855C298.305 214.658 296.922 216.598 295.241 218.263C293.491 219.996 291.456 221.417 289.563 222.994" stroke="black" stroke-linecap="round" stroke-linejoin="round"/>
<path id="path3828-5" d="M297.134 211.774C296.097 213.351 295.111 214.948 293.822 216.303C292.563 217.625 291.05 218.668 289.563 219.75" stroke="black" stroke-linecap="round" stroke-linejoin="round"/>
<path id="path3830-2" d="M295.782 210.287C294.746 211.909 293.795 213.152 292.538 214.342C291.693 215.142 290.69 215.784 289.699 216.37" stroke="black" stroke-linecap="round" stroke-linejoin="round"/>
<path id="path3832-7" d="M294.295 208.665C293.619 209.656 293.014 210.438 292.267 211.233C291.48 212.07 290.555 212.9 289.699 213.531" stroke="black" stroke-linecap="round" stroke-linejoin="round"/>
<path id="path3834-6" d="M292.808 206.975C292.357 207.831 292.029 208.339 291.524 208.935C291.029 209.519 290.194 210.219 289.834 210.49" stroke="black" stroke-linecap="round" stroke-linejoin="round"/>
<path id="path3836-1" d="M291.862 204.474C291.501 205.15 291.252 205.689 290.848 206.231C290.515 206.679 290.059 207.133 289.699 207.448" stroke="black" stroke-linecap="round" stroke-linejoin="round"/>
<path id="path3838" d="M290.307 202.379C290.172 202.874 289.86 203.354 289.564 203.798C289.368 204.091 289.248 204.249 288.888 204.609" stroke="black" stroke-linecap="round" stroke-linejoin="round"/>
<path id="path31851" d="M181.246 72.7372C177.6 67.5894 168.281 70.0325 162.331 72.1267C154.877 74.7499 147.617 78.7726 141.097 83.4437C135.005 87.808 129.212 93.0853 124.704 98.8282C120.771 103.838 116.945 111.44 120.652 116.01C124.625 120.909 133.657 117.764 139.567 115.563C146.962 112.809 153.58 109.653 159.679 105.224C165.935 100.68 172.12 95.4877 176.146 88.8864C179.085 84.0668 184.509 77.3438 181.246 72.7372Z" fill="#FFAA55" stroke="black" stroke-linecap="round" stroke-linejoin="round"/>
<path id="path31851-8" d="M165.75 83.3377C163.936 80.855 159.436 82.7677 156.538 83.8322C152.908 85.1657 149.543 87.1138 146.465 89.4061C143.512 91.6061 140.767 94.2178 138.571 97.137C136.656 99.6835 134.5 103.089 136.24 105.335C138.121 107.763 142.574 106.226 145.452 105.107C149.053 103.707 152.078 101.246 155.068 98.8676C157.815 96.6817 160.71 94.4792 162.64 91.5467C164.249 89.1027 167.477 85.7001 165.75 83.3377Z" fill="#AA5500" stroke="black" stroke-linecap="round" stroke-linejoin="round"/>
<path id="path3768-6" d="M163.818 84.9863C160.489 86.2042 157.579 88.5083 154.665 90.5806C151.315 92.9628 148.13 95.5915 145.137 98.4082C142.818 100.59 140.11 102.935 138.636 105.406" stroke="black" stroke-linecap="round" stroke-linejoin="round"/>
<path id="path3768-1-5" d="M164.147 84.1613C159.951 84.8042 156.336 87.4064 152.807 89.694C149.526 91.8208 146.567 94.4478 143.806 97.2172C141.47 99.5612 138.715 102.109 137.463 104.856" stroke="black" stroke-linecap="round" stroke-linejoin="round"/>
<path id="path3768-7-0" d="M164.462 83.0948C161.069 83.1536 155.695 85.7996 151.789 88.1228C148.323 90.1847 145.221 92.8988 142.499 95.8758C140.051 98.5539 137.227 101.61 136.301 104.824" stroke="black" stroke-linecap="round" stroke-linejoin="round"/>
<path id="path32403" d="M197.813 155.157C197.813 155.157 198.584 147.178 199.581 143.313C200.382 140.208 201.206 136.996 202.94 134.297C204.021 132.615 207.182 130.055 207.182 130.055C207.182 130.055 206.251 135.106 206.299 137.656C206.341 139.981 207.359 144.551 207.359 144.551C207.359 144.551 209.96 141.721 211.425 140.485C212.75 139.367 215.668 137.479 215.668 137.479C215.668 137.479 214.901 142.695 215.314 145.258C215.656 147.375 216.421 149.484 217.612 151.268C218.469 152.551 220.971 154.45 220.971 154.45C220.971 154.45 224.682 153.378 226.098 152.152C227.679 150.782 228.454 148.685 229.456 146.849C230.328 145.252 231.754 141.899 231.754 141.899C231.754 141.899 234.158 148.044 234.76 151.268C235.128 153.241 234.943 155.279 235.113 157.278C235.249 158.873 235.643 162.051 235.643 162.051C235.643 162.051 240.021 161.306 242.184 160.814C243.968 160.408 245.966 160.416 247.487 159.4C249.34 158.163 250.415 156.011 251.553 154.096C252.443 152.6 253.675 149.323 253.675 149.323C253.675 149.323 254.733 155.463 254.382 158.516C254.113 160.849 253.691 163.371 252.26 165.233C250.388 167.671 247.023 168.454 244.482 170.183C242.495 171.536 240.437 172.819 238.649 174.426C237.407 175.541 235.29 178.138 235.29 178.138C235.29 178.138 229.66 175.475 226.981 173.895C224.532 172.451 222.195 170.816 219.91 169.122C217.959 167.675 216.252 165.909 214.253 164.526C212.234 163.129 210.04 162 207.889 160.814C206.435 160.012 204.921 159.323 203.47 158.516C201.554 157.45 197.813 155.157 197.813 155.157Z" fill="#FFFF55" stroke="black" stroke-linecap="round" stroke-linejoin="round"/>
<path id="path32405" d="M211.248 127.492C211.248 129.395 209.863 130.939 208.155 130.939C206.446 130.939 205.061 129.395 205.061 127.492C205.061 125.588 206.446 124.044 208.155 124.044C209.863 124.044 211.248 125.588 211.248 127.492Z" fill="#FF5555" stroke="black" stroke-linecap="round" stroke-linejoin="round"/>
<path id="path32407" d="M220.971 136.242C220.971 137.707 219.665 138.894 218.054 138.894C216.443 138.894 215.137 137.707 215.137 136.242C215.137 134.778 216.443 133.59 218.054 133.59C219.665 133.59 220.971 134.778 220.971 136.242Z" fill="#FF5555" stroke="black" stroke-linecap="round" stroke-linejoin="round"/>
<path id="path32409" d="M235.467 139.07C235.467 140.925 233.963 142.429 232.108 142.429C230.253 142.429 228.749 140.925 228.749 139.07C228.749 137.215 230.253 135.712 232.108 135.712C233.963 135.712 235.467 137.215 235.467 139.07Z" fill="#FF5555" stroke="black" stroke-linecap="round" stroke-linejoin="round"/>
<path id="path32411" d="M257.917 146.495C257.917 148.643 256.413 150.384 254.558 150.384C252.703 150.384 251.2 148.643 251.2 146.495C251.2 144.347 252.703 142.606 254.558 142.606C256.413 142.606 257.917 144.347 257.917 146.495Z" fill="#FF5555" stroke="black" stroke-linecap="round" stroke-linejoin="round"/>
<path id="path32415" d="M197.5 155.25C197.5 155.25 194.35 154.724 193 153.938C192.096 153.411 190.75 151.75 190.75 151.75C190.75 151.75 191.847 154.728 192.938 155.812C193.473 156.345 194.938 156.875 194.938 156.875C194.938 156.875 191.995 155.747 190.5 155.25C189.674 154.975 188 154.5 188 154.5C188 154.5 189.343 156.833 190.402 157.598C191.39 158.311 193.848 158.815 193.848 158.815L188 158.25C188 158.25 189.201 158.682 189.75 159C190.832 159.626 192.75 161.25 192.75 161.25C192.75 161.25 191.436 161.709 190.75 161.75C189.409 161.831 186.75 161.25 186.75 161.25C186.75 161.25 187.825 162.383 188.5 162.75C189.798 163.455 192.75 164 192.75 164C192.75 164 192.737 164.876 192.435 165.12C191.867 165.577 190.979 165.274 190.25 165.25C188.907 165.207 187.499 165.247 186.25 164.75C184.81 164.177 182.5 162 182.5 162C182.5 162 183.784 166.056 185.438 167.125C186.51 167.819 187.989 167.299 189.25 167.5C190.578 167.712 193.188 168.375 193.188 168.375C193.188 168.375 189.393 168.593 187.5 168.75C186.665 168.819 185 169 185 169L190 171.25L186.25 172L190 172.75L188 173.75C188 173.75 189.78 174.849 190.75 174.75C192.015 174.621 194 172.75 194 172.75C194 172.75 193.674 169.584 193.75 168C193.831 166.317 193.659 164.46 194.5 163C195.299 161.613 196.65 160.037 198.25 160C199.383 159.974 200.227 161.171 201 162C201.536 162.575 202.068 163.235 202.25 164C202.463 164.895 201.318 166.132 202 166.75C203.32 167.555 205.526 166.199 207.25 165.75C208.525 165.418 210.041 165.404 211 164.5C211.327 164.192 211.5 163.25 211.5 163.25L206.25 160L202 158L197.5 155.25Z" fill="#FFAA55" stroke="black" stroke-linecap="round" stroke-linejoin="round"/>
<path id="path32417" d="M188.644 174.887C188.644 174.887 186.573 176.675 185.692 177.715C184.987 178.548 184.117 179.363 183.848 180.421C183.441 182.018 183.981 183.732 184.34 185.34C184.662 186.782 185.16 188.196 185.815 189.521C186.446 190.795 187.269 191.974 188.152 193.087C188.891 194.019 189.781 194.819 190.611 195.67C191.259 196.334 192.011 196.904 192.579 197.637C193.569 198.916 194.061 200.531 195.039 201.819C196.003 203.088 197.344 204.032 198.359 205.262C199.221 206.305 199.565 207.838 200.695 208.582C201.36 209.02 202.236 209.085 203.032 209.074C204.115 209.059 205.357 209.007 206.192 208.317C207.149 207.525 207.326 206.097 207.725 204.921C207.994 204.131 207.873 203.202 208.297 202.484C208.73 201.753 209.49 201.261 210.19 200.78C210.751 200.394 211.392 200.139 212.009 199.851C213.093 199.345 214.201 198.892 215.312 198.448C216.613 197.928 218.02 197.649 219.247 196.972C220.554 196.252 221.85 195.406 222.813 194.267C223.441 193.525 223.763 192.568 224.166 191.684C224.779 190.339 225.782 187.553 225.782 187.553L227.135 187.43L227.258 185.955C227.258 185.955 228.929 185.019 229.718 184.479C230.103 184.215 230.548 183.995 230.824 183.618C231.314 182.948 231.12 181.89 231.685 181.282C232.022 180.919 232.667 180.995 233.038 180.667C233.864 179.935 234.76 177.838 234.76 177.838C234.76 177.838 229.902 175.734 227.627 174.395C225.725 173.276 224.027 171.843 222.216 170.583C220.91 169.674 219.543 168.848 218.281 167.877C217.082 166.956 216.067 165.806 214.838 164.926C213.986 164.316 212.132 163.327 212.132 163.327C212.132 163.327 211.465 164.623 210.902 165.049C210.034 165.706 208.865 165.824 207.828 166.156C206.814 166.48 205.784 166.751 204.754 167.017C204.06 167.195 203.352 167.704 202.663 167.508C202.161 167.366 201.7 166.903 201.556 166.402C201.405 165.876 201.951 165.349 201.925 164.803C201.888 164.026 201.571 163.266 201.187 162.589C200.815 161.932 200.36 161.257 199.712 160.868C199.063 160.479 198.239 160.229 197.498 160.376C196.516 160.571 195.66 161.313 195.039 162.098C194.49 162.79 194.238 163.693 194.055 164.557C193.825 165.641 193.977 166.771 193.932 167.877C193.895 168.779 193.769 169.681 193.809 170.583C193.836 171.203 194.217 171.829 194.055 172.427C193.811 173.33 193.134 174.159 192.333 174.641C191.727 175.006 190.949 174.975 190.243 175.01C189.709 175.036 188.644 174.887 188.644 174.887Z" fill="#FFAAAA" stroke="black" stroke-linecap="round" stroke-linejoin="round"/>
<path id="path32419" d="M211.763 176.24C211.763 176.24 214.019 177.26 215.206 177.592C216.368 177.917 217.597 177.935 218.773 178.207C219.771 178.438 221.229 178.171 221.724 179.068C222.013 179.591 221.232 180.79 221.232 180.79" stroke="black" stroke-linecap="round" stroke-linejoin="round"/>
<path id="path32421" d="M213.362 180.052C214.059 180.585 214.621 181.369 215.452 181.651C216.112 181.874 216.899 181.384 217.543 181.651C217.918 181.806 218.117 182.224 218.404 182.511" stroke="black" stroke-linecap="round" stroke-linejoin="round"/>
<path id="path32423" d="M214.592 181.396C214.674 181.888 214.437 182.703 214.838 183.126C215.125 183.43 215.692 183.556 216.067 183.372C216.563 183.129 216.559 182.298 216.805 181.888L214.592 181.396Z" fill="white" stroke="black" stroke-linecap="round" stroke-linejoin="round"/>
<path id="path32425" d="M223.938 182.265C223.938 182.265 222.979 183.68 222.708 184.479C222.348 185.539 222.276 186.682 222.216 187.799C222.161 188.823 222.483 189.858 222.339 190.874C222.23 191.644 222.131 192.518 221.601 193.087C221.059 193.669 220.191 194.045 219.397 194.002C218.507 193.954 217.612 193.411 217.051 192.718C216.814 192.425 217.035 191.851 216.727 191.633C216.298 191.329 215.674 191.771 215.153 191.71C214.451 191.627 213.647 191.586 213.116 191.12C212.66 190.719 212.264 190.046 212.388 189.452C212.492 188.949 212.962 188.532 213.515 188.403" stroke="black" stroke-linecap="round" stroke-linejoin="round"/>
<path id="path32427" d="M225.905 181.405C225.905 181.405 227.406 181.087 228.119 181.282C228.547 181.398 228.932 181.687 229.226 182.02C229.529 182.363 229.84 183.249 229.84 183.249" stroke="black" stroke-linecap="round" stroke-linejoin="round"/>
<path id="path32429" d="M223.959 184.437C224.328 184.724 224.623 185.146 225.066 185.298C225.531 185.457 226.07 185.155 226.541 185.298C226.824 185.383 227.033 185.626 227.279 185.79" stroke="black" stroke-linecap="round" stroke-linejoin="round"/>
<path id="path32431" d="M224.691 185.674C224.729 186.156 224.447 186.785 224.804 187.118C225.346 187.622 226.554 187.217 227.047 187.18L226.244 185.502L224.691 185.674Z" fill="white" stroke="black" stroke-linecap="round" stroke-linejoin="round"/>
<path id="path32433" d="M212.636 197.804C211.458 197.389 211.384 196.573 210.789 195.93C210.468 195.583 210.114 195.255 209.86 194.859C209.528 194.343 208.399 192.685 209.102 193.191C210.158 193.858 211.162 194.368 212.495 194.83C213.034 195.017 213.15 195.785 213.649 196.055C214.244 196.376 215.271 195.885 215.657 196.426C216.112 197.062 217.71 197.116 218.314 197.538C217.668 197.725 217.637 197.757 216.377 198.124C215.464 197.641 213.812 198.218 212.636 197.804Z" fill="#FF5555" stroke="black" stroke-linecap="round" stroke-linejoin="round"/>
<path id="path32435" d="M191.335 180.094C191.335 180.094 189.607 182.573 189.248 184.007C188.967 185.132 189.018 186.349 189.248 187.485C189.573 189.089 190.608 190.466 191.161 192.007C191.539 193.06 191.781 194.157 192.118 195.224C192.283 195.749 192.639 196.789 192.639 196.789" stroke="black" stroke-linecap="round" stroke-linejoin="round"/>
<path id="path32437" d="M199.478 164.522C199.072 164.145 198.809 163.47 198.261 163.391C197.683 163.308 197.053 163.713 196.696 164.174C196.187 164.83 196.205 165.779 196.174 166.609C196.15 167.252 196.335 167.886 196.435 168.522C196.563 169.336 196.947 170.136 196.869 170.956C196.809 171.605 196.406 172.174 196.174 172.783" stroke="black" stroke-linecap="round" stroke-linejoin="round"/>
<path id="path32439" d="M198.957 167.043C198.957 167.043 198.328 166.366 198 166.522C197.574 166.724 197.728 167.441 197.739 167.913C197.754 168.539 198.174 169.739 198.174 169.739" stroke="black" stroke-linecap="round" stroke-linejoin="round"/>
<path id="path32441" d="M210.5 189.375C210.5 189.375 207.04 188.256 205.25 188.25C204.016 188.246 202.67 188.343 201.625 189C200.87 189.474 199.815 190.253 200 191.125C200.108 191.636 201.375 191.875 201.375 191.875" stroke="black" stroke-linecap="round" stroke-linejoin="round"/>
<g id="g3215">
<path id="path32443" d="M201.074 197.572C202.15 197.906 200.263 199.763 201.014 200.242C202.346 201.091 203.723 197.79 205.262 198.145C206.242 198.37 206.177 200.159 207.112 200.53C208.085 200.915 208.788 199.572 210.213 200.042C210.296 203.009 207.847 205.092 207.291 209.049C206.85 209.888 206.481 210.223 205.967 210.029C204.851 209.61 205.261 208.21 205.206 206.533C204.323 207.139 205.084 211.191 203.336 210.932C201.075 210.596 203.153 206.02 203.153 204.855C202.601 205.834 202.999 209.477 201.269 209.206C199.03 208.855 201.277 204.715 201.167 203.177C200.56 203.97 200.153 207.718 198.621 207.251C197.143 206.801 198.828 203.784 198.773 202.619C198.166 202.992 197.893 204.649 197.131 204.39C195.63 203.881 195.908 201.035 196.691 199.657C197.49 198.251 199.326 197.028 201.074 197.572Z" fill="#FFAA55" stroke="black" stroke-linecap="round" stroke-linejoin="round"/>
<path id="path32445" d="M200.984 197.971C198.122 199.625 198.529 201.394 198.748 202.362" stroke="black" stroke-linecap="round" stroke-linejoin="round"/>
<path id="path32447" d="M202.091 200.445C200.817 201.363 200.873 202.205 201.054 203.041" stroke="black" stroke-linecap="round" stroke-linejoin="round"/>
<path id="path32449" d="M205.185 198.865L203.206 204.802" stroke="black" stroke-linecap="round" stroke-linejoin="round"/>
<path id="path32451" d="M207.21 200.695C207.154 201.32 206.65 202.875 206.31 203.947C206.045 204.783 205.254 205.675 205.421 206.425" stroke="black" stroke-linecap="round" stroke-linejoin="round"/>
</g>
<path id="path32459" d="M117.026 121.393C117.026 121.393 119.783 123.833 121.499 124.295C124.273 125.042 127.259 124.245 130.108 123.868C132.857 123.503 135.611 122.987 138.239 122.1C140.088 121.476 142.031 120.858 143.543 119.625C144.687 118.692 146.184 116.07 146.184 116.07C146.184 116.07 145.625 121.271 145.31 123.868C144.982 126.581 144.233 129.266 144.25 131.999C144.27 135.333 145.664 141.899 145.664 141.899C145.664 141.899 143.075 137.25 141.421 135.181C140.485 134.01 138.239 131.999 138.239 131.999C138.239 131.999 137.66 136.267 137.179 138.363C136.712 140.399 135.411 144.374 135.411 144.374C135.411 144.374 131.763 141.871 130.461 140.131C128.912 138.062 127.279 133.06 127.279 133.06C127.279 133.06 124.424 137.285 123.037 139.424C121.595 141.646 118.794 146.142 118.794 146.142C118.794 146.142 117.682 137.436 117.38 133.06C117.111 129.178 117.026 121.393 117.026 121.393Z" fill="#FFFF55" stroke="black" stroke-linecap="round" stroke-linejoin="round"/>
<path id="path32463" d="M130.769 194.294C130.769 197.686 128.019 200.435 124.628 200.435C121.236 200.435 118.487 197.686 118.487 194.294C118.487 190.902 121.236 188.153 124.628 188.153C128.019 188.153 130.769 190.902 130.769 194.294Z" fill="#FF5555" stroke="black" stroke-linecap="round" stroke-linejoin="round"/>
<path id="path32465" d="M137.271 230.297C137.271 233.756 134.414 236.559 130.889 236.559C127.364 236.559 124.507 233.756 124.507 230.297C124.507 226.839 127.364 224.036 130.889 224.036C134.414 224.036 137.271 226.839 137.271 230.297Z" fill="#FF5555" stroke="black" stroke-linecap="round" stroke-linejoin="round"/>
<path id="path32467" d="M186.159 255.103C186.159 258.029 183.733 260.401 180.74 260.401C177.748 260.401 175.322 258.029 175.322 255.103C175.322 252.176 177.748 249.804 180.74 249.804C183.733 249.804 186.159 252.176 186.159 255.103Z" fill="#FF5555" stroke="black" stroke-linecap="round" stroke-linejoin="round"/>
<path id="path32469" d="M128.361 94.4715C128.361 94.4715 125.008 88.5709 124.989 85.3201C124.973 82.6796 126.164 80.0452 127.638 77.8545C129.511 75.0712 132.343 72.9917 135.156 71.1641C136.988 69.9744 138.958 68.735 141.124 68.4622C142.499 68.2892 144.097 68.3708 145.218 69.1847C146.323 69.9862 147.145 72.7971 147.145 72.7971C147.145 72.7971 148.173 71.7027 148.684 71.1526C149.217 70.5789 149.494 69.4645 150.276 69.4255C151.241 69.3775 152.081 70.4558 152.443 71.3521C152.835 72.3227 152.202 74.4829 152.202 74.4829L153.647 75.687C153.647 75.687 146.165 80.1954 142.569 82.671C139.925 84.492 137.329 86.394 134.863 88.4508C132.595 90.3429 128.361 94.4715 128.361 94.4715Z" fill="#FFAAAA" stroke="black" stroke-linecap="round" stroke-linejoin="round"/>
<path id="path32471" d="M129.809 86.5357C129.347 85.541 129.118 84.8995 129.158 84.041C129.192 83.3037 129.565 83.3713 129.915 81.96C131.36 82.9233 132.163 84.2934 133.565 84.1159C134.691 83.9734 135.665 82.8004 135.973 81.7077C136.066 81.3774 135.903 81.0043 135.732 80.7069C135.023 79.4749 133.694 78.5632 132.65 77.7604C133.854 78.7237 134.874 80.08 136.311 80.6993C136.951 80.9748 137.808 81.3804 138.381 80.9852C139.263 80.3775 139.286 78.9098 139.104 77.8545C138.859 76.4454 137.512 75.4462 136.789 74.2421C137.993 75.7673 139.093 77.7732 140.94 78.4753C141.57 78.7147 142.419 78.7419 142.957 78.3361C143.554 77.8855 143.793 76.97 143.72 76.2253C143.527 74.2451 141.766 72.6366 140.643 71.1113C142.007 72.7168 142.85 75.2649 144.883 75.9279C145.587 76.1572 146.555 75.9959 147.051 75.4462C147.7 74.726 147.225 73.5196 147.386 72.5563C147.867 73.5999 148.062 74.9575 148.977 75.687C149.495 76.0995 150.262 76.0081 150.904 76.1687" stroke="black" stroke-linecap="round" stroke-linejoin="round"/>
<path id="path32473" d="M261.38 220.521C259.117 225.582 259.171 230.257 258.552 233.44C260.768 231.666 263.443 230.898 266.093 226.96C267.767 230.613 267.338 234.266 268.28 237.92C270.593 235.388 273.272 233.039 274.578 229.41C275.697 229.633 276.816 229.856 277.935 230.079C277.53 234.298 279.321 237.053 280.014 240.54C281.546 236.769 283.353 234.37 284.61 229.227C282.607 229.11 280.549 229.898 278.509 229.792C276.624 229.695 274.737 229.312 272.956 228.69C270.832 227.949 268.805 226.883 266.958 225.6C264.893 224.165 263.117 222.031 261.38 220.521Z" fill="#FFFF55" stroke="black" stroke-linecap="round" stroke-linejoin="round"/>
<g id="path32477">
<path d="M250.906 232.635C251.12 234.923 251.514 237.201 251.547 239.498C251.574 241.393 251.303 243.28 251.181 245.171" fill="#AA0000" fill-opacity="0.294964"/>
<path d="M250.906 232.635C251.12 234.923 251.514 237.201 251.547 239.498C251.574 241.393 251.303 243.28 251.181 245.171" stroke="black" stroke-linecap="round" stroke-linejoin="round"/>
</g>
<g id="path32479">
<path d="M255.848 234.374C256.305 236.112 256.99 237.806 257.22 239.589C257.479 241.586 257.22 243.616 257.22 245.629" fill="#AA0000" fill-opacity="0.294964"/>
<path d="M255.848 234.374C256.305 236.112 256.99 237.806 257.22 239.589C257.479 241.586 257.22 243.616 257.22 245.629" stroke="black" stroke-linecap="round" stroke-linejoin="round"/>
</g>
<path id="path32481" d="M122.33 117.504C122.33 117.504 119.239 118.262 118.087 119.271C117.496 119.79 116.744 120.54 116.901 121.311C117.159 122.574 118.832 123.079 120 123.625C121.145 124.16 123.688 124.5 123.688 124.5L123.75 118.063L122.33 117.504Z" fill="#AA0000" stroke="black" stroke-linecap="round" stroke-linejoin="round"/>
<path id="path32483" d="M123.744 118.105V124.607C123.744 124.607 126.235 124.639 127.467 124.482C130.278 124.124 133.02 123.336 135.764 122.63C137.191 122.263 138.648 121.96 140.007 121.393C141.127 120.925 142.171 120.285 143.189 119.625C143.625 119.343 144.143 119.12 144.435 118.691C144.915 117.987 145.11 116.225 145.11 116.225L145.184 113.22C145.184 113.22 139.457 115.826 136.472 116.797C134.107 117.566 131.703 118.371 129.224 118.564C127.396 118.707 123.744 118.105 123.744 118.105Z" fill="#FFAAAA" stroke="black" stroke-linecap="round" stroke-linejoin="round"/>
<g id="path32485-2">
<path d="M131.156 118.281L131.304 123.719Z" fill="#FFAAAA"/>
<path d="M131.156 118.281L131.304 123.719" stroke="black" stroke-linecap="round" stroke-linejoin="round"/>
</g>
<g id="path32485-6">
<path d="M134.031 117.594L134.178 122.719Z" fill="#FFAAAA"/>
<path d="M134.031 117.594L134.178 122.719" stroke="black" stroke-linecap="round" stroke-linejoin="round"/>
</g>
<g id="path32485-24">
<path d="M136.905 116.844L137.053 122.281Z" fill="#FFAAAA"/>
<path d="M136.905 116.844L137.053 122.281" stroke="black" stroke-linecap="round" stroke-linejoin="round"/>
</g>
<g id="path32485-5">
<path d="M139.967 115.969L140.115 121.406Z" fill="#FFAAAA"/>
<path d="M139.967 115.969L140.115 121.406" stroke="black" stroke-linecap="round" stroke-linejoin="round"/>
</g>
<g id="path32485-00">
<path d="M142.483 114.728L142.499 119.719Z" fill="#FFAAAA"/>
<path d="M142.483 114.728L142.499 119.719" stroke="black" stroke-linecap="round" stroke-linejoin="round"/>
</g>
<path id="path32572" d="M144.868 141.369C144.868 141.369 144.669 146.409 145.045 148.705C145.262 150.029 147.483 150.201 148.101 151.413C148.711 152.61 147.786 154.28 148.492 155.422C149.059 156.338 150.493 156.353 151.229 157.139C151.952 157.911 152.207 159.014 152.735 159.93C153.944 162.027 155.468 163.945 156.536 166.117C157.231 167.531 157.824 169.01 158.215 170.537C158.481 171.574 158.275 172.718 158.657 173.719C159.467 175.841 162.458 179.376 162.458 179.376C162.458 179.376 156.905 180.737 154.149 181.497C150.653 182.461 147.092 183.259 143.719 184.59C141.881 185.316 140.095 186.2 138.416 187.242C137.129 188.041 134.792 189.982 134.792 189.982C134.792 189.982 132.032 184.931 131.168 182.204C130.363 179.664 130.659 176.843 129.754 174.337C128.718 171.471 126.785 169.013 125.246 166.382C124.239 164.66 122.969 163.077 122.153 161.256C121.459 159.708 120.953 158.063 120.65 156.395C120.297 154.449 120.466 152.443 120.296 150.473C120.139 148.641 119.678 144.992 119.678 144.992C121.541 141.02 123.22 137.024 127.279 133.325C127.279 133.325 128.734 137.818 130.108 139.689C131.479 141.557 135.322 144.285 135.322 144.285C135.322 144.285 136.686 140.135 137.179 138.01C137.617 136.118 136.292 132.827 138.151 132.265C140.166 131.654 141.257 135.149 142.482 136.861C143.472 138.243 144.868 141.369 144.868 141.369Z" fill="#AA0000" stroke="black" stroke-linecap="round" stroke-linejoin="round"/>
<path id="path32574" d="M143.922 150.145C142.823 150.358 141.576 150.193 140.624 150.783C138.389 152.17 137.433 154.967 135.838 157.059" stroke="black" stroke-linecap="round" stroke-linejoin="round"/>
<path id="path32576" d="M146.688 151.847C144.95 152.804 142.888 154.282 141.475 155.995C139.084 158.895 138.001 162.661 136.263 165.994" stroke="black" stroke-linecap="round" stroke-linejoin="round"/>
<path id="path32578" d="M149.666 157.272C148.531 157.485 147.012 158.221 146.049 159.187C143.843 161.399 143.142 164.718 141.688 167.484" stroke="black" stroke-linecap="round" stroke-linejoin="round"/>
<path id="path32580" d="M136 195.75C136 195.75 138.079 200.988 138.5 203.75C138.953 206.716 138.084 209.779 138.5 212.75C138.837 215.153 140.28 217.333 140.5 219.75C140.736 222.335 139.75 227.5 139.75 227.5C139.75 227.5 145.719 225.921 148.25 224.25C151.25 222.269 153.374 219.198 155.75 216.5C157.513 214.498 159.04 212.298 160.75 210.25C162.946 207.62 167.5 202.5 167.5 202.5C167.5 202.5 161.341 200.969 158.25 200.25C156.753 199.902 155.144 199.897 153.75 199.25C151.755 198.323 150.572 195.989 148.5 195.25C146.223 194.437 143.665 194.87 141.25 195C139.485 195.095 136 195.75 136 195.75Z" fill="#AA0000" stroke="black" stroke-linecap="round" stroke-linejoin="round"/>
<path id="path32584" d="M173.75 228.75L173.5 238L163 239L163.5 251.5L150 252.5L148.5 265.25L138 265.5V283H144L144.75 270.5L154.75 271L155.5 257.75H168.75L170 243.75L180 242.75V226.25L173.75 228.75Z" fill="#FFAA55" stroke="black" stroke-linecap="round" stroke-linejoin="round"/>
<g id="path32586">
<path d="M177 231V238Z" fill="#AA0000" fill-opacity="0.28777"/>
<path d="M177 231V238" stroke="black" stroke-linecap="round" stroke-linejoin="round"/>
</g>
<g id="path32588">
<path d="M174.75 240.5L167.25 241Z" fill="#AA0000" fill-opacity="0.28777"/>
<path d="M174.75 240.5L167.25 241" stroke="black" stroke-linecap="round" stroke-linejoin="round"/>
</g>
<g id="path32590">
<path d="M166 245.25L166.5 251Z" fill="#AA0000" fill-opacity="0.28777"/>
<path d="M166 245.25L166.5 251" stroke="black" stroke-linecap="round" stroke-linejoin="round"/>
</g>
<g id="path32592">
<path d="M164.25 255L156.75 255.25Z" fill="#AA0000" fill-opacity="0.28777"/>
<path d="M164.25 255L156.75 255.25" stroke="black" stroke-linecap="round" stroke-linejoin="round"/>
</g>
<g id="path32594">
<path d="M152 258.5V266Z" fill="#AA0000" fill-opacity="0.28777"/>
<path d="M152 258.5V266" stroke="black" stroke-linecap="round" stroke-linejoin="round"/>
</g>
<g id="path32596">
<path d="M148.75 268L143.5 268.25Z" fill="#AA0000" fill-opacity="0.28777"/>
<path d="M148.75 268L143.5 268.25" stroke="black" stroke-linecap="round" stroke-linejoin="round"/>
</g>
<g id="path32598">
<path d="M141.75 271.25L141.25 278.5Z" fill="#AA0000" fill-opacity="0.28777"/>
<path d="M141.75 271.25L141.25 278.5" stroke="black" stroke-linecap="round" stroke-linejoin="round"/>
</g>
<path id="path32600" d="M105.622 276.627C103.043 275.961 100.083 275.917 97.75 275.25C95.75 276.833 93.664 278.314 91.75 280C87.5495 283.701 83.5668 287.655 79.75 291.75C76.7673 294.95 73.8845 298.257 71.25 301.75C70.3453 302.949 69.5833 304.25 68.75 305.5C70 304.583 71.1253 303.466 72.5 302.75C76.4031 300.717 80.7599 299.679 85 298.5C91.4095 296.718 97.9764 295.554 104.5 294.25C109.068 293.337 113.677 292.64 118.25 291.75C122.678 290.888 127.047 289.719 131.5 289C136.51 288.191 141.945 289.212 146.625 287.246C150.231 285.732 152.705 282.324 155.75 279.869C157.872 278.158 159.719 276.028 162.125 274.745C163.973 273.759 166.289 273.537 168.123 272.87C168.206 272.537 167.667 270.833 167.75 270.5C165.083 271.417 162.221 271.499 159.75 272.752C157.579 273.852 155.89 275.717 154 277.25C151.887 278.963 150.241 281.407 147.75 282.5C145.365 283.547 142.57 283.926 140 283.5C136.727 282.957 134.353 279.573 131.068 279.108C127.023 278.536 123.073 281.57 119 281.25C114.296 280.88 110.19 277.808 105.622 276.627Z" fill="#FFAA55" stroke="black" stroke-linecap="round" stroke-linejoin="round"/>
<path id="path32602" d="M116.25 292.376C115.417 294.71 113.725 297.155 113.75 299.75C113.793 304.257 116.702 308.27 118.335 312.472C119.484 315.427 120.5 318.417 122 321.25C117.75 320.167 113.347 319.567 109.25 318C105.211 316.456 101.747 313.649 97.75 312C94.1195 310.502 90.4055 308.913 86.5 308.5C83.754 308.209 80.912 309.984 78.25 309.25C77.1573 308.949 76.6238 307.398 75.5 307.25C74.3492 307.099 73.4014 308.646 72.25 308.5C70.8277 308.319 68.7538 307.434 68.75 306C68.7452 304.15 71.6499 303.679 73.25 302.75C75.8623 301.233 78.6285 299.938 81.5 299C85.788 297.6 90.3216 297.108 94.75 296.25C101.899 294.864 109.083 293.543 116.25 292.376Z" fill="#AA0000" stroke="black" stroke-linecap="round" stroke-linejoin="round"/>
<path id="path32604" d="M197.631 325.669C199.665 325.053 197.879 321.292 198.881 319.419C200.605 316.198 203.533 313.604 206.631 311.669C209.023 310.175 211.838 309.302 214.631 308.919C217.443 308.534 220.557 308.223 223.131 309.419C225.216 310.388 227.1 312.257 227.881 314.419C228.307 315.597 226.426 317.827 227.631 318.169C230.715 319.045 232.918 312.777 232.131 309.669C231.91 308.795 230.153 309.029 229.881 308.169C229.432 306.748 231.615 305.486 231.5 304C231.359 302.176 228.899 301.073 228.75 299.25C228.482 295.964 232.222 293.297 232.25 290C232.28 286.547 230.561 283.19 228.75 280.25C227.544 278.293 222.687 277.137 224 275.25C224.725 274.208 226.606 277.651 227.5 276.75C230.576 273.651 225.227 267.944 222.25 264.75C219.556 261.86 215.482 260.548 211.75 259.25C208.786 258.219 205.629 257.737 202.5 257.5C200.172 257.324 197.803 257.367 195.5 257.75C191.807 258.364 188.306 259.828 184.75 261C181.22 262.163 177.391 262.763 174.25 264.75C171.76 266.326 169.866 268.72 168 271C167.62 271.465 167.476 272.13 167.004 272.5C165.26 273.867 162.661 273.629 160.75 274.75C155.605 277.77 152.608 283.876 147.25 286.5C141.834 289.153 135.432 288.912 129.5 290C125.094 290.808 120.667 291.5 116.25 292.25C115.417 294.917 113.94 297.463 113.75 300.25C113.53 303.473 114.221 306.783 115.359 309.807C116.731 313.452 119.673 316.309 121.5 319.75C123.214 322.978 123.87 326.779 126 329.75C127.924 332.434 132.663 333.251 133.25 336.5C133.316 336.867 132.728 337.128 132.75 337.5C132.974 341.284 136.667 344.013 139 347C141.65 350.393 144.927 353.249 147.75 356.5C149.303 358.289 150.35 360.586 152.25 362C153.119 362.647 155.213 362.167 155.25 363.25C155.295 364.554 152.645 364.051 151.75 365C151.315 365.462 150.93 366.119 151 366.75C151.204 368.589 155.092 369.603 154.25 371.25C153.605 372.511 151.033 370.28 150 371.25C149.026 372.165 150.501 374.145 149.75 375.25C148.87 376.545 146.485 376.033 145.5 377.25C143.886 379.246 144.044 382.2 143.75 384.75C143.645 385.661 144.246 386.729 143.75 387.5C142.115 390.04 137.136 388.71 135.5 391.25C134.823 392.301 135.138 393.804 135.5 395C136.023 396.725 136.944 398.589 138.5 399.5C139.438 400.049 140.687 399.973 141.75 399.75C143.209 399.443 144.211 397.796 145.694 397.641C147.766 397.426 149.771 398.589 151.694 399.391C154.069 400.383 156.014 402.292 158.444 403.141C160.358 403.81 162.717 403.079 164.444 404.141C165.764 404.954 165.967 406.943 167.194 407.891C168.699 409.056 170.601 410.123 172.5 410C174.212 409.89 176.067 408.94 177 407.5C178.047 405.886 176.896 403.577 177.5 401.75C177.899 400.542 178.751 399.528 179.5 398.5C180.406 397.259 181.597 396.243 182.5 395C183.534 393.578 184.887 392.22 185.25 390.5C185.511 389.266 184.438 387.972 184.75 386.75C185.517 383.746 189.318 382.207 190.25 379.25C191.403 375.593 190.373 371.566 190 367.75C189.671 364.382 188.937 361.064 188.25 357.75C187.38 353.554 186.44 349.367 185.25 345.25C183.882 340.516 181.692 336.032 180.5 331.25C179.622 327.727 179.66 324.015 178.75 320.5C178.195 318.357 177.25 316.333 176.5 314.25C178.5 312.667 180.499 311.082 182.5 309.5C184.083 308.249 185.869 307.22 187.25 305.75C188.152 304.79 188.75 303.583 189.5 302.5C189.5 303.917 189.154 305.376 189.5 306.75C189.909 308.372 190.344 310.51 191.881 311.169C192.755 311.544 193.986 309.722 194.631 310.419C196.315 312.237 192.233 314.944 192.131 317.419C192.078 318.712 192.485 320.048 193.131 321.169C194.191 323.007 195.601 326.284 197.631 325.669Z" fill="#5555AA" stroke="black" stroke-linecap="round" stroke-linejoin="round"/>
<path id="path32606" d="M141.75 399.5C139.684 402.009 138.721 405.331 138 408.5C137.648 410.046 137.875 411.669 137.75 413.25C137.625 414.837 137.527 416.432 137.25 418C136.772 420.707 135.628 423.277 135.25 426C134.883 428.643 134.715 431.347 135 434C135.037 434.342 135.278 434.658 135.25 435C135.118 436.587 133.714 437.832 133.344 439.381C133.015 440.757 132.564 442.306 133.094 443.619C134.138 446.209 136.902 447.789 139.25 449.3C141.379 450.671 143.768 451.748 146.25 452.25C147.965 452.597 149.841 452.806 151.5 452.25C153.537 451.568 156.644 448.369 156.644 448.369C156.644 448.369 154.574 446.416 154.275 445.106C153.92 443.55 154.551 441.881 155.131 440.394C156.121 437.86 158.212 435.896 159.5 433.5C161.62 429.558 162.528 424.981 165 421.25C165.879 419.923 167.429 419.114 168.25 417.75C169.296 416.011 169.813 413.982 170.25 412C170.431 411.182 170.824 410.272 170.5 409.5C169.94 408.164 168.091 407.847 167.113 406.778C166.099 405.67 165.856 403.872 164.613 403.028C162.255 401.428 158.871 402.369 156.25 401.25C153.933 400.261 152.408 397.741 150 397C148.566 396.559 146.936 396.565 145.5 397C144.062 397.435 142.705 398.34 141.75 399.5Z" fill="#AAAAAA" stroke="black" stroke-linecap="round" stroke-linejoin="round"/>
<path id="path32608" d="M133.932 438.525C132.432 438.859 129.849 437.973 128.25 439C126.963 439.827 126.341 441.509 126 443C125.702 444.302 125.848 445.726 126.25 447C126.779 448.676 127.867 450.156 129 451.5C131.854 454.887 135.614 457.395 139 460.25C141.627 462.465 144.254 464.685 147 466.75C149.919 468.945 152.784 471.269 156 473C158.371 474.276 160.856 475.491 163.5 476C166.037 476.488 168.667 476 171.25 476C173.5 476 175.769 476.292 178 476C179.283 475.832 180.9 475.975 181.75 475C183.075 473.481 183.562 470.713 182.5 469C181.57 467.499 179.073 468.053 177.5 467.25C175.421 466.188 173.493 464.803 171.75 463.25C170.339 461.993 169.146 460.502 168 459C166.248 456.703 164.86 454.149 163.25 451.75C162.348 450.407 161.902 448.558 160.5 447.75C159.559 447.208 158.279 447.15 157.25 447.5C156.189 447.861 155.706 449.164 154.75 449.75C152.771 450.963 150.565 452.083 148.25 452.25C146.375 452.385 144.444 451.816 142.75 451C139.866 449.61 137.357 447.411 135.25 445C134.291 443.902 133.153 442.7 133 441.25C132.899 440.295 134.015 439.609 133.932 438.525Z" fill="#AA5500" stroke="black" stroke-linecap="round" stroke-linejoin="round"/>
<path id="path32610" d="M198 325.25C198.968 328.53 203.815 329.542 205 332.75C205.665 334.55 204.339 336.626 204.75 338.5C205.413 341.521 208.35 343.726 209 346.75C209.666 349.85 207.645 353.196 208.5 356.25C208.859 357.531 209.444 359.292 210.75 359.548C214.773 357.064 217.773 355.279 221 352.75C223.228 351.004 225.712 349.377 227.25 347C228.252 345.451 228.344 343.474 229 341.75C229.451 340.564 230.5 338.25 230.5 338.25C230.5 338.25 228.7 337.531 228.25 336.75C227.583 335.592 227.965 334.085 228 332.75C228.057 330.57 229.05 328.41 228.75 326.25C228.539 324.732 227.263 323.509 227 322C226.685 320.192 227.345 318.333 227.25 316.5C227.163 314.817 227.431 312.905 226.5 311.5C225.528 310.035 223.683 309.257 222 308.75C219.844 308.1 217.481 308.194 215.25 308.5C213.083 308.797 211.004 309.624 209 310.5C206.983 311.382 204.963 312.367 203.25 313.75C201.689 315.011 200.126 316.444 199.25 318.25C198.215 320.383 197.329 322.977 198 325.25Z" fill="#AAAAAA" stroke="black" stroke-linecap="round" stroke-linejoin="round"/>
<path id="path32612" d="M211.25 359.75C209.161 361.41 207.199 363.507 206.25 366C205.686 367.482 205.603 369.215 206 370.75C206.394 372.272 207.388 373.638 208.5 374.75C210.168 376.418 212.178 378.086 214.5 378.5C216.511 378.859 218.624 378.058 220.5 377.25C222.645 376.327 224.297 374.529 226.25 373.25C229.443 371.16 232.676 369.124 236 367.25C238.857 365.639 241.847 364.275 244.75 362.75C248.183 360.947 251.96 359.656 255 357.25C257.268 355.455 259.372 353.293 260.75 350.75C261.945 348.546 262.778 346.007 262.75 343.5C262.731 341.76 262.295 339.892 261.25 338.5C260.237 337.151 258.629 336.189 257 335.75C255.308 335.294 253.48 335.722 251.75 336C250.213 336.247 248.669 336.609 247.25 337.25C245.165 338.192 243.349 339.652 241.5 341C238.724 343.025 236.289 345.493 233.5 347.5C230.216 349.863 226.789 352.039 223.25 354C219.37 356.15 214.723 356.991 211.25 359.75Z" fill="#AA5500" stroke="black" stroke-linecap="round" stroke-linejoin="round"/>
<path id="path32614" d="M210.844 359.856L211.5 358.75C211.5 358.75 218.476 353.934 221.75 351.25C223.848 349.53 226.243 348.006 227.75 345.75C228.833 344.128 228.702 341.895 229.75 340.25C230.067 339.753 230.466 339.25 231 339C232.667 338.219 234.744 339.053 236.5 338.5C237.782 338.097 238.76 337.018 240 336.5C241.996 335.665 244.125 335.158 246.25 334.75C248.555 334.307 250.955 333.509 253.25 334C254.382 334.242 256.25 335.75 256.25 335.75C256.25 335.75 251.654 336.229 249.5 337C246.901 337.93 244.566 339.499 242.25 341C240.271 342.283 238.478 343.833 236.601 345.261C234.645 346.749 232.699 348.252 230.75 349.75C228.582 351.415 226.631 353.408 224.25 354.75C221.446 356.331 218.262 357.115 215.25 358.25C213.787 358.801 210.844 359.856 210.844 359.856Z" fill="#AA5500" stroke="black" stroke-linecap="round" stroke-linejoin="round"/>
<path id="path32616" d="M208.033 103.591C208.033 103.591 202.504 99.4631 200.111 96.9976C197.714 94.5274 196.841 90.3735 193.747 88.8659C191.946 87.9883 189.616 88.1708 187.737 88.8659C185.699 89.6198 183.824 91.1987 182.787 93.1085C181.936 94.6759 181.553 96.7081 182.08 98.4118C182.549 99.9265 184.431 100.597 185.262 101.947C186.455 103.886 186.945 106.177 187.737 108.311C188.475 110.303 189.447 112.237 189.858 114.322C190.314 116.637 190.153 119.034 190.212 121.393C190.223 121.864 190.212 122.807 190.212 122.807L194.454 121.039C194.454 121.039 194.605 118.203 194.454 116.797C194.158 114.039 193.555 111.299 192.686 108.665C191.877 106.21 190.756 103.855 189.505 101.594C188.476 99.7349 185.76 98.4047 185.969 96.2905C186.084 95.1295 187.32 94.127 188.444 93.8156C190.785 93.1671 193.557 94.1449 195.515 95.5834C197.518 97.0553 197.683 100.153 199.404 101.947C201.11 103.726 205.548 106.061 205.548 106.061L208.033 103.591Z" fill="#FF5555" stroke="black" stroke-linecap="round" stroke-linejoin="round"/>
<path id="path32618" d="M201.525 103.715C198.608 104.054 195.835 105.669 192.901 105.522C189.74 105.363 187.013 102.718 183.848 102.654C181.161 102.6 178.544 103.728 176.07 104.776C172.664 106.218 169.911 108.947 166.524 110.433C164.27 111.421 159.453 112.554 159.453 112.554V118.211C159.453 118.211 164.898 115.428 167.584 113.968C170.32 112.482 173.032 110.95 175.716 109.372C177.859 108.112 179.62 105.842 182.08 105.483C186.182 104.884 189.957 108.582 194.101 108.665C196.274 108.708 198.341 107.709 200.465 107.251C202.199 106.877 205.673 106.161 205.673 106.161L207.818 103.557C207.818 103.557 203.61 103.473 201.525 103.715Z" fill="#5555AA" stroke="black" stroke-linecap="round" stroke-linejoin="round"/>
<path id="path32620" d="M187.861 106.648C187.861 106.648 180.864 108.234 178.057 110.303C176.097 111.749 174.968 114.078 173.595 116.089C172.521 117.662 171.361 119.219 170.652 120.986C169.985 122.645 169.467 126.218 169.467 126.218L165.463 122.1C165.463 122.1 168.461 118.932 169.706 117.15C171.639 114.381 172.017 110.419 174.655 108.311C177.257 106.233 184.235 105.478 184.235 105.478L187.861 106.648Z" fill="#FFFF55" stroke="black" stroke-linecap="round" stroke-linejoin="round"/>
<path id="path32622" d="M184.908 109.018C182.304 110.721 179.222 112.095 177.484 114.675C176.823 115.655 176.933 116.977 176.552 118.096C176.046 119.581 174.76 122.449 174.76 122.449L177.484 124.221C177.484 124.221 179.202 121.659 179.825 120.256C180.559 118.602 180.421 116.568 181.439 115.072C183.04 112.721 188.09 109.726 188.09 109.726V107.251C188.09 107.251 185.924 108.354 184.908 109.018Z" fill="#FFAA55" stroke="black" stroke-linecap="round" stroke-linejoin="round"/>
<path id="path3992-4" d="M133.478 321.151C138.113 322.727 142.491 326.074 147.382 325.879C151.821 325.701 155.311 321.685 159.618 320.595C162.685 319.819 166.125 320.91 169.072 319.761C171.905 318.656 173.893 316.053 176.303 314.199" stroke="black" stroke-linecap="round" stroke-linejoin="round"/>
<path id="path3994-2" d="M186.035 277.215C185.201 281.108 183.952 284.935 183.533 288.894C183.23 291.752 182.364 294.89 183.533 297.514C184.547 299.793 187.24 300.851 189.094 302.52" stroke="black" stroke-linecap="round" stroke-linejoin="round"/>
<path id="path3996-3" d="M194.656 288.06C193.265 290.377 191.45 292.488 190.485 295.012C189.608 297.304 189.558 299.832 189.094 302.242" stroke="black" stroke-linecap="round" stroke-linejoin="round"/>
<path id="path3998-2" d="M176.581 299.461C177.229 301.315 177.164 303.609 178.527 305.023C180.116 306.671 182.791 306.691 184.923 307.525" stroke="black" stroke-linecap="round" stroke-linejoin="round"/>
<path id="path4000-2" d="M209.394 263.589C210.784 263.774 212.245 263.67 213.565 264.145C214.388 264.441 215.048 265.072 215.79 265.535" stroke="black" stroke-linecap="round" stroke-linejoin="round"/>
<path id="path4002-1" d="M211.062 269.15C213.287 269.243 215.669 268.602 217.736 269.428C219.566 270.16 220.703 272.024 222.186 273.322" stroke="black" stroke-linecap="round" stroke-linejoin="round"/>
<path id="path4004-6" d="M217.18 295.012C219.405 295.661 221.697 296.112 223.854 296.958C224.819 297.337 225.708 297.885 226.635 298.349" stroke="black" stroke-linecap="round" stroke-linejoin="round"/>
<path id="path4006-8" d="M221.073 304.466C222.742 304.745 224.524 304.635 226.079 305.301C226.931 305.665 227.562 306.413 228.303 306.969" stroke="black" stroke-linecap="round" stroke-linejoin="round"/>
<g id="path4010-7">
<path d="M157.224 367.193C158.43 368.213 159.479 369.454 160.842 370.254C162.209 371.056 163.81 371.367 165.294 371.923" fill="#5555AA" fill-opacity="0.255396"/>
<path d="M157.224 367.193C158.43 368.213 159.479 369.454 160.842 370.254C162.209 371.056 163.81 371.367 165.294 371.923" stroke="black" stroke-linecap="round" stroke-linejoin="round"/>
</g>
<g id="path4012-6">
<path d="M160.285 362.74C161.584 363.204 162.805 364.041 164.181 364.132C165.506 364.219 166.887 363.886 168.077 363.297C168.843 362.917 169.667 362.404 170.025 361.627C170.257 361.122 170.025 360.514 170.025 359.958" fill="#5555AA" fill-opacity="0.255396"/>
<path d="M160.285 362.74C161.584 363.204 162.805 364.041 164.181 364.132C165.506 364.219 166.887 363.886 168.077 363.297C168.843 362.917 169.667 362.404 170.025 361.627C170.257 361.122 170.025 360.514 170.025 359.958" stroke="black" stroke-linecap="round" stroke-linejoin="round"/>
</g>
<g id="path4014-1">
<path d="M156.946 372.202C157.502 373.036 157.954 373.952 158.615 374.706C159.266 375.447 160.1 376.005 160.842 376.654" fill="#5555AA" fill-opacity="0.255396"/>
<path d="M156.946 372.202C157.502 373.036 157.954 373.952 158.615 374.706C159.266 375.447 160.1 376.005 160.842 376.654" stroke="black" stroke-linecap="round" stroke-linejoin="round"/>
</g>
<g id="path4016-8">
<path d="M151.659 374.706C152.772 375.355 153.924 375.941 154.998 376.654C155.771 377.167 156.482 377.767 157.224 378.324" fill="#5555AA" fill-opacity="0.255396"/>
<path d="M151.659 374.706C152.772 375.355 153.924 375.941 154.998 376.654C155.771 377.167 156.482 377.767 157.224 378.324" stroke="black" stroke-linecap="round" stroke-linejoin="round"/>
</g>
<g id="path4018-9">
<path d="M173.364 398.359C173.921 399.379 174.369 400.467 175.034 401.42C175.598 402.229 176.332 402.904 176.982 403.646" fill="#5555AA" fill-opacity="0.255396"/>
<path d="M173.364 398.359C173.921 399.379 174.369 400.467 175.034 401.42C175.598 402.229 176.332 402.904 176.982 403.646" stroke="black" stroke-linecap="round" stroke-linejoin="round"/>
</g>
<path id="path4020" d="M141.919 402.255C144.145 403.183 146.248 404.493 148.598 405.038C151.585 405.73 154.727 405.877 157.781 405.594C159.685 405.418 161.491 404.667 163.346 404.203" stroke="black" stroke-linecap="round" stroke-linejoin="round"/>
<path id="path4022-2" d="M141.084 408.655C143.218 413.015 145.005 417.562 147.484 421.734C149.286 424.765 151.268 427.722 153.607 430.361C154.521 431.393 155.647 432.216 156.668 433.143" stroke="black" stroke-linecap="round" stroke-linejoin="round"/>
<path id="path4024-7" d="M139.415 418.951C141.826 420.528 143.861 422.958 146.65 423.682C149.17 424.336 151.916 423.759 154.441 423.125C158.186 422.185 161.491 419.972 165.016 418.395" stroke="black" stroke-linecap="round" stroke-linejoin="round"/>
<path id="path4026-9" d="M136.632 431.752C137.559 434.071 137.952 436.684 139.415 438.709C140.764 440.576 142.72 441.986 144.702 443.161C146.242 444.075 148.041 444.46 149.711 445.109" stroke="black" stroke-linecap="round" stroke-linejoin="round"/>
<path id="path4028-5" d="M135.797 440.657C138.951 440.657 142.162 441.253 145.258 440.657C147.22 440.279 148.989 439.22 150.824 438.43C152.044 437.905 153.236 437.317 154.441 436.761" stroke="black" stroke-linecap="round" stroke-linejoin="round"/>
<path id="path4037" d="M205.881 330.443C207.763 328.211 209.552 325.897 211.527 323.746C213.662 321.421 215.991 319.282 218.223 317.05C219.23 316.043 220.088 314.862 221.243 314.03C222.196 313.343 223.344 312.98 224.394 312.454" stroke="black" stroke-linecap="round" stroke-linejoin="round"/>
<path id="path4039" d="M204.568 315.474C206.537 315.387 208.505 315.193 210.476 315.212C212.538 315.232 214.631 315.179 216.648 315.606C219.249 316.156 221.982 316.799 224.132 318.363C224.762 318.821 225.095 319.588 225.576 320.201" stroke="black" stroke-linecap="round" stroke-linejoin="round"/>
<path id="path4041" d="M207.588 331.493C209.82 331.537 212.069 331.344 214.284 331.624C217.675 332.054 221.178 332.516 224.263 333.988C225.361 334.512 226.189 335.476 227.152 336.22" stroke="black" stroke-linecap="round" stroke-linejoin="round"/>
<path id="path4043" d="M226.233 329.918C224.001 331.231 221.64 332.346 219.536 333.857C217.42 335.377 215.328 337.002 213.628 338.977C212.241 340.587 211.352 342.566 210.214 344.361" stroke="black" stroke-linecap="round" stroke-linejoin="round"/>
<path id="path4049" d="M131.433 443.625C130.776 443.756 130.131 444.245 129.726 444.806C129.086 445.694 129.026 446.645 128.807 447.958" stroke="black" stroke-linecap="round" stroke-linejoin="round"/>
<path id="path4051" d="M134.715 447.564C134.015 447.695 133.406 448.077 133.009 448.614C132.39 449.45 132.352 450.409 132.221 451.634" stroke="black" stroke-linecap="round" stroke-linejoin="round"/>
<path id="path4053" d="M140.099 451.765C139.398 452.028 138.464 452.7 137.998 453.472C137.537 454.237 137.648 454.917 137.473 456.098" stroke="black" stroke-linecap="round" stroke-linejoin="round"/>
<path id="path4055" d="M144.169 454.917C143.775 455.223 143.247 455.41 142.987 455.836C142.245 457.052 142.462 458.637 142.199 460.037" stroke="black" stroke-linecap="round" stroke-linejoin="round"/>
<path id="path4057" d="M149.552 459.775C149.115 459.862 148.528 460.443 148.239 460.956C147.542 462.199 147.714 463.451 147.452 465.158" stroke="black" stroke-linecap="round" stroke-linejoin="round"/>
<path id="path4059" d="M154.148 465.552C153.798 465.858 153.377 466.257 153.229 466.734C153.008 467.445 153.273 468.134 153.36 468.966" stroke="black" stroke-linecap="round" stroke-linejoin="round"/>
<path id="path4061" d="M149.684 455.704C151.741 455.267 153.808 454.876 155.855 454.391C156.867 454.152 157.843 453.736 158.875 453.604C159.917 453.47 160.976 453.604 162.026 453.604" stroke="black" stroke-linecap="round" stroke-linejoin="round"/>
<path id="path4063" d="M152.966 459.643C154.367 459.293 155.74 458.807 157.168 458.593C158.815 458.346 160.494 458.42 162.157 458.33C162.945 458.288 163.733 458.243 164.521 458.199" stroke="black" stroke-linecap="round" stroke-linejoin="round"/>
<path id="path4065" d="M156.249 464.37C157.649 464.064 159.036 463.687 160.45 463.451C162.319 463.139 164.209 462.957 166.096 462.795C166.883 462.727 167.672 462.707 168.46 462.663" stroke="black" stroke-linecap="round" stroke-linejoin="round"/>
<path id="path4067" d="M161.763 466.602C163.252 466.296 164.716 465.837 166.228 465.683C167.926 465.51 169.642 465.683 171.348 465.683" stroke="black" stroke-linecap="round" stroke-linejoin="round"/>
<path id="path4069" d="M161.764 469.097C161.632 469.579 161.383 470.043 161.37 470.542C161.352 471.168 161.632 471.767 161.764 472.38" stroke="black" stroke-linecap="round" stroke-linejoin="round"/>
<path id="path4071" d="M153.623 453.21C154.192 455.223 155.851 457.264 157.037 459.25C157.752 460.449 158.243 461.847 159.269 462.795C160.793 464.203 163.032 464.571 164.783 465.683C166.128 466.537 167.803 467.259 168.591 468.572" stroke="black" stroke-linecap="round" stroke-linejoin="round"/>
<path id="path4073" d="M157.693 451.897C158.831 453.122 160.126 454.219 161.107 455.573C162.221 457.112 162.755 459.02 163.864 460.563C164.696 461.719 165.666 462.792 166.753 463.714C167.669 464.491 168.726 465.094 169.773 465.683C170.83 466.279 172.158 466.442 173.055 467.259C173.244 467.431 173.318 467.697 173.449 467.915" stroke="black" stroke-linecap="round" stroke-linejoin="round"/>
<path id="path4075" d="M169.904 469.622C170.254 470.279 170.796 470.865 170.955 471.592C171.114 472.32 170.867 473.08 170.823 473.824" stroke="black" stroke-linecap="round" stroke-linejoin="round"/>
<path id="path4077" d="M175.813 468.966C176.294 469.622 177.004 470.162 177.257 470.935C177.516 471.726 177.257 472.599 177.257 473.43" stroke="black" stroke-linecap="round" stroke-linejoin="round"/>
<path id="path4079" d="M250.995 339.92C243.481 344.659 236.999 349.314 230.835 355.053" stroke="black" stroke-linecap="round" stroke-linejoin="round"/>
<path id="path4081" d="M225.75 356C219.144 360.083 214.576 364.167 210.5 368.25" stroke="black" stroke-linecap="round" stroke-linejoin="round"/>
<path id="path4083" d="M217.25 359.5C215.25 360.833 212.901 361.753 211.25 363.5C210.121 364.694 209.43 366.254 208.75 367.75C208.423 368.47 208.25 369.25 208 370" stroke="black" stroke-linecap="round" stroke-linejoin="round"/>
<path id="path4085" d="M255.628 339.42C253.638 339.869 251.466 341.684 249.5 343C247.672 344.224 246 345.667 244.25 347" stroke="black" stroke-linecap="round" stroke-linejoin="round"/>
<g id="path4087">
<path d="M258 340.25C256.833 341.167 253.114 344.078 251.468 344.755Z" fill="#AA5500" fill-opacity="0.233813"/>
<path d="M258 340.25C256.833 341.167 253.114 344.078 251.468 344.755" stroke="black" stroke-linecap="round" stroke-linejoin="round"/>
</g>
<path id="path4089" d="M259.851 342.314C256.972 345.449 252.417 348.583 248.5 351" stroke="black" stroke-linecap="round" stroke-linejoin="round"/>
<path id="path4091" d="M259.526 345.128C256.785 349.071 253.214 351.057 249.627 353.447C247.48 354.878 243.5 356.667 242.75 357" stroke="black" stroke-linecap="round" stroke-linejoin="round"/>
<path id="path4093" d="M256.75 352C254.402 354.051 252.182 355.651 249.707 357.197C247.09 358.831 243.917 360.69 241.5 361.479" stroke="black" stroke-linecap="round" stroke-linejoin="round"/>
<path id="path4095" d="M225.5 359C219.503 362.19 215.077 366.558 210.75 371" stroke="black" stroke-linecap="round" stroke-linejoin="round"/>
<path id="path4097" d="M224.819 363.192C220.428 365.315 215.896 369.115 211.75 372.5" stroke="black" stroke-linecap="round" stroke-linejoin="round"/>
<path id="path4099" d="M223.5 367C220 369.044 217.058 371.294 213.638 374.101" stroke="black" stroke-linecap="round" stroke-linejoin="round"/>
<path id="path4101" d="M224 370.25C221.75 371.583 218.463 373.874 216.213 374.649" stroke="black" stroke-linecap="round" stroke-linejoin="round"/>
<path id="path4103" d="M226.968 370.633C224.718 372.199 222.189 374.095 219.5 375.25C217.996 375.896 216.174 377.041 214.75 376.5" stroke="black" stroke-linecap="round" stroke-linejoin="round"/>
<path id="path4105" d="M209 372C209.417 373.45 211.479 375.241 212.957 376.08" stroke="black" stroke-linecap="round" stroke-linejoin="round"/>
<path id="path4107" d="M251.5 338C252.917 337.833 254.326 337.409 255.75 337.5C257.122 337.588 258.69 337.626 259.75 338.5C260.814 339.378 261.313 340.883 261.5 342.25C261.706 343.757 261.201 345.298 260.75 346.75C260.341 348.067 259.583 349.25 259 350.5" stroke="black" stroke-linecap="round" stroke-linejoin="round"/>
<path id="path4079-1" d="M249.139 338.849C242.313 342.749 234.13 349.283 227.863 354.939" stroke="black" stroke-linecap="round" stroke-linejoin="round"/>
<g id="path32485">
<path d="M130.872 87.8708L133.714 88.8334Z" fill="#FFAAAA"/>
<path d="M130.872 87.8708L133.714 88.8334" stroke="black" stroke-linecap="round" stroke-linejoin="round"/>
</g>
<g id="path32485-8">
<path d="M132.27 85.7625L136.825 86.9708Z" fill="#FFAAAA"/>
<path d="M132.27 85.7625L136.825 86.9708" stroke="black" stroke-linecap="round" stroke-linejoin="round"/>
</g>
<g id="path32485-0">
<path d="M137.948 81.5444L141.41 83.0413Z" fill="#FFAAAA"/>
<path d="M137.948 81.5444L141.41 83.0413" stroke="black" stroke-linecap="round" stroke-linejoin="round"/>
</g>
<g id="path32485-86">
<path d="M139.974 79.2291L144.491 81.4097Z" fill="#FFAAAA"/>
<path d="M139.974 79.2291L144.491 81.4097" stroke="black" stroke-linecap="round" stroke-linejoin="round"/>
</g>
<g id="path32485-09">
<path d="M143.517 77.4582L147.117 79.2397Z" fill="#FFAAAA"/>
<path d="M143.517 77.4582L147.117 79.2397" stroke="black" stroke-linecap="round" stroke-linejoin="round"/>
</g>
<g id="path32485-2-7">
<path d="M128.551 118.969L128.699 123.844Z" fill="#FFAAAA"/>
<path d="M128.551 118.969L128.699 123.844" stroke="black" stroke-linecap="round" stroke-linejoin="round"/>
</g>
<g id="path32485-2-4">
<path d="M126.176 118.594L126.324 124.031Z" fill="#FFAAAA"/>
<path d="M126.176 118.594L126.324 124.031" stroke="black" stroke-linecap="round" stroke-linejoin="round"/>
</g>
<g id="path32485-09-0">
<path d="M146.389 75.9343L149.271 77.7657Z" fill="#FFAAAA"/>
<path d="M146.389 75.9343L149.271 77.7657" stroke="black" stroke-linecap="round" stroke-linejoin="round"/>
</g>
<g id="path32485-09-9">
<path d="M135.089 83.269L139.131 84.7853Z" fill="#FFAAAA"/>
<path d="M135.089 83.269L139.131 84.7853" stroke="black" stroke-linecap="round" stroke-linejoin="round"/>
</g>
</g>
<path id="rect4137-2-6-1-8" d="M22 70V75L20 100H17V105V110H22V105H38V110H43V105V100H40V70H22ZM27 75H35V100H25L27 75Z" fill="#FF5555"/>
<path id="rect4135-1-4-1-4-7-8" d="M12.5 115V120C15.1569 120 17.5 122.007 17.5 125C17.5 129.409 17.5545 133.131 21.5 134.469L12.5 150H18L26.5 135H27.5V150H32.5V135H33.5L42 150H47.5L38.5 134.469C42.4455 133.131 42.5 129.409 42.5 125C42.5 122.007 44.8431 120 47.5 120V115C42.5 115 37.5 120 37.5 125C37.5 127.77 37.5 130 34.5 130H32.5V125V115H27.5V125V130H25.5C22.73 130 22.5 127.77 22.5 125C22.5 120 17.5 115 12.5 115Z" fill="#FF5555"/>
<path id="rect3158-7-9-7-4-2" d="M30 155C24.46 155 20 159.46 20 165V180C20 185.54 24.46 190 30 190C35.54 190 40 185.54 40 180V165C40 159.46 35.54 155 30 155ZM30 160C32.77 160 35 162.23 35 165V180C35 182.77 32.77 185 30 185C27.23 185 25 182.77 25 180V165C25 162.23 27.23 160 30 160Z" fill="#FF5555"/>
<path id="rect4135-1-4-1-4-7-0-4" d="M20 230H25V215H26L34.5 230H40L31 214.469C34.9455 213.131 35 209.409 35 205C35 202.007 37.3431 200 40 200V195C35 195 30 200 30 205C30 207.77 30 210 27 210H25V205V195H20C20 210 20 220 20 230Z" fill="#FF5555"/>
<path id="rect3158-7-9-7-66-0-9-5" d="M30 235C24.46 235 20 239.46 20 245V260C20 265.54 24.46 270 30 270C35.54 270 40 265.54 40 260H35C35 262.77 32.77 265 30 265C27.23 265 25 262.77 25 260V255H40V250V245C40 239.46 35.54 235 30 235ZM30 240C32.77 240 35 242.23 35 245V250H25V245C25 242.23 27.23 240 30 240Z" fill="#FF5555"/>
<path id="rect3158-7-9-7-4-4-5" d="M20 275V285V300V320H25V308.656C26.4685 309.501 28.1774 310 30 310C35.54 310 40 305.54 40 300V285C40 279.46 35.54 275 30 275C28.1774 275 26.4685 275.499 25 276.344V275H20ZM30 280C32.77 280 35 282.23 35 285V300C35 302.77 32.77 305 30 305C27.23 305 25 302.77 25 300V285C25 282.23 27.23 280 30 280Z" fill="#FF5555"/>
<path id="path3504-4" fill-rule="evenodd" clip-rule="evenodd" d="M30 30C21.7157 30 15 36.7157 15 45C15 53.2843 21.7157 60 30 60C38.2843 60 45 53.2843 45 45C45 36.7157 38.2843 30 30 30ZM30 35C35.5229 35 40 39.4771 40 45C40 50.5229 35.5229 55 30 55C24.4771 55 20 50.5229 20 45C20 39.4771 24.4771 35 30 35Z" fill="#FF5555"/>
<path id="path3511" fill-rule="evenodd" clip-rule="evenodd" d="M30.0001 35L32.3512 41.7639L39.5106 41.9098L33.8043 46.2361L35.8779 53.0902L30.0001 49L24.1222 53.0902L26.1958 46.2361L20.4895 41.9098L27.6489 41.7639L30.0001 35Z" fill="#FF5555"/>
<path id="rect4137-2-6-1-8-4" d="M338 470V465L340 440L343 440V435V430H338V435H322V430H317V435V440L320 440V470H338ZM333 465H325V440H335L333 465Z" fill="#FF5555"/>
<path id="rect4135-1-4-1-4-7-8-8" d="M347.5 425V420C344.843 420 342.5 417.993 342.5 415C342.5 410.591 342.445 406.869 338.5 405.531L347.5 390H342L333.5 405H332.5V390H327.5V405H326.5L318 390H312.5L321.5 405.531C317.555 406.869 317.5 410.591 317.5 415C317.5 417.993 315.157 420 312.5 420V425C317.5 425 322.5 420 322.5 415C322.5 412.23 322.5 410 325.5 410H327.5V415V425H332.5V415V410H334.5C337.27 410 337.5 412.23 337.5 415C337.5 420 342.5 425 347.5 425Z" fill="#FF5555"/>
<path id="rect3158-7-9-7-4-2-8" d="M330 385C335.54 385 340 380.54 340 375V360C340 354.46 335.54 350 330 350C324.46 350 320 354.46 320 360V375C320 380.54 324.46 385 330 385ZM330 380C327.23 380 325 377.77 325 375V360C325 357.23 327.23 355 330 355C332.77 355 335 357.23 335 360V375C335 377.77 332.77 380 330 380Z" fill="#FF5555"/>
<path id="rect4135-1-4-1-4-7-0-4-2" d="M340 310H335V325H334L325.5 310H320L329 325.531C325.055 326.869 325 330.591 325 335C325 337.993 322.657 340 320 340V345C325 345 330 340 330 335C330 332.23 330 330 333 330H335V335V345H340C340 330 340 320 340 310Z" fill="#FF5555"/>
<path id="rect3158-7-9-7-66-0-9-5-4" d="M330 305C335.54 305 340 300.54 340 295V280C340 274.46 335.54 270 330 270C324.46 270 320 274.46 320 280H325C325 277.23 327.23 275 330 275C332.77 275 335 277.23 335 280V285H320V290V295C320 300.54 324.46 305 330 305ZM330 300C327.23 300 325 297.77 325 295V290H335V295C335 297.77 332.77 300 330 300Z" fill="#FF5555"/>
<path id="rect3158-7-9-7-4-4-5-5" d="M340 265V255V240V220H335V231.344C333.532 230.499 331.823 230 330 230C324.46 230 320 234.46 320 240V255C320 260.54 324.46 265 330 265C331.823 265 333.532 264.501 335 263.656V265H340ZM330 260C327.23 260 325 257.77 325 255V240C325 237.23 327.23 235 330 235C332.77 235 335 237.23 335 240V255C335 257.77 332.77 260 330 260Z" fill="#FF5555"/>
<path id="path3504-5" fill-rule="evenodd" clip-rule="evenodd" d="M330 510C338.284 510 345 503.284 345 495C345 486.716 338.284 480 330 480C321.716 480 315 486.716 315 495C315 503.284 321.716 510 330 510ZM330 505C324.477 505 320 500.523 320 495C320 489.477 324.477 485 330 485C335.523 485 340 489.477 340 495C340 500.523 335.523 505 330 505Z" fill="#FF5555"/>
<path id="path3511-1" fill-rule="evenodd" clip-rule="evenodd" d="M330 505L327.649 498.236L320.489 498.09L326.196 493.764L324.122 486.91L330 491L335.878 486.91L333.804 493.764L339.51 498.09L332.351 498.236L330 505Z" fill="#FF5555"/>
</g>
</svg>
